{
.formatVersion = 3;
axes = (
{
name = Weight;
tag = wght;
}
);
classes = (
{
code = "zero one two three four five six seven eight nine zero.lf one.lf two.lf three.lf four.lf five.lf six.lf seven.lf eight.lf nine.lf";
name = case;
},
{
code = "zero.osf one.osf two.osf three.osf four.osf five.osf six.osf seven.osf eight.osf nine.osf zero.tosf one.tosf two.tosf three.tosf four.tosf five.tosf six.tosf seven.tosf eight.tosf nine.tosf";
name = case_onum;
},
{
code = "gravecomb acutecomb circumflexcomb tildecomb macroncomb brevecomb dotaccentcomb dieresiscomb ringcomb hungarumlautcomb caroncomb commaturnedabovecomb hookabovecomb dblgravecomb breveinvertedcomb";
name = ccmp;
},
{
code = "zero.dnom one.dnom two.dnom three.dnom four.dnom five.dnom six.dnom seven.dnom eight.dnom nine.dnom";
name = dnom_frac;
},
{
code = "zero one two three four five six seven eight nine";
name = dnom_frac_lnum_numr_ordn;
},
{
code = "zero.numr one.numr two.numr three.numr four.numr five.numr six.numr seven.numr eight.numr nine.numr";
name = frac_numr;
},
{
code = "zero.osf one.osf two.osf three.osf four.osf five.osf six.osf seven.osf eight.osf nine.osf";
name = lnum;
},
{
code = "commaaccentcomb cedillacomb dotbelowcomb dieresisbelowcomb macronbelowcomb palatalhookcomb";
name = mkmk;
},
{
code = "gravecomb acutecomb circumflexcomb tildecomb macroncomb brevecomb dotaccentcomb dieresiscomb ringcomb hungarumlautcomb caroncomb commaturnedabovecomb hookabovecomb dblgravecomb breveinvertedcomb brevebelowcomb brevecomb_acutecomb brevecomb_gravecomb brevecomb_hookabovecomb brevecomb_tildecomb circumflexcomb_acutecomb circumflexcomb_gravecomb circumflexcomb_hookabovecomb circumflexcomb_tildecomb";
name = mkmk2;
},
{
code = "horncomb caroncomb.alt";
name = mkmk3;
},
{
code = "zero one two three four five six seven eight nine zero.tf one.tf two.tf three.tf four.tf five.tf six.tf seven.tf eight.tf nine.tf";
name = onum;
},
{

glyphs = (
{
glyphname = .notdef;
layers = (
{
layerId = "2EB5F385-C357-4F50-996C-712A481EC30A";
shapes = (
{
closed = 1;
nodes = (
(428,350,l),
(585,190,l),
(551,155,l),
(394,315,l),
(237,155,l),
(203,190,l),
(359,350,l),
(203,510,l),
(237,545,l),
(394,385,l),
(551,545,l),
(585,510,l)
);
},
{
closed = 1;
nodes = (
(748,700,l),
(748,0,l),
(39,0,l),
(39,700,l)
);
},
{
closed = 1;
nodes = (
(677,634,l),
(111,634,l),
(111,59,l),
(677,59,l)
);
}
);
width = 786;
},
{
layerId = "A9804AF1-4682-45A6-92D1-C6953796E638";
shapes = (
{
closed = 1;
nodes = (
(423,350,l),
(580,190,l),
(551,160,l),
(394,320,l),
(237,160,l),
(208,190,l),
(364,350,l),
(208,510,l),
(237,540,l),
(394,380,l),
(551,540,l),
(580,510,l)
);
},
{
closed = 1;
nodes = (
(748,700,l),
(748,0,l),
(39,0,l),
(39,700,l)
);
},
{
closed = 1;
nodes = (
(700,653,l),
(88,653,l),
(88,36,l),
(700,36,l)
);
}
);
width = 786;
},
{
layerId = "DD9EABB0-940B-474C-A221-8151F11C5AE7";
shapes = (
{
closed = 1;
nodes = (
(438,350,l),
(595,190,l),
(551,145,l),
(394,305,l),
(237,145,l),
(193,190,l),
(349,350,l),
(193,510,l),
(237,555,l),
(394,395,l),
(551,555,l),
(595,510,l)
);
},
{
closed = 1;
nodes = (
(748,700,l),
(748,0,l),
(39,0,l),
(39,700,l)
);
},
{
closed = 1;
nodes = (
(631,596,l),
(157,596,l),
(157,106,l),
(631,106,l)
);
}
);
width = 786;
}
);
},
{
glyphname = A;
layers = (
{
anchors = (
{
name = m.uni0321_3;
position = "{340, 20}";
},
{
name = t.uni0308_1_3;
position = "{453, 700}";
},
{
name = m.uni0328_3;
position = "{600, 0}";
}
);
layerId = "2EB5F385-C357-4F50-996C-712A481EC30A";
shapes = (
{
closed = 1;
nodes = (
(582,260,l),
(567,172,l),
(139,172,l),
(154,260,l)
);
},
{
closed = 1;
nodes = (
(680,0,l),
(560,0,l),
(424,595,l),
(88,0,l),
(-31,0,l),
(378,700,l),
(505,700,l)
);
}
);
width = 744;
},
{
anchors = (
{
name = m.uni0321_3;
position = "{340, 20}";
},
{
name = t.uni0308_1_3;
position = "{453, 700}";
},
{
name = m.uni0328_3;
position = "{600, 0}";
}
);
layerId = "A9804AF1-4682-45A6-92D1-C6953796E638";
shapes = (
{
closed = 1;
nodes = (
(575,246,l),
(565,191,l),
(128,191,l),
(138,246,l)
);
},
{
closed = 1;
nodes = (
(657,0,l),
(583,0,l),
(422,633,l),
(47,0,l),
(-26,0,l),
(393,700,l),
(472,700,l)
);
}
);
width = 725;
},
{
anchors = (
{
name = m.uni0321_3;
position = "{340, 20}";
},
{
name = t.uni0308_1_3;
position = "{453, 700}";
},
{
name = m.uni0328_3;
position = "{600, 0}";
}
);
layerId = "DD9EABB0-940B-474C-A221-8151F11C5AE7";
shapes = (
{
closed = 1;
nodes = (
(597,288,l),
(571,134,l),
(161,134,l),
(187,288,l)
);
},
{
closed = 1;
nodes = (
(727,0,l),
(514,0,l),
(429,519,l),
(172,0,l),
(-42,0,l),
(348,700,l),
(572,700,l)
);
}
);
width = 782;
}
);
leftKerningGroup = A;
rightKerningGroup = A2;
unicode = 65;
},
{
glyphname = B;
layers = (
{
layerId = "2EB5F385-C357-4F50-996C-712A481EC30A";
shapes = (
{
closed = 1;
nodes = (
(145,91,l),
(332,91,ls),
(428,91,o),
(487,134,o),
(499,205,cs),
(510,272,o),
(466,316,o),
(371,316,cs),
(184,316,l),
(198,404,l),
(365,404,ls),
(448,404,o),
(504,445,o),
(514,508,cs),
(525,569,o),
(486,609,o),
(399,609,cs),
(232,609,l),
(247,700,l),
(414,700,ls),
(573,700,o),
(639,620,o),
(623,518,cs),
(609,437,o),
(530,374,o),
(451,369,c),
(449,379,l),
(557,372,o),
(622,304,o),
(604,198,cs),
(584,79,o),
(478,0,o),
(317,0,cs),
(130,0,l)
);
},
{
closed = 1;
nodes = (
(160,700,l),
(266,700,l),
(149,0,l),
(43,0,l)
);
}
);
width = 664;
},
{
layerId = "A9804AF1-4682-45A6-92D1-C6953796E638";
shapes = (
{
closed = 1;
nodes = (
(107,53,l),
(326,53,ls),
(442,53,o),
(515,108,o),
(530,197,cs),
(544,281,o),
(489,335,o),
(374,335,cs),
(155,335,l),
(164,390,l),
(363,390,ls),
(458,390,o),
(531,443,o),
(544,521,cs),
(557,595,o),
(508,646,o),
(405,646,cs),
(206,646,l),
(215,700,l),
(414,700,ls),
(570,700,o),
(624,615,o),
(609,519,cs),
(595,435,o),
(515,375,o),
(435,369,c),
(432,376,l),
(541,377,o),
(613,305,o),
(595,198,cs),
(575,77,o),
(469,0,o),
(317,0,cs),
(98,0,l)
);
},
{
closed = 1;
nodes = (
(169,700,l),
(234,700,l),
(117,0,l),
(52,0,l)
);
}
);
width = 659;
},
{
layerId = "DD9EABB0-940B-474C-A221-8151F11C5AE7";
shapes = (
{
closed = 1;
nodes = (
(223,166,l),
(344,166,ls),
(399,166,o),
(430,186,o),
(436,222,cs),
(442,255,o),
(419,278,o),
(364,278,cs),
(241,278,l),
(267,432,l),
(370,432,ls),
(426,432,o),
(448,447,o),
(453,481,c),
(461,517,o),
(441,534,o),
(387,534,cs),
(284,534,l),
(311,700,l),
(414,700,ls),
(580,700,o),
(669,630,o),
(650,516,cs),
(637,439,o),
(559,372,o),
(483,368,c),
(484,384,l),
(589,362,o),
(640,302,o),
(622,198,c),
(603,83,o),
(497,0,o),
(317,0,cs),
(194,0,l)
);
},
{
closed = 1;
nodes = (
(141,700,l),
(330,700,l),
(213,0,l),
(24,0,l)
);
}
);
width = 674;
}
);
leftKerningGroup = B;
unicode = 66;
},
{
glyphname = C;
layers = (
{
anchors = (
{
name = m.uni0321_3;
position = "{355, 0}";
},
{
name = t.uni0308_1_3;
position = "{474, 710}";
}
);
layerId = "2EB5F385-C357-4F50-996C-712A481EC30A";
shapes = (
{
closed = 1;
nodes = (
(167,-10,o),
(50,103,o),
(50,278,cs),
(50,521,o),
(235,710,o),
(481,710,cs),
(625,710,o),
(730,639,o),
(766,520,c),
(672,469,l),
(645,564,o),
(570,620,o),
(466,620,cs),
(284,620,o),
(158,468,o),
(158,293,cs),
(158,165,o),
(240,81,o),
(376,81,cs),
(480,81,o),
(574,136,o),
(630,229,c),
(709,178,l),
(633,61,o),
(504,-10,o),
(360,-10,cs)
);
}
);
width = 773;
},
{
anchors = (
{
name = m.uni0321_3;
position = "{355, 0}";
},
{
name = t.uni0308_1_3;
position = "{474, 710}";
}
);
layerId = "A9804AF1-4682-45A6-92D1-C6953796E638";
shapes = (
{
closed = 1;
nodes = (
(172,-10,o),
(55,103,o),
(55,278,cs),
(55,521,o),
(240,710,o),
(486,710,cs),
(628,710,o),
(733,643,o),
(775,528,c),
(715,496,l),
(682,596,o),
(595,657,o),
(477,657,cs),
(268,657,o),
(121,487,o),
(121,285,cs),
(121,138,o),
(216,43,o),
(374,43,cs),
(491,43,o),
(598,104,o),
(666,205,c),
(715,172,l),
(636,57,o),
(507,-10,o),
(365,-10,cs)
);
}
);
width = 784;
},
{
anchors = (
{
name = m.uni0321_3;
position = "{355, 0}";
},
{
name = t.uni0308_1_3;
position = "{474, 710}";
}
);
layerId = "DD9EABB0-940B-474C-A221-8151F11C5AE7";
shapes = (
{
closed = 1;
nodes = (
(157,-10,o),
(40,103,o),
(40,278,cs),
(40,521,o),
(225,710,o),
(471,710,cs),
(618,710,o),
(723,632,o),
(749,504,c),
(583,413,l),
(569,500,o),
(518,544,o),
(443,544,cs),
(316,544,o),
(233,427,o),
(233,308,cs),
(233,216,o),
(290,156,o),
(380,156,cs),
(458,156,o),
(527,200,o),
(558,278,c),
(696,191,l),
(627,68,o),
(497,-10,o),
(350,-10,cs)
);
}
);
width = 750;
}
);
leftKerningGroup = C2;
rightKerningGroup = C;
unicode = 67;
},
{
glyphname = D;
layers = (
{
anchors = (
{
name = m.uni0321_3;
position = "{306, 0}";
},
{
name = t.uni0308_1_3;
position = "{423, 700}";
},
{
name = t.uni0335_2;
position = "{182, 350}";
}
);
layerId = "2EB5F385-C357-4F50-996C-712A481EC30A";
shapes = (
{
closed = 1;
nodes = (
(160,700,l),
(424,700,ls),
(619,700,o),
(740,589,o),
(740,418,cs),
(740,175,o),
(547,0,o),
(307,0,cs),
(43,0,l)
);
},
{
closed = 1;
nodes = (
(323,95,ls),
(497,95,o),
(628,229,o),
(628,401,cs),
(628,525,o),
(545,606,o),
(408,606,cs),
(251,606,l),
(165,95,l)
);
}
);
width = 768;
},
{
anchors = (
{
name = m.uni0321_3;
position = "{306, 0}";
},
{
name = t.uni0308_1_3;
position = "{423, 700}";
},
{
name = t.uni0335_2;
position = "{182, 350}";
}
);
layerId = "A9804AF1-4682-45A6-92D1-C6953796E638";
shapes = (
{
closed = 1;
nodes = (
(169,700,l),
(424,700,ls),
(616,700,o),
(735,589,o),
(735,418,cs),
(735,178,o),
(547,0,o),
(307,0,cs),
(52,0,l)
);
},
{
closed = 1;
nodes = (
(316,53,ls),
(519,53,o),
(670,210,o),
(670,410,cs),
(670,555,o),
(573,648,o),
(415,648,cs),
(226,648,l),
(126,53,l)
);
}
);
width = 768;
},
{
anchors = (
{
name = m.uni0321_3;
position = "{306, 0}";
},
{
name = t.uni0308_1_3;
position = "{423, 700}";
},
{
name = t.uni0335_2;
position = "{182, 350}";
}
);
layerId = "DD9EABB0-940B-474C-A221-8151F11C5AE7";
shapes = (
{
closed = 1;
nodes = (
(141,700,l),
(424,700,ls),
(625,700,o),
(750,588,o),
(750,416,cs),
(750,170,o),
(547,0,o),
(307,0,cs),
(24,0,l)
);
},
{
closed = 1;
nodes = (
(338,180,ls),
(453,180,o),
(543,268,o),
(543,383,cs),
(543,466,o),
(487,520,o),
(395,520,cs),
(301,520,l),
(244,180,l)
);
}
);
width = 768;
}
);
leftKerningGroup = B;
rightKerningGroup = D;
unicode = 68;
},
{
glyphname = E;
layers = (
{
anchors = (
{
name = m.uni0321_3;
position = "{285, 0}";
},
{
name = t.uni0308_1_3;
position = "{378, 700}";
},
{
name = m.uni0328_3;
position = "{395, 0}";
}
);
layerId = "2EB5F385-C357-4F50-996C-712A481EC30A";
shapes = (
{
closed = 1;
nodes = (
(590,700,l),
(576,610,l),
(204,610,l),
(259,658,l),
(156,43,l),
(117,91,l),
(488,91,l),
(473,0,l),
(43,0,l),
(160,700,l)
);
},
{
closed = 1;
nodes = (
(541,402,l),
(525,312,l),
(134,312,l),
(149,402,l)
);
}
);
width = 593;
},
{
anchors = (
{
name = m.uni0321_3;
position = "{285, 0}";
},
{
name = t.uni0308_1_3;
position = "{378, 700}";
},
{
name = m.uni0328_3;
position = "{395, 0}";
}
);
layerId = "A9804AF1-4682-45A6-92D1-C6953796E638";
shapes = (
{
closed = 1;
nodes = (
(581,700,l),
(573,647,l),
(178,647,l),
(233,695,l),
(118,5,l),
(79,53,l),
(473,53,l),
(464,0,l),
(52,0,l),
(169,700,l)
);
},
{
closed = 1;
nodes = (
(528,381,l),
(519,328,l),
(145,328,l),
(154,381,l)
);
}
);
width = 591;
},
{
anchors = (
{
name = m.uni0321_3;
position = "{285, 0}";
},
{
name = t.uni0308_1_3;
position = "{378, 700}";
},
{
name = m.uni0328_3;
position = "{395, 0}";
}
);
layerId = "DD9EABB0-940B-474C-A221-8151F11C5AE7";
shapes = (
{
closed = 1;
nodes = (
(608,700,l),
(581,534,l),
(256,534,l),
(311,582,l),
(234,118,l),
(195,166,l),
(518,166,l),
(491,0,l),
(24,0,l),
(141,700,l)
);
},
{
closed = 1;
nodes = (
(567,446,l),
(538,278,l),
(111,278,l),
(138,446,l)
);
}
);
width = 597;
}
);
leftKerningGroup = B;
rightKerningGroup = E;
unicode = 69;
},
{
glyphname = F;
layers = (
{
layerId = "2EB5F385-C357-4F50-996C-712A481EC30A";
shapes = (
{
closed = 1;
nodes = (
(570,700,l),
(555,610,l),
(204,610,l),
(259,658,l),
(149,0,l),
(43,0,l),
(160,700,l)
);
},
{
closed = 1;
nodes = (
(521,402,l),
(506,312,l),
(134,312,l),
(149,402,l)
);
}
);
width = 558;
},
{
layerId = "A9804AF1-4682-45A6-92D1-C6953796E638";
shapes = (
{
closed = 1;
nodes = (
(561,700,l),
(552,647,l),
(178,647,l),
(233,695,l),
(117,0,l),
(52,0,l),
(169,700,l)
);
},
{
closed = 1;
nodes = (
(508,381,l),
(499,328,l),
(145,328,l),
(154,381,l)
);
}
);
width = 555;
},
{
layerId = "DD9EABB0-940B-474C-A221-8151F11C5AE7";
shapes = (
{
closed = 1;
nodes = (
(589,700,l),
(562,534,l),
(256,534,l),
(311,582,l),
(213,0,l),
(24,0,l),
(141,700,l)
);
},
{
closed = 1;
nodes = (
(548,446,l),
(521,278,l),
(111,278,l),
(138,446,l)
);
}
);
width = 565;
}
);
leftKerningGroup = B;
unicode = 70;
},
{
glyphname = G;
layers = (
{
anchors = (
{
name = m.uni0321_3;
position = "{355, 0}";
},
{
name = t.uni0308_1_3;
position = "{474, 710}";
}
);
layerId = "2EB5F385-C357-4F50-996C-712A481EC30A";
shapes = (
{
closed = 1;
nodes = (
(437,375,l),
(772,375,l),
(765,332,ls),
(732,134,o),
(566,-10,o),
(360,-10,cs),
(167,-10,o),
(50,103,o),
(50,278,cs),
(50,521,o),
(235,710,o),
(481,710,cs),
(619,710,o),
(722,640,o),
(762,526,c),
(665,477,l),
(638,565,o),
(563,620,o),
(466,620,cs),
(284,620,o),
(158,468,o),
(158,293,cs),
(158,165,o),
(240,81,o),
(376,81,cs),
(520,81,o),
(633,172,o),
(657,316,c),
(688,283,l),
(421,283,l)
);
}
);
width = 802;
},
{
anchors = (
{
name = m.uni0321_3;
position = "{355, 0}";
},
{
name = t.uni0308_1_3;
position = "{474, 710}";
}
);
layerId = "A9804AF1-4682-45A6-92D1-C6953796E638";
shapes = (
{
closed = 1;
nodes = (
(447,356,l),
(773,356,l),
(769,329,ls),
(737,135,o),
(570,-10,o),
(365,-10,cs),
(172,-10,o),
(55,103,o),
(55,278,cs),
(55,521,o),
(240,710,o),
(486,710,cs),
(624,710,o),
(724,640,o),
(765,527,c),
(704,500,l),
(672,599,o),
(588,657,o),
(477,657,cs),
(268,657,o),
(121,487,o),
(121,285,cs),
(121,138,o),
(216,43,o),
(374,43,cs),
(548,43,o),
(679,160,o),
(708,329,c),
(746,302,l),
(438,302,l)
);
}
);
width = 811;
},
{
anchors = (
{
name = m.uni0321_3;
position = "{355, 0}";
},
{
name = t.uni0308_1_3;
position = "{474, 710}";
}
);
layerId = "DD9EABB0-940B-474C-A221-8151F11C5AE7";
shapes = (
{
closed = 1;
nodes = (
(415,413,l),
(770,413,l),
(757,337,ls),
(721,133,o),
(558,-10,o),
(350,-10,cs),
(157,-10,o),
(40,103,o),
(40,278,cs),
(40,521,o),
(225,710,o),
(471,710,cs),
(609,710,o),
(717,640,o),
(756,525,c),
(587,430,l),
(569,497,o),
(511,544,o),
(443,544,cs),
(316,544,o),
(233,427,o),
(233,308,cs),
(233,216,o),
(290,156,o),
(380,156,cs),
(464,156,o),
(540,196,o),
(555,289,c),
(569,245,l),
(387,245,l)
);
}
);
width = 783;
}
);
leftKerningGroup = C2;
rightKerningGroup = D;
unicode = 71;
},
{
glyphname = H;
layers = (
{
anchors = (
{
name = m.uni0321_3;
position = "{349, -3}";
},
{
name = t.uni0308_1_3;
position = "{461, 700}";
},
{
name = t.uni0335_2;
position = "{442, 560}";
}
);
layerId = "2EB5F385-C357-4F50-996C-712A481EC30A";
shapes = (
{
closed = 1;
nodes = (
(766,700,l),
(649,0,l),
(543,0,l),
(660,700,l)
);
},
{
closed = 1;
nodes = (
(629,402,l),
(614,312,l),
(183,312,l),
(198,402,l)
);
},
{
closed = 1;
nodes = (
(43,0,l),
(160,700,l),
(266,700,l),
(149,0,l)
);
}
);
width = 787;
},
{
anchors = (
{
name = m.uni0321_3;
position = "{349, -3}";
},
{
name = t.uni0308_1_3;
position = "{461, 700}";
},
{
name = t.uni0335_2;
position = "{442, 560}";
}
);
layerId = "A9804AF1-4682-45A6-92D1-C6953796E638";
shapes = (
{
closed = 1;
nodes = (
(757,700,l),
(640,0,l),
(575,0,l),
(692,700,l)
);
},
{
closed = 1;
nodes = (
(657,381,l),
(648,328,l),
(153,328,l),
(162,381,l)
);
},
{
closed = 1;
nodes = (
(52,0,l),
(169,700,l),
(234,700,l),
(117,0,l)
);
}
);
width = 787;
},
{
anchors = (
{
name = m.uni0321_3;
position = "{349, -3}";
},
{
name = t.uni0308_1_3;
position = "{461, 700}";
},
{
name = t.uni0335_2;
position = "{442, 560}";
}
);
layerId = "DD9EABB0-940B-474C-A221-8151F11C5AE7";
shapes = (
{
closed = 1;
nodes = (
(785,700,l),
(668,0,l),
(479,0,l),
(596,700,l)
);
},
{
closed = 1;
nodes = (
(572,446,l),
(545,278,l),
(243,278,l),
(270,446,l)
);
},
{
closed = 1;
nodes = (
(24,0,l),
(141,700,l),
(330,700,l),
(213,0,l)
);
}
);
width = 787;
}
);
leftKerningGroup = B;
rightKerningGroup = H;
unicode = 72;
},
{
glyphname = I;
layers = (
{
anchors = (
{
name = m.uni0321_3;
position = "{111, 0}";
},
{
name = t.uni0308_1_3;
position = "{226, 700}";
},
{
name = m.uni0328_3;
position = "{119, 0}";
}
);
layerId = "2EB5F385-C357-4F50-996C-712A481EC30A";
shapes = (
{
closed = 1;
nodes = (
(266,700,l),
(149,0,l),
(43,0,l),
(160,700,l)
);
}
);
width = 287;
},
{
anchors = (
{
name = m.uni0321_3;
position = "{111, 0}";
},
{
name = t.uni0308_1_3;
position = "{226, 700}";
},
{
name = m.uni0328_3;
position = "{119, 0}";
}
);
layerId = "A9804AF1-4682-45A6-92D1-C6953796E638";
shapes = (
{
closed = 1;
nodes = (
(234,700,l),
(117,0,l),
(52,0,l),
(169,700,l)
);
}
);
width = 264;
},
{
anchors = (
{
name = m.uni0321_3;
position = "{111, 0}";
},
{
name = t.uni0308_1_3;
position = "{226, 700}";
},
{
name = m.uni0328_3;
position = "{119, 0}";
}
);
layerId = "DD9EABB0-940B-474C-A221-8151F11C5AE7";
shapes = (
{
closed = 1;
nodes = (
(330,700,l),
(213,0,l),
(24,0,l),
(141,700,l)
);
}
);
width = 333;
}
);
leftKerningGroup = B;
rightKerningGroup = H;
unicode = 73;
},
{
glyphname = J;
rightMetricsKey = I;
widthMetricsKey = "=322";
layers = (
{
anchors = (
{
name = bottom;
position = "{34, 0}";
},
{
name = top;
position = "{286, 702}";
}
);
guides = (
{
position = "{0, 960}";
}
);
layerId = "2EB5F385-C357-4F50-996C-712A481EC30A";
widthMetricsKey = "=357";
shapes = (
{
closed = 1;
nodes = (
(150,198,ls),
(131,83,o),
(89,41,o),
(-33,10,c),
(-8,-79,l),
(112,-58,o),
(221,10,o),
(248,174,cs),
(335,700,l),
(233,700,l)
);
}
);
width = 357;
},
{
anchors = (
{
name = bottom;
position = "{9, 0}";
},
{
name = top;
position = "{261, 702}";
}
);
guides = (
{
position = "{0, 960}";
}
);
layerId = "A9804AF1-4682-45A6-92D1-C6953796E638";
shapes = (
{
closed = 1;
nodes = (
(140,167,ls),
(121,56,o),
(73,21,o),
(-32,-10,c),
(-13,-60,l),
(67,-43,o),
(175,4,o),
(200,155,cs),
(290,700,l),
(228,700,l)
);
}
);
width = 322;
},
{
anchors = (
{
name = bottom;
position = "{82, 0}";
},
{
name = top;
position = "{334, 702}";
}
);
guides = (
{
position = "{0, 960}";
}
);
layerId = "DD9EABB0-940B-474C-A221-8151F11C5AE7";
widthMetricsKey = "=428";
shapes = (
{
closed = 1;
nodes = (
(169,264,ls),
(148,140,o),
(117,82,o),
(-40,51,c),
(3,-101,l),
(209,-70,o),
(314,39,o),
(346,228,cs),
(424,700,l),
(241,700,l)
);
}
);
width = 428;
}
);
leftKerningGroup = J;
rightKerningGroup = J1;
unicode = 74;
},
{
glyphname = K;
layers = (
{
anchors = (
{
name = m.uni0321_3;
position = "{301, 0}";
},
{
name = t.uni0308_1_3;
position = "{412, 700}";
}
);
layerId = "2EB5F385-C357-4F50-996C-712A481EC30A";
shapes = (
{
closed = 1;
nodes = (
(379,381,l),
(353,365,l),
(122,162,l),
(141,278,l),
(584,700,l),
(716,700,l)
);
},
{
closed = 1;
nodes = (
(398,435,l),
(638,0,l),
(506,0,l),
(314,364,l)
);
},
{
closed = 1;
nodes = (
(266,700,l),
(149,0,l),
(43,0,l),
(160,700,l)
);
}
);
width = 702;
},
{
anchors = (
{
name = m.uni0321_3;
position = "{301, 0}";
},
{
name = t.uni0308_1_3;
position = "{412, 700}";
}
);
layerId = "A9804AF1-4682-45A6-92D1-C6953796E638";
shapes = (
{
closed = 1;
nodes = (
(356,393,l),
(338,380,l),
(104,168,l),
(117,248,l),
(602,700,l),
(683,700,l)
);
},
{
closed = 1;
nodes = (
(365,424,l),
(606,0,l),
(524,0,l),
(316,384,l)
);
},
{
closed = 1;
nodes = (
(234,700,l),
(117,0,l),
(52,0,l),
(169,700,l)
);
}
);
width = 674;
},
{
anchors = (
{
name = m.uni0321_3;
position = "{301, 0}";
},
{
name = t.uni0308_1_3;
position = "{412, 700}";
}
);
layerId = "DD9EABB0-940B-474C-A221-8151F11C5AE7";
shapes = (
{
closed = 1;
nodes = (
(424,356,l),
(383,335,l),
(157,150,l),
(190,339,l),
(548,700,l),
(782,700,l)
);
},
{
closed = 1;
nodes = (
(466,456,l),
(702,0,l),
(470,0,l),
(309,323,l)
);
},
{
closed = 1;
nodes = (
(330,700,l),
(213,0,l),
(24,0,l),
(141,700,l)
);
}
);
width = 758;
}
);
leftKerningGroup = B;
rightKerningGroup = K;
unicode = 75;
},
{
glyphname = L;
layers = (
{
anchors = (
{
name = m.uni0321_3;
position = "{250, 0}";
},
{
name = t.uni0308_1_3;
position = "{225, 700}";
},
{
name = t.uni0335_2;
position = "{182, 392}";
},
{
name = t.uni031B_3;
position = "{519, 760}";
}
);
layerId = "2EB5F385-C357-4F50-996C-712A481EC30A";
shapes = (
{
closed = 1;
nodes = (
(160,700,l),
(266,700,l),
(156,43,l),
(117,91,l),
(488,91,l),
(473,0,l),
(43,0,l)
);
}
);
width = 536;
},
{
anchors = (
{
name = m.uni0321_3;
position = "{250, 0}";
},
{
name = t.uni0308_1_3;
position = "{225, 700}";
},
{
name = t.uni0335_2;
position = "{182, 392}";
},
{
name = t.uni031B_3;
position = "{519, 760}";
}
);
layerId = "A9804AF1-4682-45A6-92D1-C6953796E638";
shapes = (
{
closed = 1;
nodes = (
(169,700,l),
(234,700,l),
(118,5,l),
(79,53,l),
(473,53,l),
(464,0,l),
(52,0,l)
);
}
);
width = 531;
},
{
anchors = (
{
name = m.uni0321_3;
position = "{250, 0}";
},
{
name = t.uni0308_1_3;
position = "{225, 700}";
},
{
name = t.uni0335_2;
position = "{182, 392}";
},
{
name = t.uni031B_3;
position = "{519, 760}";
}
);
layerId = "DD9EABB0-940B-474C-A221-8151F11C5AE7";
shapes = (
{
closed = 1;
nodes = (
(141,700,l),
(330,700,l),
(234,118,l),
(195,166,l),
(518,166,l),
(491,0,l),
(24,0,l)
);
}
);
width = 546;
}
);
leftKerningGroup = B;
rightKerningGroup = L;
unicode = 76;
},
{
glyphname = M;
layers = (
{
layerId = "2EB5F385-C357-4F50-996C-712A481EC30A";
shapes = (
{
closed = 1;
nodes = (
(899,700,l),
(782,0,l),
(676,0,l),
(767,546,l),
(444,0,l),
(380,0,l),
(241,546,l),
(149,0,l),
(43,0,l),
(160,700,l),
(288,700,l),
(440,162,l),
(770,700,l)
);
}
);
width = 920;
},
{
layerId = "A9804AF1-4682-45A6-92D1-C6953796E638";
shapes = (
{
closed = 1;
nodes = (
(872,700,l),
(755,0,l),
(689,0,l),
(790,603,l),
(421,0,l),
(385,0,l),
(218,603,l),
(117,0,l),
(52,0,l),
(169,700,l),
(251,700,l),
(423,115,l),
(788,700,l)
);
}
);
width = 902;
},
{
layerId = "DD9EABB0-940B-474C-A221-8151F11C5AE7";
shapes = (
{
closed = 1;
nodes = (
(955,700,l),
(838,0,l),
(648,0,l),
(721,432,l),
(491,0,l),
(369,0,l),
(286,432,l),
(213,0,l),
(24,0,l),
(141,700,l),
(363,700,l),
(473,257,l),
(734,700,l)
);
}
);
width = 958;
}
);
leftKerningGroup = B1;
rightKerningGroup = H;
unicode = 77;
},
{
glyphname = N;
layers = (
{
anchors = (
{
name = m.uni0321_3;
position = "{361, 0}";
},
{
name = t.uni0308_1_3;
position = "{481, 700}";
}
);
layerId = "2EB5F385-C357-4F50-996C-712A481EC30A";
shapes = (
{
closed = 1;
nodes = (
(782,700,l),
(665,0,l),
(550,0,l),
(240,544,l),
(149,0,l),
(43,0,l),
(160,700,l),
(269,700,l),
(583,150,l),
(675,700,l)
);
}
);
width = 802;
},
{
anchors = (
{
name = m.uni0321_3;
position = "{361, 0}";
},
{
name = t.uni0308_1_3;
position = "{481, 700}";
}
);
layerId = "A9804AF1-4682-45A6-92D1-C6953796E638";
shapes = (
{
closed = 1;
nodes = (
(754,700,l),
(637,0,l),
(564,0,l),
(217,595,l),
(117,0,l),
(52,0,l),
(169,700,l),
(233,700,l),
(587,94,l),
(688,700,l)
);
}
);
width = 784;
},
{
anchors = (
{
name = m.uni0321_3;
position = "{361, 0}";
},
{
name = t.uni0308_1_3;
position = "{481, 700}";
}
);
layerId = "DD9EABB0-940B-474C-A221-8151F11C5AE7";
shapes = (
{
closed = 1;
nodes = (
(838,700,l),
(721,0,l),
(521,0,l),
(287,440,l),
(213,0,l),
(24,0,l),
(141,700,l),
(343,700,l),
(575,264,l),
(647,700,l)
);
}
);
width = 840;
}
);
leftKerningGroup = B;
rightKerningGroup = N;
unicode = 78;
},
{
glyphname = O;
layers = (
{
anchors = (
{
name = m.uni0321_3;
position = "{355, 0}";
},
{
name = t.uni0308_1_3;
position = "{474, 710}";
},
{
name = t.uni0335_2;
position = "{417, 350}";
},
{
name = m.uni0328_3;
position = "{353, -10}";
},
{
name = t.uni031B_3;
position = "{720, 589}";
}
);
guides = (
{
position = "{0, 1078}";
}
);
layerId = "2EB5F385-C357-4F50-996C-712A481EC30A";
shapes = (
{
closed = 1;
nodes = (
(167,-10,o),
(50,103,o),
(50,278,cs),
(50,521,o),
(235,710,o),
(481,710,cs),
(673,710,o),
(791,597,o),
(791,422,cs),
(791,179,o),
(605,-10,o),
(360,-10,cs)
);
},
{
closed = 1;
nodes = (
(558,81,o),
(684,232,o),
(684,406,cs),
(684,536,o),
(600,620,o),
(466,620,cs),
(284,620,o),
(158,468,o),
(158,293,cs),
(158,165,o),
(240,81,o),
(376,81,cs)
);
}
);
width = 819;
},
{
anchors = (
{
name = m.uni0321_3;
position = "{355, 0}";
},
{
name = t.uni0308_1_3;
position = "{474, 710}";
},
{
name = t.uni0335_2;
position = "{417, 350}";
},
{
name = m.uni0328_3;
position = "{353, -10}";
},
{
name = t.uni031B_3;
position = "{720, 589}";
}
);
guides = (
{
position = "{0, 1078}";
}
);
layerId = "A9804AF1-4682-45A6-92D1-C6953796E638";
shapes = (
{
closed = 1;
nodes = (
(172,-10,o),
(55,103,o),
(55,278,cs),
(55,521,o),
(240,710,o),
(486,710,cs),
(678,710,o),
(796,597,o),
(796,422,cs),
(796,179,o),
(610,-10,o),
(365,-10,cs)
);
},
{
closed = 1;
nodes = (
(582,43,o),
(731,212,o),
(731,413,cs),
(731,561,o),
(634,657,o),
(477,657,cs),
(268,657,o),
(121,487,o),
(121,285,cs),
(121,138,o),
(216,43,o),
(374,43,cs)
);
}
);
width = 828;
},
{
anchors = (
{
name = m.uni0321_3;
position = "{355, 0}";
},
{
name = t.uni0308_1_3;
position = "{474, 710}";
},
{
name = t.uni0335_2;
position = "{417, 350}";
},
{
name = m.uni0328_3;
position = "{353, -10}";
},
{
name = t.uni031B_3;
position = "{720, 589}";
}
);
guides = (
{
position = "{0, 1078}";
}
);
layerId = "DD9EABB0-940B-474C-A221-8151F11C5AE7";
shapes = (
{
closed = 1;
nodes = (
(157,-10,o),
(40,103,o),
(40,278,cs),
(40,521,o),
(225,710,o),
(471,710,cs),
(663,710,o),
(781,597,o),
(781,422,cs),
(781,179,o),
(595,-10,o),
(350,-10,cs)
);
},
{
closed = 1;
nodes = (
(506,156,o),
(589,271,o),
(589,389,cs),
(589,483,o),
(534,544,o),
(443,544,cs),
(316,544,o),
(233,427,o),
(233,308,cs),
(233,216,o),
(290,156,o),
(380,156,cs)
);
}
);
width = 801;
}
);
leftKerningGroup = C2;
rightKerningGroup = D;
unicode = 79;
},
{
glyphname = P;
layers = (
{
layerId = "2EB5F385-C357-4F50-996C-712A481EC30A";
shapes = (
{
closed = 1;
nodes = (
(332,336,ls),
(422,336,o),
(488,390,o),
(502,473,cs),
(516,555,o),
(468,610,o),
(378,610,cs),
(251,610,l),
(149,0,l),
(43,0,l),
(160,700,l),
(392,700,ls),
(547,700,o),
(632,609,o),
(609,473,cs),
(586,336,o),
(471,244,o),
(317,244,cs),
(172,244,l),
(187,336,l)
);
}
);
width = 623;
},
{
layerId = "A9804AF1-4682-45A6-92D1-C6953796E638";
shapes = (
{
closed = 1;
nodes = (
(320,317,ls),
(430,317,o),
(510,382,o),
(526,482,cs),
(544,582,o),
(485,647,o),
(375,647,cs),
(225,647,l),
(117,0,l),
(52,0,l),
(169,700,l),
(383,700,ls),
(534,700,o),
(614,613,o),
(592,482,cs),
(570,351,o),
(461,263,o),
(311,263,cs),
(143,263,l),
(152,317,l)
);
}
);
width = 609;
},
{
layerId = "DD9EABB0-940B-474C-A221-8151F11C5AE7";
shapes = (
{
closed = 1;
nodes = (
(355,374,ls),
(406,374,o),
(444,406,o),
(452,454,cs),
(460,502,o),
(434,534,o),
(383,534,cs),
(303,534,l),
(213,0,l),
(24,0,l),
(141,700,l),
(410,700,ls),
(574,700,o),
(667,601,o),
(643,454,cs),
(619,307,o),
(492,206,o),
(328,206,cs),
(229,206,l),
(256,374,l)
);
}
);
width = 650;
}
);
leftKerningGroup = B;
unicode = 80;
},
{
glyphname = Q;
layers = (
{
layerId = "2EB5F385-C357-4F50-996C-712A481EC30A";
shapes = (
{
closed = 1;
nodes = (
(637,-201,l),
(590,-195,o),
(553,-171,o),
(499,-119,cs),
(477,-97,o),
(448,-64,o),
(411,-25,cs),
(378,11,l),
(381,32,l),
(431,32,ls),
(471,32,o),
(498,22,o),
(531,-5,cs),
(609,-70,o),
(663,-103,o),
(701,-110,c)
);
},
{
closed = 1;
nodes = (
(167,-10,o),
(50,103,o),
(50,278,cs),
(50,521,o),
(235,710,o),
(481,710,cs),
(673,710,o),
(791,597,o),
(791,422,cs),
(791,179,o),
(605,-10,o),
(360,-10,cs)
);
},
{
closed = 1;
nodes = (
(558,81,o),
(684,232,o),
(684,406,cs),
(684,536,o),
(600,620,o),
(466,620,cs),
(284,620,o),
(158,468,o),
(158,293,cs),
(158,165,o),
(240,81,o),
(376,81,cs)
);
}
);
width = 824;
},
{
layerId = "A9804AF1-4682-45A6-92D1-C6953796E638";
shapes = (
{
closed = 1;
nodes = (
(648,-215,l),
(605,-207,o),
(568,-182,o),
(505,-119,cs),
(481,-95,o),
(453,-64,o),
(420,-28,c),
(387,10,l),
(387,18,l),
(415,18,ls),
(451,18,o),
(479,6,o),
(503,-21,cs),
(575,-100,o),
(643,-148,o),
(684,-159,c)
);
},
{
closed = 1;
nodes = (
(172,-10,o),
(55,103,o),
(55,278,cs),
(55,521,o),
(240,710,o),
(486,710,cs),
(678,710,o),
(796,597,o),
(796,422,cs),
(796,179,o),
(610,-10,o),
(365,-10,cs)
);
},
{
closed = 1;
nodes = (
(582,43,o),
(731,212,o),
(731,413,cs),
(731,561,o),
(634,657,o),
(477,657,cs),
(268,657,o),
(121,487,o),
(121,285,cs),
(121,138,o),
(216,43,o),
(374,43,cs)
);
}
);
width = 827;
},
{
layerId = "DD9EABB0-940B-474C-A221-8151F11C5AE7";
shapes = (
{
closed = 1;
nodes = (
(614,-172,l),
(558,-170,o),
(523,-149,o),
(487,-118,c),
(469,-99,o),
(437,-64,o),
(393,-18,c),
(361,12,l),
(368,60,l),
(464,60,ls),
(512,60,o),
(536,54,o),
(588,29,c),
(678,-8,o),
(704,-11,o),
(736,-12,c)
);
},
{
closed = 1;
nodes = (
(157,-10,o),
(40,103,o),
(40,278,cs),
(40,521,o),
(225,710,o),
(471,710,cs),
(663,710,o),
(781,597,o),
(781,422,cs),
(781,179,o),
(595,-10,o),
(350,-10,cs)
);
},
{
closed = 1;
nodes = (
(506,156,o),
(589,271,o),
(589,389,cs),
(589,483,o),
(534,544,o),
(443,544,cs),
(316,544,o),
(233,427,o),
(233,308,cs),
(233,216,o),
(290,156,o),
(380,156,cs)
);
}
);
width = 818;
}
);
leftKerningGroup = C2;
rightKerningGroup = D;
unicode = 81;
},
{
glyphname = R;
layers = (
{
anchors = (
{
name = m.uni0321_3;
position = "{290, 0}";
},
{
name = t.uni0308_1_3;
position = "{384, 699}";
}
);
layerId = "2EB5F385-C357-4F50-996C-712A481EC30A";
shapes = (
{
closed = 1;
nodes = (
(348,319,l),
(453,319,o),
(493,297,o),
(525,227,cs),
(627,0,l),
(505,0,l),
(424,192,ls),
(401,247,o),
(377,264,o),
(291,264,c)
);
},
{
closed = 1;
nodes = (
(358,352,ls),
(449,352,o),
(530,413,o),
(530,508,cs),
(530,572,o),
(482,610,o),
(401,610,cs),
(251,610,l),
(149,0,l),
(43,0,l),
(160,700,l),
(416,700,ls),
(555,700,o),
(638,636,o),
(638,529,cs),
(638,373,o),
(505,286,o),
(358,286,cs),
(349,286,l),
(325,264,l),
(175,264,l),
(189,352,l)
);
}
);
width = 691;
},
{
anchors = (
{
name = m.uni0321_3;
position = "{290, 0}";
},
{
name = t.uni0308_1_3;
position = "{384, 699}";
}
);
layerId = "A9804AF1-4682-45A6-92D1-C6953796E638";
shapes = (
{
closed = 1;
nodes = (
(326,321,l),
(417,321,o),
(467,297,o),
(495,240,cs),
(609,0,l),
(537,0,l),
(437,213,ls),
(410,269,o),
(390,283,o),
(296,283,c)
);
},
{
closed = 1;
nodes = (
(341,338,ls),
(451,338,o),
(551,410,o),
(551,526,cs),
(551,602,o),
(493,647,o),
(393,647,cs),
(225,647,l),
(117,0,l),
(52,0,l),
(169,700,l),
(402,700,ls),
(538,700,o),
(616,638,o),
(616,535,cs),
(616,375,o),
(480,291,o),
(331,291,cs),
(327,291,l),
(319,283,l),
(146,283,l),
(155,338,l)
);
}
);
width = 677;
},
{
anchors = (
{
name = m.uni0321_3;
position = "{290, 0}";
},
{
name = t.uni0308_1_3;
position = "{384, 699}";
}
);
layerId = "DD9EABB0-940B-474C-A221-8151F11C5AE7";
shapes = (
{
closed = 1;
nodes = (
(392,315,l),
(527,315,o),
(546,296,o),
(585,199,cs),
(665,0,l),
(441,0,l),
(396,150,ls),
(382,201,o),
(349,226,o),
(281,226,c)
);
},
{
closed = 1;
nodes = (
(391,380,ls),
(442,380,o),
(488,418,o),
(488,470,cs),
(488,510,o),
(460,534,o),
(417,534,cs),
(303,534,l),
(213,0,l),
(24,0,l),
(141,700,l),
(444,700,ls),
(590,700,o),
(682,631,o),
(682,512,cs),
(682,365,o),
(552,276,o),
(413,276,cs),
(394,276,l),
(336,226,l),
(232,226,l),
(258,380,l)
);
}
);
width = 719;
}
);
leftKerningGroup = B;
rightKerningGroup = R;
unicode = 82;
},
{
glyphname = S;
layers = (
{
anchors = (
{
name = m.uni0321_3;
position = "{244, 0}";
},
{
name = t.uni0308_1_3;
position = "{363, 711}";
}
);
layerId = "2EB5F385-C357-4F50-996C-712A481EC30A";
shapes = (
{
closed = 1;
nodes = (
(283,617,o),
(202,581,o),
(202,504,cs),
(202,462,o),
(242,431,o),
(328,407,cs),
(461,368,o),
(524,312,o),
(524,223,cs),
(524,71,o),
(381,-10,o),
(242,-10,cs),
(142,-10,o),
(62,27,o),
(12,83,c),
(70,173,l),
(117,117,o),
(183,85,o),
(258,85,cs),
(325,85,o),
(416,119,o),
(416,199,cs),
(416,246,o),
(372,280,o),
(259,315,cs),
(145,349,o),
(93,401,o),
(93,479,cs),
(93,628,o),
(226,711,o),
(364,711,cs),
(456,711,o),
(529,678,o),
(579,627,c),
(519,544,l),
(476,588,o),
(414,617,o),
(349,617,cs)
);
}
);
width = 582;
},
{
anchors = (
{
name = m.uni0321_3;
position = "{244, 0}";
},
{
name = t.uni0308_1_3;
position = "{363, 711}";
}
);
layerId = "A9804AF1-4682-45A6-92D1-C6953796E638";
shapes = (
{
closed = 1;
nodes = (
(261,659,o),
(171,603,o),
(171,507,cs),
(171,452,o),
(216,415,o),
(309,390,cs),
(446,353,o),
(513,300,o),
(513,212,cs),
(513,69,o),
(381,-10,o),
(249,-10,cs),
(144,-10,o),
(68,28,o),
(18,90,c),
(68,135,l),
(111,79,o),
(177,43,o),
(258,43,cs),
(347,43,o),
(447,98,o),
(447,198,cs),
(447,257,o),
(394,300,o),
(274,335,cs),
(158,367,o),
(105,414,o),
(105,493,cs),
(105,632,o),
(228,711,o),
(358,711,cs),
(451,711,o),
(523,676,o),
(573,619,c),
(525,576,l),
(485,624,o),
(423,659,o),
(349,659,cs)
);
}
);
width = 577;
},
{
anchors = (
{
name = m.uni0321_3;
position = "{244, 0}";
},
{
name = t.uni0308_1_3;
position = "{363, 711}";
}
);
layerId = "DD9EABB0-940B-474C-A221-8151F11C5AE7";
shapes = (
{
closed = 1;
nodes = (
(328,531,o),
(264,528,o),
(264,496,cs),
(264,481,o),
(293,465,o),
(367,440,cs),
(490,398,o),
(546,335,o),
(546,247,cs),
(546,75,o),
(381,-10,o),
(226,-10,cs),
(138,-10,o),
(51,25,o),
(0,67,c),
(72,251,l),
(130,195,o),
(196,170,o),
(257,170,cs),
(278,170,o),
(350,170,o),
(350,205,cs),
(350,224,o),
(327,240,o),
(229,274,cs),
(118,313,o),
(69,373,o),
(69,452,cs),
(69,621,o),
(224,711,o),
(377,711,cs),
(465,711,o),
(540,683,o),
(591,643,c),
(507,480,l),
(458,515,o),
(396,531,o),
(348,531,cs)
);
}
);
width = 591;
}
);
leftKerningGroup = S;
rightKerningGroup = S1;
unicode = 83;
},
{
glyphname = T;
layers = (
{
anchors = (
{
name = m.uni0321_3;
position = "{267, 0}";
},
{
name = t.uni0308_1_3;
position = "{386, 700}";
},
{
name = t.uni0335_2;
position = "{329, 360}";
}
);
layerId = "2EB5F385-C357-4F50-996C-712A481EC30A";
shapes = (
{
closed = 1;
nodes = (
(424,654,l),
(315,0,l),
(209,0,l),
(318,654,l)
);
},
{
closed = 1;
nodes = (
(663,700,l),
(648,610,l),
(80,610,l),
(95,700,l)
);
}
);
width = 618;
},
{
anchors = (
{
name = m.uni0321_3;
position = "{267, 0}";
},
{
name = t.uni0308_1_3;
position = "{386, 700}";
},
{
name = t.uni0335_2;
position = "{329, 360}";
}
);
layerId = "A9804AF1-4682-45A6-92D1-C6953796E638";
shapes = (
{
closed = 1;
nodes = (
(402,673,l),
(290,0,l),
(225,0,l),
(338,673,l)
);
},
{
closed = 1;
nodes = (
(649,700,l),
(640,647,l),
(90,647,l),
(99,700,l)
);
}
);
width = 609;
},
{
anchors = (
{
name = m.uni0321_3;
position = "{267, 0}";
},
{
name = t.uni0308_1_3;
position = "{386, 700}";
},
{
name = t.uni0335_2;
position = "{329, 360}";
}
);
layerId = "DD9EABB0-940B-474C-A221-8151F11C5AE7";
shapes = (
{
closed = 1;
nodes = (
(469,616,l),
(366,0,l),
(175,0,l),
(278,616,l)
);
},
{
closed = 1;
nodes = (
(691,700,l),
(664,534,l),
(58,534,l),
(87,700,l)
);
}
);
width = 636;
}
);
leftKerningGroup = T;
rightKerningGroup = T2;
unicode = 84;
},
{
glyphname = U;
layers = (
{
anchors = (
{
name = m.uni0321_3;
position = "{338, 0}";
},
{
name = t.uni0308_1_3;
position = "{455, 700}";
},
{
name = m.uni0328_3;
position = "{336, -10}";
},
{
name = t.uni031B_3;
position = "{739, 700}";
}
);
layerId = "2EB5F385-C357-4F50-996C-712A481EC30A";
shapes = (
{
closed = 1;
nodes = (
(678,296,ls),
(647,103,o),
(517,-10,o),
(329,-10,cs),
(142,-10,o),
(51,103,o),
(83,296,cs),
(150,700,l),
(257,700,l),
(190,296,ls),
(167,161,o),
(224,81,o),
(344,81,cs),
(465,81,o),
(549,161,o),
(572,296,cs),
(639,700,l),
(746,700,l)
);
}
);
width = 757;
},
{
anchors = (
{
name = m.uni0321_3;
position = "{338, 0}";
},
{
name = t.uni0308_1_3;
position = "{455, 700}";
},
{
name = m.uni0328_3;
position = "{336, -10}";
},
{
name = t.uni031B_3;
position = "{739, 700}";
}
);
layerId = "A9804AF1-4682-45A6-92D1-C6953796E638";
shapes = (
{
closed = 1;
nodes = (
(657,287,ls),
(627,100,o),
(503,-10,o),
(323,-10,cs),
(145,-10,o),
(58,100,o),
(89,287,cs),
(158,700,l),
(224,700,l),
(155,287,ls),
(129,135,o),
(194,43,o),
(332,43,cs),
(471,43,o),
(566,135,o),
(592,287,cs),
(661,700,l),
(727,700,l)
);
}
);
width = 746;
},
{
anchors = (
{
name = m.uni0321_3;
position = "{338, 0}";
},
{
name = t.uni0308_1_3;
position = "{455, 700}";
},
{
name = m.uni0328_3;
position = "{336, -10}";
},
{
name = t.uni031B_3;
position = "{739, 700}";
}
);
layerId = "DD9EABB0-940B-474C-A221-8151F11C5AE7";
shapes = (
{
closed = 1;
nodes = (
(722,315,l),
(686,110,o),
(544,-10,o),
(340,-10,cs),
(136,-10,o),
(35,110,o),
(71,315,c),
(134,700,l),
(324,700,l),
(259,315,ls),
(242,214,o),
(284,156,o),
(368,156,cs),
(454,156,o),
(514,214,o),
(531,315,cs),
(594,700,l),
(785,700,l)
);
}
);
width = 780;
}
);
leftKerningGroup = U2;
rightKerningGroup = U;
unicode = 85;
},
{
glyphname = V;
layers = (
{
layerId = "2EB5F385-C357-4F50-996C-712A481EC30A";
shapes = (
{
closed = 1;
nodes = (
(760,700,l),
(368,0,l),
(242,0,l),
(85,700,l),
(209,700,l),
(323,107,l),
(636,700,l)
);
}
);
width = 706;
},
{
layerId = "A9804AF1-4682-45A6-92D1-C6953796E638";
shapes = (
{
closed = 1;
nodes = (
(724,700,l),
(331,0,l),
(247,0,l),
(90,700,l),
(163,700,l),
(299,55,l),
(649,700,l)
);
}
);
width = 673;
},
{
layerId = "DD9EABB0-940B-474C-A221-8151F11C5AE7";
shapes = (
{
closed = 1;
nodes = (
(834,700,l),
(443,0,l),
(232,0,l),
(75,700,l),
(301,700,l),
(373,213,l),
(608,700,l)
);
}
);
width = 772;
}
);
leftKerningGroup = V;
rightKerningGroup = V2;
unicode = 86;
},
{
glyphname = W;
layers = (
{
anchors = (
{
name = m.uni0321_3;
position = "{520, 0}";
},
{
name = t.uni0308_1_3;
position = "{640, 700}";
}
);
layerId = "2EB5F385-C357-4F50-996C-712A481EC30A";
shapes = (
{
closed = 1;
nodes = (
(1158,700,l),
(801,0,l),
(668,0,l),
(600,574,l),
(341,0,l),
(207,0,l),
(85,700,l),
(209,700,l),
(294,111,l),
(562,700,l),
(681,700,l),
(753,111,l),
(1034,700,l)
);
}
);
width = 1104;
},
{
anchors = (
{
name = m.uni0321_3;
position = "{520, 0}";
},
{
name = t.uni0308_1_3;
position = "{640, 700}";
}
);
layerId = "A9804AF1-4682-45A6-92D1-C6953796E638";
shapes = (
{
closed = 1;
nodes = (
(1125,700,l),
(762,0,l),
(679,0,l),
(594,619,l),
(302,0,l),
(219,0,l),
(90,700,l),
(163,700,l),
(269,61,l),
(571,700,l),
(644,700,l),
(734,61,l),
(1052,700,l)
);
}
);
width = 1076;
},
{
anchors = (
{
name = m.uni0321_3;
position = "{520, 0}";
},
{
name = t.uni0308_1_3;
position = "{640, 700}";
}
);
layerId = "DD9EABB0-940B-474C-A221-8151F11C5AE7";
shapes = (
{
closed = 1;
nodes = (
(1224,700,l),
(881,0,l),
(645,0,l),
(612,482,l),
(420,0,l),
(184,0,l),
(75,700,l),
(301,700,l),
(344,212,l),
(543,700,l),
(756,700,l),
(791,212,l),
(998,700,l)
);
}
);
width = 1160;
}
);
leftKerningGroup = V;
rightKerningGroup = V2;
unicode = 87;
},
{
glyphname = X;
layers = (
{
layerId = "2EB5F385-C357-4F50-996C-712A481EC30A";
shapes = (
{
closed = 1;
nodes = (
(449,360,l),
(663,0,l),
(531,0,l),
(365,295,l),
(101,0,l),
(-31,0,l),
(303,360,l),
(105,700,l),
(237,700,l),
(387,425,l),
(629,700,l),
(761,700,l)
);
}
);
width = 727;
},
{
layerId = "A9804AF1-4682-45A6-92D1-C6953796E638";
shapes = (
{
closed = 1;
nodes = (
(398,360,l),
(612,0,l),
(531,0,l),
(347,323,l),
(55,0,l),
(-26,0,l),
(308,360,l),
(110,700,l),
(191,700,l),
(359,396,l),
(629,700,l),
(710,700,l)
);
}
);
width = 681;
},
{
layerId = "DD9EABB0-940B-474C-A221-8151F11C5AE7";
shapes = (
{
closed = 1;
nodes = (
(551,360,l),
(765,0,l),
(531,0,l),
(403,238,l),
(193,0,l),
(-41,0,l),
(293,360,l),
(95,700,l),
(329,700,l),
(443,482,l),
(629,700,l),
(863,700,l)
);
}
);
width = 819;
}
);
unicode = 88;
},
{
glyphname = Y;
layers = (
{
anchors = (
{
name = m.uni0321_3;
position = "{298, 0}";
},
{
name = t.uni0308_1_3;
position = "{415, 700}";
}
);
layerId = "2EB5F385-C357-4F50-996C-712A481EC30A";
shapes = (
{
closed = 1;
nodes = (
(380,326,l),
(276,326,l),
(86,700,l),
(218,700,l),
(345,429,l),
(563,700,l),
(694,700,l)
);
},
{
closed = 1;
nodes = (
(381,326,l),
(326,0,l),
(220,0,l),
(275,326,l)
);
}
);
width = 641;
},
{
anchors = (
{
name = m.uni0321_3;
position = "{298, 0}";
},
{
name = t.uni0308_1_3;
position = "{415, 700}";
}
);
layerId = "A9804AF1-4682-45A6-92D1-C6953796E638";
shapes = (
{
closed = 1;
nodes = (
(341,331,l),
(279,331,l),
(91,700,l),
(172,700,l),
(321,396,l),
(572,700,l),
(653,700,l)
);
},
{
closed = 1;
nodes = (
(342,331,l),
(287,0,l),
(222,0,l),
(278,331,l)
);
}
);
width = 605;
},
{
anchors = (
{
name = m.uni0321_3;
position = "{298, 0}";
},
{
name = t.uni0308_1_3;
position = "{415, 700}";
}
);
layerId = "DD9EABB0-940B-474C-A221-8151F11C5AE7";
shapes = (
{
closed = 1;
nodes = (
(458,316,l),
(270,316,l),
(76,700,l),
(310,700,l),
(394,497,l),
(544,700,l),
(778,700,l)
);
},
{
closed = 1;
nodes = (
(459,316,l),
(405,0,l),
(215,0,l),
(269,316,l)
);
}
);
width = 715;
}
);
leftKerningGroup = Y;
rightKerningGroup = Y2;
unicode = 89;
},
{
glyphname = Z;
layers = (
{
anchors = (
{
name = m.uni0321_3;
position = "{290, 0}";
},
{
name = t.uni0308_1_3;
position = "{387, 700}";
}
);
layerId = "2EB5F385-C357-4F50-996C-712A481EC30A";
shapes = (
{
closed = 1;
nodes = (
(559,91,l),
(544,0,l),
(-9,0,l),
(4,77,l),
(492,610,l),
(103,610,l),
(118,700,l),
(641,700,l),
(628,623,l),
(141,91,l)
);
}
);
width = 630;
},
{
anchors = (
{
name = m.uni0321_3;
position = "{290, 0}";
},
{
name = t.uni0308_1_3;
position = "{387, 700}";
}
);
layerId = "A9804AF1-4682-45A6-92D1-C6953796E638";
shapes = (
{
closed = 1;
nodes = (
(553,53,l),
(544,0,l),
(-9,0,l),
(-2,44,l),
(549,647,l),
(109,647,l),
(118,700,l),
(641,700,l),
(634,656,l),
(83,53,l)
);
}
);
width = 630;
},
{
anchors = (
{
name = m.uni0321_3;
position = "{290, 0}";
},
{
name = t.uni0308_1_3;
position = "{387, 700}";
}
);
layerId = "DD9EABB0-940B-474C-A221-8151F11C5AE7";
shapes = (
{
closed = 1;
nodes = (
(571,166,l),
(544,0,l),
(-9,0,l),
(15,144,l),
(375,534,l),
(91,534,l),
(118,700,l),
(641,700,l),
(617,556,l),
(259,166,l)
);
}
);
width = 630;
}
);
leftKerningGroup = Z;
rightKerningGroup = Z1;
unicode = 90;
},
{
glyphname = a;
layers = (
{
anchors = (
{
name = t.uni0308_1_3;
position = "{297, 500}";
},
{
name = b.uni0321;
position = "{163, 0}";
},
{
name = m.uni0328_2;
position = "{363, 13}";
}
);
layerId = "2EB5F385-C357-4F50-996C-712A481EC30A";
shapes = (
{
closed = 1;
nodes = (
(305,97,l),
(341,319,l),
(355,389,o),
(322,423,o),
(248,423,cs),
(201,423,o),
(144,404,o),
(97,373,c),
(75,453,l),
(139,490,o),
(215,510,o),
(290,510,cs),
(412,510,o),
(462,442,o),
(446,329,cs),
(391,0,l),
(292,0,l)
);
},
{
closed = 1;
nodes = (
(161,242,o),
(107,205,o),
(107,140,cs),
(107,97,o),
(140,69,o),
(194,69,cs),
(261,69,o),
(306,108,o),
(317,175,c),
(350,175,l),
(331,58,o),
(259,-10,o),
(153,-10,cs),
(60,-10,o),
(2,40,o),
(2,120,cs),
(2,244,o),
(104,307,o),
(220,307,cs),
(277,307,o),
(304,300,o),
(347,275,c),
(336,210,l),
(305,233,o),
(272,242,o),
(223,242,cs)
);
}
);
width = 499;
},
{
anchors = (
{
name = t.uni0308_1_3;
position = "{270, 500}";
},
{
name = b.uni0321;
position = "{161, 0}";
},
{
name = m.uni0328_2;
position = "{328, 22}";
}
);
layerId = "A9804AF1-4682-45A6-92D1-C6953796E638";
shapes = (
{
closed = 1;
nodes = (
(325,94,l),
(364,333,ls),
(378,416,o),
(344,456,o),
(255,456,cs),
(205,456,o),
(146,433,o),
(102,398,c),
(76,448,l),
(137,488,o),
(210,510,o),
(283,510,cs),
(394,510,o),
(448,449,o),
(432,343,cs),
(374,0,l),
(308,0,l)
);
},
{
closed = 1;
nodes = (
(137,252,o),
(71,211,o),
(71,130,cs),
(71,79,o),
(112,46,o),
(177,46,cs),
(265,46,o),
(324,91,o),
(336,169,c),
(370,169,l),
(352,57,o),
(274,-10,o),
(162,-10,cs),
(64,-10,o),
(4,41,o),
(4,121,cs),
(4,246,o),
(110,305,o),
(224,305,cs),
(291,305,o),
(314,298,o),
(366,263,c),
(358,210,l),
(320,239,o),
(276,252,o),
(212,252,cs)
);
}
);
width = 492;
},
{
anchors = (
{
name = t.uni0308_1_3;
position = "{352, 500}";
},
{
name = b.uni0321;
position = "{167, 0}";
},
{
name = m.uni0328_2;
position = "{435, -6}";
}
);
layerId = "DD9EABB0-940B-474C-A221-8151F11C5AE7";
shapes = (
{
closed = 1;
nodes = (
(264,102,l),
(295,290,ls),
(302,333,o),
(282,356,o),
(235,356,cs),
(193,356,o),
(140,346,o),
(86,323,c),
(73,464,l),
(143,494,o),
(226,510,o),
(305,510,cs),
(440,510,o),
(496,424,o),
(474,300,c),
(424,0,l),
(259,0,l)
);
},
{
closed = 1;
nodes = (
(210,223,o),
(179,194,o),
(179,158,cs),
(179,132,o),
(198,115,o),
(228,115,cs),
(253,115,o),
(271,143,o),
(278,188,c),
(310,188,l),
(289,59,o),
(229,-11,o),
(134,-11,cs),
(49,-11,o),
(0,40,o),
(0,119,cs),
(0,239,o),
(97,311,o),
(212,311,cs),
(248,311,o),
(285,305,o),
(308,298,c),
(292,210,l),
(275,220,o),
(265,223,o),
(245,223,cs)
);
}
);
width = 514;
}
);
leftKerningGroup = a2;
rightKerningGroup = a;
unicode = 97;
},
{
glyphname = b;
layers = (
{
layerId = "2EB5F385-C357-4F50-996C-712A481EC30A";
shapes = (
{
closed = 1;
nodes = (
(193,402,l),
(138,250,l),
(142,98,l),
(122,0,l),
(23,0,l),
(150,760,l),
(253,760,l)
);
},
{
closed = 1;
nodes = (
(511,510,o),
(594,429,o),
(594,303,cs),
(594,136,o),
(468,-10,o),
(295,-10,cs),
(176,-10,o),
(106,69,o),
(106,190,cs),
(106,349,o),
(210,510,o),
(382,510,cs)
);
},
{
closed = 1;
nodes = (
(411,77,o),
(488,176,o),
(488,288,cs),
(488,371,o),
(436,423,o),
(351,423,cs),
(234,423,o),
(155,325,o),
(155,213,cs),
(155,130,o),
(206,77,o),
(293,77,cs)
);
}
);
width = 635;
},
{
layerId = "A9804AF1-4682-45A6-92D1-C6953796E638";
shapes = (
{
closed = 1;
nodes = (
(163,388,l),
(110,250,l),
(117,112,l),
(99,0,l),
(32,0,l),
(159,760,l),
(225,760,l)
);
},
{
closed = 1;
nodes = (
(518,510,o),
(603,428,o),
(603,302,cs),
(603,129,o),
(471,-10,o),
(295,-10,cs),
(164,-10,o),
(83,71,o),
(83,196,cs),
(83,365,o),
(207,510,o),
(382,510,cs)
);
},
{
closed = 1;
nodes = (
(438,44,o),
(535,157,o),
(535,294,cs),
(535,392,o),
(471,456,o),
(365,456,cs),
(226,456,o),
(126,343,o),
(126,208,cs),
(126,108,o),
(190,44,o),
(296,44,cs)
);
}
);
width = 653;
},
{
layerId = "DD9EABB0-940B-474C-A221-8151F11C5AE7";
shapes = (
{
closed = 1;
nodes = (
(254,430,l),
(194,250,l),
(193,69,l),
(168,0,l),
(5,0,l),
(132,760,l),
(309,760,l)
);
},
{
closed = 1;
nodes = (
(499,510,o),
(575,430,o),
(575,307,cs),
(575,149,o),
(464,-10,o),
(295,-10,cs),
(200,-10,o),
(151,61,o),
(151,174,cs),
(151,311,o),
(220,510,o),
(382,510,cs)
);
},
{
closed = 1;
nodes = (
(355,144,o),
(395,214,o),
(395,276,cs),
(395,326,o),
(368,356,o),
(322,356,cs),
(251,356,o),
(212,289,o),
(212,225,cs),
(212,176,o),
(239,144,o),
(286,144,cs)
);
}
);
width = 599;
}
);
rightKerningGroup = b;
unicode = 98;
},
{
glyphname = c;
layers = (
{
anchors = (
{
name = m.uni0321_3;
position = "{248, 0}";
},
{
name = t.uni0308_1_3;
position = "{330, 500}";
}
);
layerId = "2EB5F385-C357-4F50-996C-712A481EC30A";
shapes = (
{
closed = 1;
nodes = (
(477,81,l),
(423,24,o),
(345,-10,o),
(259,-10,cs),
(118,-10,o),
(32,72,o),
(32,199,cs),
(32,375,o),
(169,510,o),
(346,510,cs),
(431,510,o),
(499,473,o),
(537,415,c),
(468,351,l),
(442,396,o),
(393,423,o),
(335,423,cs),
(217,423,o),
(135,328,o),
(135,214,cs),
(135,130,o),
(188,77,o),
(277,77,cs),
(333,77,o),
(394,103,o),
(434,146,c)
);
}
);
width = 549;
},
{
anchors = (
{
name = m.uni0321_3;
position = "{248, 0}";
},
{
name = t.uni0308_1_3;
position = "{330, 500}";
}
);
layerId = "A9804AF1-4682-45A6-92D1-C6953796E638";
shapes = (
{
closed = 1;
nodes = (
(490,85,l),
(435,24,o),
(352,-10,o),
(268,-10,cs),
(127,-10,o),
(41,72,o),
(41,199,cs),
(41,375,o),
(178,510,o),
(355,510,cs),
(440,510,o),
(514,467,o),
(551,396,c),
(502,363,l),
(472,421,o),
(415,456,o),
(345,456,cs),
(205,456,o),
(107,342,o),
(107,207,cs),
(107,107,o),
(170,44,o),
(276,44,cs),
(341,44,o),
(408,73,o),
(455,123,c)
);
}
);
width = 572;
},
{
anchors = (
{
name = m.uni0321_3;
position = "{248, 0}";
},
{
name = t.uni0308_1_3;
position = "{330, 500}";
}
);
layerId = "DD9EABB0-940B-474C-A221-8151F11C5AE7";
shapes = (
{
closed = 1;
nodes = (
(450,73,l),
(399,23,o),
(329,-10,o),
(240,-10,cs),
(99,-10,o),
(13,72,o),
(13,199,cs),
(13,375,o),
(150,510,o),
(327,510,cs),
(414,510,o),
(467,486,o),
(508,453,c),
(400,327,l),
(380,344,o),
(348,356,o),
(316,356,cs),
(243,356,o),
(192,298,o),
(192,227,cs),
(192,177,o),
(224,144,o),
(278,144,cs),
(317,144,o),
(365,164,o),
(392,191,c)
);
}
);
width = 502;
}
);
leftKerningGroup = a2;
rightKerningGroup = c;
unicode = 99;
},
{
glyphname = d;
layers = (
{
anchors = (
{
name = m.uni0321_3;
position = "{267, 0}";
},
{
name = t.uni0308_1_3;
position = "{306, 552}";
},
{
name = t.uni0335_2;
position = "{531, 617}";
},
{
name = t.uni031B_3;
position = "{772, 760}";
}
);
layerId = "2EB5F385-C357-4F50-996C-712A481EC30A";
shapes = (
{
closed = 1;
nodes = (
(431,98,l),
(486,250,l),
(482,402,l),
(541,760,l),
(644,760,l),
(517,0,l),
(418,0,l)
);
},
{
closed = 1;
nodes = (
(446,510,o),
(518,431,o),
(518,309,cs),
(518,149,o),
(412,-10,o),
(239,-10,cs),
(111,-10,o),
(31,71,o),
(31,195,cs),
(31,362,o),
(152,510,o),
(326,510,cs)
);
},
{
closed = 1;
nodes = (
(391,77,o),
(469,175,o),
(469,288,cs),
(469,370,o),
(417,423,o),
(331,423,cs),
(214,423,o),
(135,325,o),
(135,213,cs),
(135,130,o),
(186,77,o),
(273,77,cs)
);
}
);
width = 635;
},
{
anchors = (
{
name = m.uni0321_3;
position = "{267, 0}";
},
{
name = t.uni0308_1_3;
position = "{306, 552}";
},
{
name = t.uni0335_2;
position = "{531, 617}";
},
{
name = t.uni031B_3;
position = "{772, 760}";
}
);
layerId = "A9804AF1-4682-45A6-92D1-C6953796E638";
shapes = (
{
closed = 1;
nodes = (
(479,112,l),
(532,250,l),
(525,388,l),
(587,760,l),
(653,760,l),
(526,0,l),
(459,0,l)
);
},
{
closed = 1;
nodes = (
(477,510,o),
(559,429,o),
(559,304,cs),
(559,135,o),
(434,-10,o),
(260,-10,cs),
(123,-10,o),
(40,72,o),
(40,197,cs),
(40,370,o),
(170,510,o),
(347,510,cs)
);
},
{
closed = 1;
nodes = (
(417,44,o),
(516,157,o),
(516,293,cs),
(516,392,o),
(451,456,o),
(346,456,cs),
(206,456,o),
(107,343,o),
(107,207,cs),
(107,107,o),
(171,44,o),
(277,44,cs)
);
}
);
width = 653;
},
{
anchors = (
{
name = m.uni0321_3;
position = "{267, 0}";
},
{
name = t.uni0308_1_3;
position = "{306, 552}";
},
{
name = t.uni0335_2;
position = "{531, 617}";
},
{
name = t.uni031B_3;
position = "{772, 760}";
}
);
layerId = "DD9EABB0-940B-474C-A221-8151F11C5AE7";
shapes = (
{
closed = 1;
nodes = (
(333,69,l),
(393,250,l),
(393,430,l),
(449,760,l),
(626,760,l),
(499,0,l),
(334,0,l)
);
},
{
closed = 1;
nodes = (
(383,510,o),
(435,438,o),
(435,324,cs),
(435,183,o),
(363,-10,o),
(198,-10,cs),
(84,-10,o),
(12,70,o),
(12,193,cs),
(12,346,o),
(117,510,o),
(285,510,cs)
);
},
{
closed = 1;
nodes = (
(335,144,o),
(376,213,o),
(376,276,cs),
(376,326,o),
(349,356,o),
(302,356,cs),
(231,356,o),
(192,289,o),
(192,225,cs),
(192,176,o),
(219,144,o),
(266,144,cs)
);
}
);
width = 599;
}
);
leftKerningGroup = a2;
rightKerningGroup = d1;
unicode = 100;
},
{
glyphname = e;
layers = (
{
anchors = (
{
name = m.uni0321_3;
position = "{257, 0}";
},
{
name = t.uni0308_1_3;
position = "{332, 500}";
},
{
name = m.uni0328_3;
position = "{255, -10}";
}
);
layerId = "2EB5F385-C357-4F50-996C-712A481EC30A";
shapes = (
{
closed = 1;
nodes = (
(491,287,l),
(445,258,l),
(449,274,o),
(452,290,o),
(452,307,cs),
(452,378,o),
(404,423,o),
(325,423,cs),
(230,423,o),
(157,359,o),
(140,262,cs),
(136,237,ls),
(135,228,o),
(134,218,o),
(134,210,cs),
(134,129,o),
(194,78,o),
(290,77,c),
(352,78,o),
(412,102,o),
(457,141,c),
(487,73,l),
(433,22,o),
(351,-10,o),
(262,-10,cs),
(119,-10,o),
(32,72,o),
(32,199,cs),
(32,372,o),
(164,510,o),
(339,510,cs),
(469,510,o),
(551,429,o),
(551,306,cs),
(551,290,o),
(550,273,o),
(547,256,cs),
(541,223,l),
(99,223,l),
(110,287,l)
);
}
);
width = 591;
},
{
anchors = (
{
name = m.uni0321_3;
position = "{257, 0}";
},
{
name = t.uni0308_1_3;
position = "{332, 500}";
},
{
name = m.uni0328_3;
position = "{255, -10}";
}
);
layerId = "A9804AF1-4682-45A6-92D1-C6953796E638";
shapes = (
{
closed = 1;
nodes = (
(531,278,l),
(482,258,l),
(486,268,o),
(489,302,o),
(489,313,cs),
(489,400,o),
(431,456,o),
(335,456,cs),
(219,456,o),
(133,380,o),
(113,264,cs),
(108,235,ls),
(106,223,o),
(105,212,o),
(105,201,cs),
(105,106,o),
(175,46,o),
(284,44,c),
(350,46,o),
(418,74,o),
(464,119,c),
(493,80,l),
(442,25,o),
(355,-10,o),
(267,-10,cs),
(126,-10,o),
(41,72,o),
(41,198,cs),
(41,369,o),
(169,510,o),
(344,510,cs),
(474,510,o),
(554,433,o),
(554,312,cs),
(554,296,o),
(553,279,o),
(550,261,cs),
(544,225,l),
(70,225,l),
(79,278,l)
);
}
);
width = 603;
},
{
anchors = (
{
name = m.uni0321_3;
position = "{257, 0}";
},
{
name = t.uni0308_1_3;
position = "{332, 500}";
},
{
name = m.uni0328_3;
position = "{255, -10}";
}
);
layerId = "DD9EABB0-940B-474C-A221-8151F11C5AE7";
shapes = (
{
closed = 1;
nodes = (
(411,306,l),
(370,257,l),
(374,270,o),
(377,282,o),
(377,296,cs),
(377,336,o),
(349,356,o),
(306,356,cs),
(251,356,o),
(207,318,o),
(196,257,cs),
(193,241,ls),
(180,167,o),
(235,114,o),
(331,115,c),
(334,133,o),
(324,144,o),
(307,144,c),
(358,144,o),
(400,159,o),
(444,185,c),
(476,60,l),
(416,15,o),
(343,-10,o),
(252,-10,cs),
(103,-10,o),
(13,73,o),
(13,200,cs),
(13,378,o),
(153,510,o),
(329,510,cs),
(459,510,o),
(544,423,o),
(544,296,cs),
(544,280,o),
(543,263,o),
(540,246,cs),
(535,218,l),
(157,218,l),
(172,306,l)
);
}
);
width = 568;
}
);
leftKerningGroup = a2;
rightKerningGroup = e;
unicode = 101;
},
{
glyphname = f;
layers = (
{
layerId = "2EB5F385-C357-4F50-996C-712A481EC30A";
shapes = (
{
closed = 1;
nodes = (
(164,584,ls),
(183,700,o),
(256,760,o),
(377,760,cs),
(403,760,o),
(431,755,o),
(450,750,c),
(435,662,l),
(416,669,o),
(389,673,o),
(369,673,cs),
(310,673,o),
(276,642,o),
(266,581,cs),
(169,0,l),
(66,0,l)
);
},
{
closed = 1;
nodes = (
(52,500,l),
(398,500,l),
(384,413,l),
(38,413,l)
);
}
);
width = 387;
},
{
layerId = "A9804AF1-4682-45A6-92D1-C6953796E638";
shapes = (
{
closed = 1;
nodes = (
(171,603,ls),
(189,706,o),
(254,760,o),
(363,760,cs),
(385,760,o),
(414,755,o),
(432,750,c),
(422,695,l),
(404,701,o),
(373,706,o),
(352,706,cs),
(287,706,o),
(249,672,o),
(237,604,cs),
(136,0,l),
(71,0,l)
);
},
{
closed = 1;
nodes = (
(57,500,l),
(380,500,l),
(371,446,l),
(48,446,l)
);
}
);
width = 373;
},
{
layerId = "DD9EABB0-940B-474C-A221-8151F11C5AE7";
shapes = (
{
closed = 1;
nodes = (
(148,546,ls),
(172,687,o),
(261,760,o),
(405,760,cs),
(438,760,o),
(464,755,o),
(488,750,c),
(462,595,l),
(439,603,o),
(422,606,o),
(404,606,cs),
(357,606,o),
(332,581,o),
(323,534,c),
(235,0,l),
(56,0,l)
);
},
{
closed = 1;
nodes = (
(42,500,l),
(436,500,l),
(410,346,l),
(16,346,l)
);
}
);
width = 415;
}
);
leftKerningGroup = f2;
rightKerningGroup = f;
unicode = 102;
},
{
glyphname = g;
layers = (
{
layerId = "2EB5F385-C357-4F50-996C-712A481EC30A";
shapes = (
{
closed = 1;
nodes = (
(244,-164,o),
(347,-152,o),
(347,-74,cs),
(347,-30,o),
(300,-6,o),
(213,-6,cs),
(155,-6,o),
(56,-20,o),
(56,-97,cs),
(56,-140,o),
(102,-164,o),
(186,-164,cs)
);
},
{
closed = 1;
nodes = (
(384,510,o),
(467,459,o),
(467,362,cs),
(467,227,o),
(355,160,o),
(230,160,cs),
(115,160,o),
(48,210,o),
(48,297,cs),
(48,433,o),
(160,510,o),
(288,510,cs)
);
},
{
closed = 1;
nodes = (
(312,229,o),
(365,274,o),
(365,346,cs),
(365,394,o),
(332,423,o),
(274,423,cs),
(203,423,o),
(150,378,o),
(150,306,cs),
(150,258,o),
(183,229,o),
(241,229,cs)
);
},
{
closed = 1;
nodes = (
(558,413,l),
(498,413,o),
(460,404,o),
(414,376,c),
(394,420,l),
(452,482,o),
(488,500,o),
(573,500,c)
);
},
{
closed = 1;
nodes = (
(227,82,ls),
(375,82,o),
(457,33,o),
(457,-51,cs),
(457,-199,o),
(291,-240,o),
(173,-240,cs),
(28,-240,o),
(-49,-192,o),
(-49,-113,cs),
(-49,-21,o),
(36,39,o),
(119,45,c),
(125,32,l),
(59,34,o),
(23,59,o),
(23,102,cs),
(23,162,o),
(84,200,o),
(137,211,c),
(174,181,l),
(149,170,o),
(127,149,o),
(127,120,cs),
(127,96,o),
(144,82,o),
(179,82,cs)
);
}
);
width = 543;
},
{
layerId = "A9804AF1-4682-45A6-92D1-C6953796E638";
shapes = (
{
closed = 1;
nodes = (
(247,-183,o),
(375,-165,o),
(375,-72,cs),
(375,-18,o),
(316,13,o),
(211,13,cs),
(142,13,o),
(23,-7,o),
(23,-99,cs),
(23,-152,o),
(79,-183,o),
(178,-183,cs)
);
},
{
closed = 1;
nodes = (
(379,510,o),
(458,460,o),
(458,363,cs),
(458,230,o),
(351,160,o),
(225,160,cs),
(113,160,o),
(48,210,o),
(48,297,cs),
(48,431,o),
(154,510,o),
(283,510,cs)
);
},
{
closed = 1;
nodes = (
(324,206,o),
(391,264,o),
(391,357,cs),
(391,419,o),
(349,456,o),
(274,456,cs),
(183,456,o),
(116,397,o),
(116,305,cs),
(116,243,o),
(157,206,o),
(232,206,cs)
);
},
{
closed = 1;
nodes = (
(559,446,l),
(495,446,o),
(463,434,o),
(414,396,c),
(391,428,l),
(447,480,o),
(488,500,o),
(568,500,c)
);
},
{
closed = 1;
nodes = (
(220,68,ls),
(360,68,o),
(441,18,o),
(441,-64,cs),
(441,-203,o),
(279,-240,o),
(168,-240,cs),
(34,-240,o),
(-44,-195,o),
(-44,-114,cs),
(-44,-19,o),
(49,47,o),
(133,52,c),
(140,33,l),
(69,35,o),
(30,58,o),
(30,101,cs),
(30,155,o),
(83,194,o),
(131,205,c),
(152,182,l),
(121,171,o),
(98,147,o),
(98,113,cs),
(98,84,o),
(117,68,o),
(158,68,c)
);
}
);
width = 542;
},
{
layerId = "DD9EABB0-940B-474C-A221-8151F11C5AE7";
shapes = (
{
closed = 1;
nodes = (
(238,-126,o),
(291,-124,o),
(291,-76,cs),
(291,-53,o),
(268,-44,o),
(215,-44,cs),
(182,-44,o),
(122,-46,o),
(122,-92,cs),
(122,-117,o),
(147,-126,o),
(202,-126,cs)
);
},
{
closed = 1;
nodes = (
(395,510,o),
(485,458,o),
(485,360,cs),
(485,222,o),
(364,160,o),
(240,160,cs),
(117,160,o),
(48,211,o),
(48,298,cs),
(48,435,o),
(172,510,o),
(298,510,cs)
);
},
{
closed = 1;
nodes = (
(288,276,o),
(312,295,o),
(312,324,cs),
(312,344,o),
(298,356,o),
(273,356,cs),
(243,356,o),
(219,338,o),
(219,307,cs),
(219,288,o),
(234,276,o),
(259,276,cs)
);
},
{
closed = 1;
nodes = (
(557,346,l),
(503,346,o),
(454,343,o),
(413,335,c),
(399,404,l),
(461,486,o),
(488,500,o),
(583,500,c)
);
},
{
closed = 1;
nodes = (
(242,110,ls),
(407,110,o),
(489,62,o),
(489,-26,cs),
(489,-189,o),
(317,-240,o),
(183,-240,cs),
(16,-240,o),
(-59,-186,o),
(-59,-112,cs),
(-59,-26,o),
(11,22,o),
(90,32,c),
(93,30,l),
(40,33,o),
(10,61,o),
(10,103,cs),
(10,175,o),
(86,212,o),
(148,224,c),
(218,179,l),
(205,169,o),
(185,153,o),
(185,135,cs),
(185,122,o),
(199,110,o),
(220,110,cs)
);
}
);
width = 544;
}
);
leftKerningGroup = a2;
rightKerningGroup = g;
unicode = 103;
},
{
glyphname = h;
layers = (
{
anchors = (
{
name = m.uni0321_3;
position = "{257, 0}";
},
{
name = t.uni0308_1_3;
position = "{213, 760}";
},
{
name = t.uni0335_2;
position = "{199, 617}";
}
);
layerId = "2EB5F385-C357-4F50-996C-712A481EC30A";
shapes = (
{
closed = 1;
nodes = (
(150,760,l),
(253,760,l),
(126,0,l),
(23,0,l)
);
},
{
closed = 1;
nodes = (
(416,286,ls),
(431,379,o),
(396,423,o),
(329,423,cs),
(261,423,o),
(190,379,o),
(172,276,c),
(135,276,l),
(162,437,o),
(264,510,o),
(372,510,cs),
(480,510,o),
(544,437,o),
(522,297,cs),
(471,0,l),
(368,0,l)
);
}
);
width = 578;
},
{
anchors = (
{
name = m.uni0321_3;
position = "{257, 0}";
},
{
name = t.uni0308_1_3;
position = "{213, 760}";
},
{
name = t.uni0335_2;
position = "{199, 617}";
}
);
layerId = "A9804AF1-4682-45A6-92D1-C6953796E638";
shapes = (
{
closed = 1;
nodes = (
(159,760,l),
(225,760,l),
(98,0,l),
(32,0,l)
);
},
{
closed = 1;
nodes = (
(435,291,ls),
(454,407,o),
(409,456,o),
(334,456,cs),
(258,456,o),
(167,409,o),
(145,281,c),
(113,281,l),
(140,446,o),
(244,510,o),
(349,510,cs),
(458,510,o),
(527,442,o),
(502,288,cs),
(453,0,l),
(386,0,l)
);
}
);
width = 569;
},
{
anchors = (
{
name = m.uni0321_3;
position = "{257, 0}";
},
{
name = t.uni0308_1_3;
position = "{213, 760}";
},
{
name = t.uni0335_2;
position = "{199, 617}";
}
);
layerId = "DD9EABB0-940B-474C-A221-8151F11C5AE7";
shapes = (
{
closed = 1;
nodes = (
(132,760,l),
(309,760,l),
(182,0,l),
(5,0,l)
);
},
{
closed = 1;
nodes = (
(377,276,ls),
(385,321,o),
(369,356,o),
(318,356,cs),
(266,356,o),
(235,317,o),
(227,266,c),
(180,266,l),
(206,420,o),
(305,510,o),
(418,510,cs),
(525,510,o),
(579,426,o),
(561,316,cs),
(509,0,l),
(332,0,l)
);
}
);
width = 597;
}
);
leftKerningGroup = h;
rightKerningGroup = a;
unicode = 104;
},
{
glyphname = i;
layers = (
{
anchors = (
{
name = m.uni0321_3;
position = "{90, 0}";
}
);
layerId = "2EB5F385-C357-4F50-996C-712A481EC30A";
shapes = (
{
closed = 1;
nodes = (
(215,500,l),
(131,0,l),
(29,0,l),
(113,500,l)
);
},
{
closed = 1;
nodes = (
(244,760,o),
(268,734,o),
(261,699,c),
(256,663,o),
(223,637,o),
(187,637,cs),
(149,637,o),
(127,663,o),
(133,699,c),
(140,734,o),
(170,760,o),
(208,760,cs)
);
}
);
width = 255;
},
{
anchors = (
{
name = m.uni0321_3;
position = "{90, 0}";
}
);
layerId = "A9804AF1-4682-45A6-92D1-C6953796E638";
shapes = (
{
closed = 1;
nodes = (
(189,500,l),
(105,0,l),
(39,0,l),
(123,500,l)
);
},
{
closed = 1;
nodes = (
(227,760,o),
(245,740,o),
(240,713,c),
(236,685,o),
(211,665,o),
(184,665,cs),
(155,665,o),
(139,685,o),
(144,713,cs),
(149,740,o),
(171,760,o),
(200,760,cs)
);
}
);
width = 239;
},
{
anchors = (
{
name = m.uni0321_3;
position = "{90, 0}";
}
);
layerId = "DD9EABB0-940B-474C-A221-8151F11C5AE7";
shapes = (
{
closed = 1;
nodes = (
(268,500,l),
(184,0,l),
(7,0,l),
(91,500,l)
);
},
{
closed = 1;
nodes = (
(278,760,o),
(313,723,o),
(305,670,c),
(295,617,o),
(247,580,o),
(192,580,cs),
(137,580,o),
(103,617,o),
(111,670,c),
(121,723,o),
(168,760,o),
(223,760,cs)
);
}
);
width = 287;
}
);
leftKerningGroup = i2;
rightKerningGroup = i;
unicode = 105;
},
{
glyphname = j;
layers = (
{
layerId = "2EB5F385-C357-4F50-996C-712A481EC30A";
shapes = (
{
closed = 1;
nodes = (
(165,637,o),
(142,663,o),
(149,699,c),
(154,734,o),
(186,760,o),
(223,760,cs),
(261,760,o),
(284,734,o),
(277,699,c),
(271,663,o),
(240,637,o),
(202,637,cs)
);
},
{
closed = 1;
nodes = (
(-64,-159,l),
(-6,-148,o),
(28,-108,o),
(38,-42,cs),
(129,500,l),
(232,500,l),
(141,-42,ls),
(122,-155,o),
(63,-221,o),
(-45,-240,c)
);
}
);
width = 271;
},
{
layerId = "A9804AF1-4682-45A6-92D1-C6953796E638";
shapes = (
{
closed = 1;
nodes = (
(159,665,o),
(142,685,o),
(147,713,cs),
(151,740,o),
(175,760,o),
(202,760,cs),
(231,760,o),
(248,740,o),
(243,713,cs),
(238,685,o),
(215,665,o),
(186,665,cs)
);
},
{
closed = 1;
nodes = (
(-68,-186,l),
(-12,-176,o),
(20,-140,o),
(30,-75,cs),
(127,500,l),
(193,500,l),
(96,-75,ls),
(79,-178,o),
(28,-230,o),
(-64,-241,c)
);
}
);
width = 243;
},
{
layerId = "DD9EABB0-940B-474C-A221-8151F11C5AE7";
shapes = (
{
closed = 1;
nodes = (
(178,580,o),
(143,617,o),
(153,670,c),
(161,723,o),
(209,760,o),
(264,760,cs),
(321,760,o),
(356,723,o),
(346,670,c),
(338,617,o),
(290,580,o),
(235,580,cs)
);
},
{
closed = 1;
nodes = (
(-56,-103,l),
(5,-90,o),
(43,-44,o),
(54,24,cs),
(134,500,l),
(311,500,l),
(231,24,ls),
(208,-108,o),
(132,-204,o),
(-7,-238,c)
);
}
);
width = 328;
}
);
unicode = 106;
},
{
glyphname = k;
layers = (
{
anchors = (
{
name = m.uni0321_3;
position = "{250, 0}";
},
{
name = t.uni0308_1_3;
position = "{331, 500}";
}
);
layerId = "2EB5F385-C357-4F50-996C-712A481EC30A";
shapes = (
{
closed = 1;
nodes = (
(309,277,l),
(285,261,l),
(103,118,l),
(120,223,l),
(432,500,l),
(565,500,l)
);
},
{
closed = 1;
nodes = (
(253,760,l),
(126,0,l),
(23,0,l),
(150,760,l)
);
},
{
closed = 1;
nodes = (
(491,0,l),
(363,0,l),
(242,263,l),
(329,329,l)
);
}
);
width = 549;
},
{
anchors = (
{
name = m.uni0321_3;
position = "{250, 0}";
},
{
name = t.uni0308_1_3;
position = "{331, 500}";
}
);
layerId = "A9804AF1-4682-45A6-92D1-C6953796E638";
shapes = (
{
closed = 1;
nodes = (
(275,282,l),
(253,268,l),
(75,118,l),
(87,194,l),
(441,500,l),
(533,500,l)
);
},
{
closed = 1;
nodes = (
(225,760,l),
(98,0,l),
(32,0,l),
(159,760,l)
);
},
{
closed = 1;
nodes = (
(459,0,l),
(376,0,l),
(226,275,l),
(278,322,l)
);
}
);
width = 516;
},
{
anchors = (
{
name = m.uni0321_3;
position = "{250, 0}";
},
{
name = t.uni0308_1_3;
position = "{331, 500}";
}
);
layerId = "DD9EABB0-940B-474C-A221-8151F11C5AE7";
shapes = (
{
closed = 1;
nodes = (
(378,267,l),
(349,248,l),
(159,118,l),
(187,281,l),
(413,500,l),
(629,500,l)
);
},
{
closed = 1;
nodes = (
(309,760,l),
(182,0,l),
(5,0,l),
(132,760,l)
);
},
{
closed = 1;
nodes = (
(555,0,l),
(335,0,l),
(274,238,l),
(433,344,l)
);
}
);
width = 615;
}
);
leftKerningGroup = h;
rightKerningGroup = k;
unicode = 107;
},
{
glyphname = l;
layers = (
{
anchors = (
{
name = m.uni0321_3;
position = "{91, 0}";
},
{
name = t.uni0308_1_3;
position = "{218, 760}";
},
{
name = t.uni0335_2;
position = "{155, 382}";
},
{
name = t.uni031B_3;
position = "{421, 760}";
}
);
layerId = "2EB5F385-C357-4F50-996C-712A481EC30A";
shapes = (
{
closed = 1;
nodes = (
(257,760,l),
(130,0,l),
(28,0,l),
(155,760,l)
);
}
);
width = 252;
},
{
anchors = (
{
name = m.uni0321_3;
position = "{91, 0}";
},
{
name = t.uni0308_1_3;
position = "{218, 760}";
},
{
name = t.uni0335_2;
position = "{155, 382}";
},
{
name = t.uni031B_3;
position = "{421, 760}";
}
);
layerId = "A9804AF1-4682-45A6-92D1-C6953796E638";
shapes = (
{
closed = 1;
nodes = (
(230,760,l),
(103,0,l),
(37,0,l),
(164,760,l)
);
}
);
width = 235;
},
{
anchors = (
{
name = m.uni0321_3;
position = "{91, 0}";
},
{
name = t.uni0308_1_3;
position = "{218, 760}";
},
{
name = t.uni0335_2;
position = "{155, 382}";
},
{
name = t.uni031B_3;
position = "{421, 760}";
}
);
layerId = "DD9EABB0-940B-474C-A221-8151F11C5AE7";
shapes = (
{
closed = 1;
nodes = (
(313,760,l),
(186,0,l),
(9,0,l),
(136,760,l)
);
}
);
width = 287;
}
);
leftKerningGroup = h;
rightKerningGroup = l;
unicode = 108;
},
{
glyphname = m;
layers = (
{
layerId = "2EB5F385-C357-4F50-996C-712A481EC30A";
shapes = (
{
closed = 1;
nodes = (
(416,286,ls),
(431,379,o),
(396,423,o),
(329,423,cs),
(261,423,o),
(190,379,o),
(172,276,c),
(135,276,l),
(162,437,o),
(264,510,o),
(372,510,cs),
(480,510,o),
(544,437,o),
(522,297,cs),
(471,0,l),
(368,0,l)
);
},
{
closed = 1;
nodes = (
(107,500,l),
(210,500,l),
(126,0,l),
(23,0,l)
);
},
{
closed = 1;
nodes = (
(762,286,ls),
(777,379,o),
(742,423,o),
(674,423,cs),
(606,423,o),
(535,379,o),
(517,276,c),
(480,276,l),
(507,437,o),
(610,510,o),
(717,510,cs),
(826,510,o),
(890,437,o),
(867,297,cs),
(816,0,l),
(713,0,l)
);
}
);
width = 924;
},
{
layerId = "A9804AF1-4682-45A6-92D1-C6953796E638";
shapes = (
{
closed = 1;
nodes = (
(435,291,ls),
(454,407,o),
(409,456,o),
(334,456,cs),
(258,456,o),
(167,409,o),
(145,281,c),
(113,281,l),
(140,446,o),
(244,510,o),
(349,510,cs),
(458,510,o),
(527,442,o),
(502,288,cs),
(453,0,l),
(386,0,l)
);
},
{
closed = 1;
nodes = (
(116,500,l),
(182,500,l),
(98,0,l),
(32,0,l)
);
},
{
closed = 1;
nodes = (
(790,291,ls),
(809,407,o),
(764,456,o),
(689,456,cs),
(612,456,o),
(522,409,o),
(500,281,c),
(467,281,l),
(494,446,o),
(599,510,o),
(703,510,cs),
(813,510,o),
(882,442,o),
(856,288,cs),
(807,0,l),
(741,0,l)
);
}
);
width = 924;
},
{
layerId = "DD9EABB0-940B-474C-A221-8151F11C5AE7";
shapes = (
{
closed = 1;
nodes = (
(377,276,ls),
(385,321,o),
(369,356,o),
(318,356,cs),
(266,356,o),
(235,317,o),
(227,266,c),
(180,266,l),
(206,420,o),
(305,510,o),
(418,510,cs),
(525,510,o),
(579,426,o),
(561,316,cs),
(509,0,l),
(332,0,l)
);
},
{
closed = 1;
nodes = (
(89,500,l),
(266,500,l),
(182,0,l),
(5,0,l)
);
},
{
closed = 1;
nodes = (
(704,276,ls),
(711,321,o),
(696,356,o),
(645,356,cs),
(593,356,o),
(562,317,o),
(552,266,c),
(507,266,l),
(533,420,o),
(632,510,o),
(745,510,cs),
(853,510,o),
(906,426,o),
(888,316,cs),
(834,0,l),
(657,0,l)
);
}
);
width = 924;
}
);
leftKerningGroup = m;
rightKerningGroup = a;
unicode = 109;
},
{
glyphname = n;
layers = (
{
anchors = (
{
name = m.uni0321_3;
position = "{257, 0}";
},
{
name = t.uni0308_1_3;
position = "{337, 500}";
}
);
layerId = "2EB5F385-C357-4F50-996C-712A481EC30A";
shapes = (
{
closed = 1;
nodes = (
(416,286,ls),
(431,379,o),
(396,423,o),
(329,423,cs),
(261,423,o),
(190,379,o),
(172,276,c),
(135,276,l),
(162,437,o),
(264,510,o),
(372,510,cs),
(480,510,o),
(544,437,o),
(522,297,cs),
(471,0,l),
(368,0,l)
);
},
{
closed = 1;
nodes = (
(107,500,l),
(210,500,l),
(126,0,l),
(23,0,l)
);
}
);
width = 578;
},
{
anchors = (
{
name = m.uni0321_3;
position = "{257, 0}";
},
{
name = t.uni0308_1_3;
position = "{337, 500}";
}
);
layerId = "A9804AF1-4682-45A6-92D1-C6953796E638";
shapes = (
{
closed = 1;
nodes = (
(435,291,ls),
(454,407,o),
(409,456,o),
(334,456,cs),
(258,456,o),
(167,409,o),
(145,281,c),
(113,281,l),
(140,446,o),
(244,510,o),
(349,510,cs),
(458,510,o),
(527,442,o),
(502,288,cs),
(453,0,l),
(386,0,l)
);
},
{
closed = 1;
nodes = (
(116,500,l),
(182,500,l),
(98,0,l),
(32,0,l)
);
}
);
width = 569;
},
{
anchors = (
{
name = m.uni0321_3;
position = "{257, 0}";
},
{
name = t.uni0308_1_3;
position = "{337, 500}";
}
);
layerId = "DD9EABB0-940B-474C-A221-8151F11C5AE7";
shapes = (
{
closed = 1;
nodes = (
(377,276,ls),
(385,321,o),
(369,356,o),
(318,356,cs),
(266,356,o),
(235,317,o),
(227,266,c),
(180,266,l),
(206,420,o),
(305,510,o),
(418,510,cs),
(525,510,o),
(579,426,o),
(561,316,cs),
(509,0,l),
(332,0,l)
);
},
{
closed = 1;
nodes = (
(89,500,l),
(266,500,l),
(182,0,l),
(5,0,l)
);
}
);
width = 597;
}
);
leftKerningGroup = m;
rightKerningGroup = a;
unicode = 110;
},
{
glyphname = o;
layers = (
{
anchors = (
{
name = m.uni0321_3;
position = "{248, 0}";
},
{
name = t.uni0308_1_3;
position = "{332, 500}";
},
{
name = t.uni0335_2;
position = "{290, 250}";
},
{
name = m.uni0328_3;
position = "{246, -10}";
},
{
name = t.uni031B_3;
position = "{503, 438}";
}
);
layerId = "2EB5F385-C357-4F50-996C-712A481EC30A";
shapes = (
{
closed = 1;
nodes = (
(486,510,o),
(573,428,o),
(573,301,cs),
(573,125,o),
(436,-10,o),
(259,-10,cs),
(118,-10,o),
(32,72,o),
(32,199,cs),
(32,375,o),
(169,510,o),
(346,510,cs)
);
},
{
closed = 1;
nodes = (
(391,77,o),
(469,175,o),
(469,288,cs),
(469,370,o),
(417,423,o),
(331,423,cs),
(214,423,o),
(135,325,o),
(135,213,cs),
(135,130,o),
(186,77,o),
(273,77,cs)
);
}
);
width = 615;
},
{
anchors = (
{
name = m.uni0321_3;
position = "{248, 0}";
},
{
name = t.uni0308_1_3;
position = "{332, 500}";
},
{
name = t.uni0335_2;
position = "{290, 250}";
},
{
name = m.uni0328_3;
position = "{246, -10}";
},
{
name = t.uni031B_3;
position = "{503, 438}";
}
);
layerId = "A9804AF1-4682-45A6-92D1-C6953796E638";
shapes = (
{
closed = 1;
nodes = (
(495,510,o),
(582,428,o),
(582,301,cs),
(582,125,o),
(445,-10,o),
(268,-10,cs),
(127,-10,o),
(41,72,o),
(41,199,cs),
(41,375,o),
(178,510,o),
(355,510,cs)
);
},
{
closed = 1;
nodes = (
(417,44,o),
(516,157,o),
(516,293,cs),
(516,392,o),
(451,456,o),
(346,456,cs),
(206,456,o),
(107,343,o),
(107,207,cs),
(107,107,o),
(171,44,o),
(277,44,cs)
);
}
);
width = 633;
},
{
anchors = (
{
name = m.uni0321_3;
position = "{248, 0}";
},
{
name = t.uni0308_1_3;
position = "{332, 500}";
},
{
name = t.uni0335_2;
position = "{290, 250}";
},
{
name = m.uni0328_3;
position = "{246, -10}";
},
{
name = t.uni031B_3;
position = "{503, 438}";
}
);
layerId = "DD9EABB0-940B-474C-A221-8151F11C5AE7";
shapes = (
{
closed = 1;
nodes = (
(468,510,o),
(555,428,o),
(555,301,cs),
(555,124,o),
(417,-10,o),
(240,-10,cs),
(99,-10,o),
(13,72,o),
(13,199,cs),
(13,375,o),
(150,510,o),
(327,510,cs)
);
},
{
closed = 1;
nodes = (
(335,144,o),
(376,213,o),
(376,276,cs),
(376,326,o),
(349,356,o),
(302,356,cs),
(231,356,o),
(192,289,o),
(192,225,cs),
(192,176,o),
(219,144,o),
(266,144,cs)
);
}
);
width = 579;
}
);
leftKerningGroup = a2;
rightKerningGroup = b;
unicode = 111;
},
{
glyphname = p;
layers = (
{
layerId = "2EB5F385-C357-4F50-996C-712A481EC30A";
shapes = (
{
closed = 1;
nodes = (
(193,402,l),
(138,250,l),
(142,98,l),
(86,-240,l),
(-17,-240,l),
(107,500,l),
(206,500,l)
);
},
{
closed = 1;
nodes = (
(511,510,o),
(594,429,o),
(594,303,cs),
(594,136,o),
(468,-10,o),
(295,-10,cs),
(176,-10,o),
(106,69,o),
(106,190,cs),
(106,349,o),
(210,510,o),
(382,510,cs)
);
},
{
closed = 1;
nodes = (
(411,77,o),
(488,176,o),
(488,288,cs),
(488,371,o),
(436,423,o),
(351,423,cs),
(234,423,o),
(155,325,o),
(155,213,cs),
(155,130,o),
(206,77,o),
(293,77,cs)
);
}
);
width = 635;
},
{
layerId = "A9804AF1-4682-45A6-92D1-C6953796E638";
shapes = (
{
closed = 1;
nodes = (
(163,388,l),
(110,250,l),
(117,112,l),
(58,-240,l),
(-8,-240,l),
(116,500,l),
(183,500,l)
);
},
{
closed = 1;
nodes = (
(518,510,o),
(603,428,o),
(603,302,cs),
(603,129,o),
(471,-10,o),
(295,-10,cs),
(164,-10,o),
(83,71,o),
(83,196,cs),
(83,365,o),
(207,510,o),
(382,510,cs)
);
},
{
closed = 1;
nodes = (
(438,44,o),
(535,157,o),
(535,294,cs),
(535,392,o),
(471,456,o),
(365,456,cs),
(226,456,o),
(126,343,o),
(126,208,cs),
(126,108,o),
(190,44,o),
(296,44,cs)
);
}
);
width = 653;
},
{
layerId = "DD9EABB0-940B-474C-A221-8151F11C5AE7";
shapes = (
{
closed = 1;
nodes = (
(254,430,l),
(194,250,l),
(193,69,l),
(142,-240,l),
(-35,-240,l),
(89,500,l),
(252,500,l)
);
},
{
closed = 1;
nodes = (
(499,510,o),
(575,430,o),
(575,307,cs),
(575,149,o),
(464,-10,o),
(295,-10,cs),
(200,-10,o),
(151,61,o),
(151,174,cs),
(151,311,o),
(220,510,o),
(382,510,cs)
);
},
{
closed = 1;
nodes = (
(355,144,o),
(395,214,o),
(395,276,cs),
(395,326,o),
(368,356,o),
(322,356,cs),
(251,356,o),
(212,289,o),
(212,225,cs),
(212,176,o),
(239,144,o),
(286,144,cs)
);
}
);
width = 599;
}
);
leftKerningGroup = p;
rightKerningGroup = b;
unicode = 112;
},
{
glyphname = q;
layers = (
{
layerId = "2EB5F385-C357-4F50-996C-712A481EC30A";
shapes = (
{
closed = 1;
nodes = (
(431,98,l),
(485,250,l),
(482,407,l),
(502,500,l),
(601,500,l),
(477,-240,l),
(374,-240,l)
);
},
{
closed = 1;
nodes = (
(446,510,o),
(518,431,o),
(518,309,cs),
(518,148,o),
(411,-10,o),
(237,-10,cs),
(110,-10,o),
(31,71,o),
(31,195,cs),
(31,361,o),
(150,510,o),
(324,510,cs)
);
},
{
closed = 1;
nodes = (
(391,77,o),
(469,175,o),
(469,288,cs),
(469,370,o),
(417,423,o),
(331,423,cs),
(214,423,o),
(135,325,o),
(135,213,cs),
(135,130,o),
(186,77,o),
(273,77,cs)
);
}
);
width = 635;
},
{
layerId = "A9804AF1-4682-45A6-92D1-C6953796E638";
shapes = (
{
closed = 1;
nodes = (
(479,112,l),
(531,250,l),
(527,398,l),
(543,500,l),
(610,500,l),
(486,-240,l),
(420,-240,l)
);
},
{
closed = 1;
nodes = (
(478,510,o),
(559,429,o),
(559,304,cs),
(559,135,o),
(435,-10,o),
(260,-10,cs),
(123,-10,o),
(40,72,o),
(40,197,cs),
(40,370,o),
(170,510,o),
(347,510,cs)
);
},
{
closed = 1;
nodes = (
(417,44,o),
(516,157,o),
(516,293,cs),
(516,392,o),
(451,456,o),
(346,456,cs),
(206,456,o),
(107,343,o),
(107,207,cs),
(107,107,o),
(171,44,o),
(277,44,cs)
);
}
);
width = 653;
},
{
layerId = "DD9EABB0-940B-474C-A221-8151F11C5AE7";
shapes = (
{
closed = 1;
nodes = (
(333,69,l),
(393,250,l),
(392,426,l),
(418,500,l),
(583,500,l),
(459,-240,l),
(282,-240,l)
);
},
{
closed = 1;
nodes = (
(380,510,o),
(435,437,o),
(435,321,cs),
(435,177,o),
(359,-10,o),
(191,-10,cs),
(82,-10,o),
(12,69,o),
(12,191,cs),
(12,342,o),
(112,510,o),
(278,510,cs)
);
},
{
closed = 1;
nodes = (
(335,144,o),
(376,213,o),
(376,276,cs),
(376,326,o),
(349,356,o),
(302,356,cs),
(231,356,o),
(192,289,o),
(192,225,cs),
(192,176,o),
(219,144,o),
(266,144,cs)
);
}
);
width = 599;
}
);
leftKerningGroup = a2;
unicode = 113;
},
{
glyphname = r;
layers = (
{
anchors = (
{
name = m.uni0321_3;
position = "{85, 0}";
},
{
name = t.uni0308_1_3;
position = "{283, 500}";
}
);
layerId = "2EB5F385-C357-4F50-996C-712A481EC30A";
shapes = (
{
closed = 1;
nodes = (
(382,391,l),
(360,408,o),
(335,416,o),
(309,416,cs),
(254,416,o),
(187,369,o),
(169,259,c),
(136,259,l),
(177,425,o),
(252,510,o),
(342,510,cs),
(377,510,o),
(406,501,o),
(428,482,c)
);
},
{
closed = 1;
nodes = (
(107,500,l),
(210,500,l),
(126,0,l),
(23,0,l)
);
}
);
width = 405;
},
{
anchors = (
{
name = m.uni0321_3;
position = "{85, 0}";
},
{
name = t.uni0308_1_3;
position = "{283, 500}";
}
);
layerId = "A9804AF1-4682-45A6-92D1-C6953796E638";
shapes = (
{
closed = 1;
nodes = (
(352,437,l),
(338,447,o),
(320,451,o),
(301,451,cs),
(241,451,o),
(164,395,o),
(144,273,c),
(111,273,l),
(142,422,o),
(224,510,o),
(319,510,cs),
(349,510,o),
(371,504,o),
(387,492,c)
);
},
{
closed = 1;
nodes = (
(116,500,l),
(182,500,l),
(98,0,l),
(32,0,l)
);
}
);
width = 362;
},
{
anchors = (
{
name = m.uni0321_3;
position = "{85, 0}";
},
{
name = t.uni0308_1_3;
position = "{283, 500}";
}
);
layerId = "DD9EABB0-940B-474C-A221-8151F11C5AE7";
shapes = (
{
closed = 1;
nodes = (
(442,299,l),
(404,329,o),
(365,346,o),
(326,346,cs),
(281,346,o),
(234,317,o),
(220,230,c),
(186,230,l),
(246,430,o),
(309,510,o),
(388,510,cs),
(433,510,o),
(475,494,o),
(512,463,c)
);
},
{
closed = 1;
nodes = (
(89,500,l),
(266,500,l),
(182,0,l),
(5,0,l)
);
}
);
width = 492;
}
);
leftKerningGroup = m;
rightKerningGroup = r;
unicode = 114;
},
{
glyphname = s;
layers = (
{
anchors = (
{
name = m.uni0321_3;
position = "{192, 0}";
},
{
name = t.uni0308_1_3;
position = "{266, 500}";
}
);
layerId = "2EB5F385-C357-4F50-996C-712A481EC30A";
shapes = (
{
closed = 1;
nodes = (
(344,510,o),
(412,489,o),
(457,450,c),
(406,374,l),
(362,406,o),
(309,427,o),
(257,427,cs),
(199,427,o),
(166,400,o),
(159,367,c),
(155,336,o),
(177,318,o),
(268,294,cs),
(372,267,o),
(421,228,o),
(421,161,cs),
(421,42,o),
(301,-10,o),
(197,-10,cs),
(114,-10,o),
(43,15,o),
(-3,56,c),
(45,136,l),
(90,97,o),
(152,73,o),
(211,73,cs),
(250,73,o),
(316,89,o),
(316,138,cs),
(316,166,o),
(288,188,o),
(205,210,cs),
(100,238,o),
(54,277,o),
(54,339,cs),
(54,454,o),
(169,510,o),
(272,510,cs)
);
}
);
width = 478;
},
{
anchors = (
{
name = m.uni0321_3;
position = "{192, 0}";
},
{
name = t.uni0308_1_3;
position = "{266, 500}";
}
);
layerId = "A9804AF1-4682-45A6-92D1-C6953796E638";
shapes = (
{
closed = 1;
nodes = (
(338,510,o),
(404,486,o),
(449,442,c),
(407,393,l),
(362,432,o),
(311,455,o),
(254,455,cs),
(199,455,o),
(131,426,o),
(131,362,cs),
(131,327,o),
(162,305,o),
(252,281,cs),
(360,252,o),
(409,214,o),
(409,151,cs),
(409,39,o),
(295,-10,o),
(197,-10,cs),
(114,-10,o),
(45,18,o),
(3,63,c),
(43,109,l),
(85,68,o),
(143,45,o),
(206,45,cs),
(261,45,o),
(342,70,o),
(342,137,cs),
(342,173,o),
(308,200,o),
(214,225,cs),
(107,252,o),
(64,290,o),
(64,349,cs),
(64,456,o),
(168,510,o),
(264,510,cs)
);
}
);
width = 472;
},
{
anchors = (
{
name = m.uni0321_3;
position = "{192, 0}";
},
{
name = t.uni0308_1_3;
position = "{266, 500}";
}
);
layerId = "DD9EABB0-940B-474C-A221-8151F11C5AE7";
shapes = (
{
closed = 1;
nodes = (
(356,510,o),
(427,494,o),
(473,467,c),
(405,335,l),
(362,354,o),
(305,370,o),
(264,370,cs),
(260,370,o),
(213,372,o),
(215,352,cs),
(216,345,o),
(233,337,o),
(300,321,cs),
(396,296,o),
(444,255,o),
(444,184,cs),
(444,52,o),
(314,-10,o),
(197,-10,cs),
(114,-10,o),
(38,8,o),
(-14,43,c),
(47,192,l),
(100,154,o),
(170,130,o),
(221,130,cs),
(228,130,o),
(263,128,o),
(263,142,cs),
(263,151,o),
(247,163,o),
(186,180,cs),
(87,208,o),
(33,249,o),
(33,316,cs),
(33,452,o),
(170,510,o),
(288,510,cs)
);
}
);
width = 489;
}
);
leftKerningGroup = s2;
rightKerningGroup = s;
unicode = 115;
},
{
glyphname = t;
layers = (
{
anchors = (
{
name = m.uni0321_3;
position = "{169, 0}";
},
{
name = t.uni0308_1_3;
position = "{232, 640}";
},
{
name = t.uni0335_2;
position = "{199, 258}";
},
{
name = t.uni031B_3;
position = "{472, 760}";
}
);
layerId = "2EB5F385-C357-4F50-996C-712A481EC30A";
shapes = (
{
closed = 1;
nodes = (
(52,500,l),
(378,500,l),
(364,413,l),
(38,413,l)
);
},
{
closed = 1;
nodes = (
(260,640,l),
(178,147,ls),
(171,101,o),
(189,77,o),
(232,77,cs),
(249,77,o),
(270,82,o),
(292,92,c),
(298,14,l),
(268,-2,o),
(232,-10,o),
(193,-10,cs),
(101,-10,o),
(57,41,o),
(72,136,cs),
(127,460,l),
(79,500,l),
(121,500,o),
(143,517,o),
(161,560,cs),
(193,640,l)
);
}
);
width = 360;
},
{
anchors = (
{
name = m.uni0321_3;
position = "{169, 0}";
},
{
name = t.uni0308_1_3;
position = "{232, 640}";
},
{
name = t.uni0335_2;
position = "{199, 258}";
},
{
name = t.uni031B_3;
position = "{472, 760}";
}
);
layerId = "A9804AF1-4682-45A6-92D1-C6953796E638";
shapes = (
{
closed = 1;
nodes = (
(57,500,l),
(337,500,l),
(328,446,l),
(48,446,l)
);
},
{
closed = 1;
nodes = (
(224,640,l),
(136,114,ls),
(129,70,o),
(147,44,o),
(189,44,cs),
(204,44,o),
(225,48,o),
(249,56,c),
(258,6,l),
(232,-4,o),
(204,-10,o),
(174,-10,cs),
(96,-10,o),
(56,35,o),
(69,117,cs),
(127,460,l),
(88,500,l),
(118,500,o),
(132,512,o),
(143,548,c),
(174,640,l)
);
}
);
width = 325;
},
{
anchors = (
{
name = m.uni0321_3;
position = "{169, 0}";
},
{
name = t.uni0308_1_3;
position = "{232, 640}";
},
{
name = t.uni0335_2;
position = "{199, 258}";
},
{
name = t.uni031B_3;
position = "{472, 760}";
}
);
layerId = "DD9EABB0-940B-474C-A221-8151F11C5AE7";
shapes = (
{
closed = 1;
nodes = (
(42,500,l),
(462,500,l),
(436,346,l),
(16,346,l)
);
},
{
closed = 1;
nodes = (
(334,640,l),
(263,214,ls),
(255,163,o),
(274,144,o),
(319,144,cs),
(341,144,o),
(362,150,o),
(379,164,c),
(378,29,l),
(340,3,o),
(289,-10,o),
(231,-10,cs),
(111,-10,o),
(58,52,o),
(79,174,cs),
(127,460,l),
(60,500,l),
(128,500,o),
(165,526,o),
(196,583,c),
(231,640,l)
);
}
);
width = 429;
}
);
leftKerningGroup = t;
rightKerningGroup = t1;
unicode = 116;
},
{
glyphname = u;
layers = (
{
anchors = (
{
name = m.uni0321_3;
position = "{244, 0}";
},
{
name = t.uni0308_1_3;
position = "{327, 500}";
},
{
name = m.uni0328_3;
position = "{409, 0}";
},
{
name = t.uni031B_3;
position = "{542, 500}";
}
);
layerId = "2EB5F385-C357-4F50-996C-712A481EC30A";
shapes = (
{
closed = 1;
nodes = (
(80,-10,o),
(26,72,o),
(47,203,cs),
(98,500,l),
(200,500,l),
(152,214,ls),
(137,129,o),
(168,77,o),
(234,77,cs),
(313,77,o),
(371,131,o),
(385,220,c),
(423,220,l),
(399,79,o),
(309,-10,o),
(191,-10,cs)
);
},
{
closed = 1;
nodes = (
(366,106,l),
(432,500,l),
(535,500,l),
(451,0,l),
(353,0,l)
);
}
);
width = 569;
},
{
anchors = (
{
name = m.uni0321_3;
position = "{244, 0}";
},
{
name = t.uni0308_1_3;
position = "{327, 500}";
},
{
name = m.uni0328_3;
position = "{409, 0}";
},
{
name = t.uni031B_3;
position = "{542, 500}";
}
);
layerId = "A9804AF1-4682-45A6-92D1-C6953796E638";
shapes = (
{
closed = 1;
nodes = (
(89,-10,o),
(35,73,o),
(58,212,cs),
(107,500,l),
(172,500,l),
(123,209,ls),
(105,105,o),
(140,44,o),
(219,44,cs),
(317,44,o),
(386,109,o),
(404,220,c),
(436,220,l),
(412,76,o),
(326,-10,o),
(204,-10,cs)
);
},
{
closed = 1;
nodes = (
(383,95,l),
(451,500,l),
(517,500,l),
(433,0,l),
(367,0,l)
);
}
);
width = 560;
},
{
anchors = (
{
name = m.uni0321_3;
position = "{244, 0}";
},
{
name = t.uni0308_1_3;
position = "{327, 500}";
},
{
name = m.uni0328_3;
position = "{409, 0}";
},
{
name = t.uni031B_3;
position = "{542, 500}";
}
);
layerId = "DD9EABB0-940B-474C-A221-8151F11C5AE7";
shapes = (
{
closed = 1;
nodes = (
(63,-10,o),
(7,70,o),
(25,184,cs),
(79,500,l),
(256,500,l),
(209,224,ls),
(201,178,o),
(224,144,o),
(263,144,cs),
(306,144,o),
(341,176,o),
(347,220,c),
(395,220,l),
(372,84,o),
(275,-10,o),
(163,-10,cs)
);
},
{
closed = 1;
nodes = (
(332,128,l),
(394,500,l),
(573,500,l),
(489,0,l),
(324,0,l)
);
}
);
width = 587;
}
);
leftKerningGroup = u;
rightKerningGroup = u1;
unicode = 117;
},
{
glyphname = v;
layers = (
{
layerId = "2EB5F385-C357-4F50-996C-712A481EC30A";
shapes = (
{
closed = 1;
nodes = (
(587,500,l),
(294,0,l),
(178,0,l),
(53,500,l),
(167,500,l),
(253,100,l),
(473,500,l)
);
}
);
width = 567;
},
{
layerId = "A9804AF1-4682-45A6-92D1-C6953796E638";
shapes = (
{
closed = 1;
nodes = (
(564,500,l),
(269,0,l),
(184,0,l),
(58,500,l),
(131,500,l),
(236,55,l),
(491,500,l)
);
}
);
width = 549;
},
{
layerId = "DD9EABB0-940B-474C-A221-8151F11C5AE7";
shapes = (
{
closed = 1;
nodes = (
(633,500,l),
(345,0,l),
(165,0,l),
(43,500,l),
(241,500,l),
(287,191,l),
(437,500,l)
);
}
);
width = 605;
}
);
leftKerningGroup = v2;
rightKerningGroup = v;
unicode = 118;
},
{
glyphname = w;
layers = (
{
anchors = (
{
name = m.uni0321_3;
position = "{404, 0}";
},
{
name = t.uni0308_1_3;
position = "{488, 500}";
}
);
layerId = "2EB5F385-C357-4F50-996C-712A481EC30A";
shapes = (
{
closed = 1;
nodes = (
(901,500,l),
(631,0,l),
(510,0,l),
(456,374,l),
(276,0,l),
(155,0,l),
(53,500,l),
(167,500,l),
(233,103,l),
(422,500,l),
(532,500,l),
(592,103,l),
(786,500,l)
);
}
);
width = 881;
},
{
anchors = (
{
name = m.uni0321_3;
position = "{404, 0}";
},
{
name = t.uni0308_1_3;
position = "{488, 500}";
}
);
layerId = "A9804AF1-4682-45A6-92D1-C6953796E638";
shapes = (
{
closed = 1;
nodes = (
(878,500,l),
(608,0,l),
(523,0,l),
(453,413,l),
(243,0,l),
(160,0,l),
(58,500,l),
(131,500,l),
(211,56,l),
(431,500,l),
(504,500,l),
(575,56,l),
(804,500,l)
);
}
);
width = 862;
},
{
anchors = (
{
name = m.uni0321_3;
position = "{404, 0}";
},
{
name = t.uni0308_1_3;
position = "{488, 500}";
}
);
layerId = "DD9EABB0-940B-474C-A221-8151F11C5AE7";
shapes = (
{
closed = 1;
nodes = (
(947,500,l),
(677,0,l),
(482,0,l),
(461,296,l),
(342,0,l),
(145,0,l),
(43,500,l),
(241,500,l),
(277,199,l),
(403,500,l),
(588,500,l),
(626,199,l),
(750,500,l)
);
}
);
width = 919;
}
);
leftKerningGroup = v2;
rightKerningGroup = v;
unicode = 119;
},
{
glyphname = x;
layers = (
{
layerId = "2EB5F385-C357-4F50-996C-712A481EC30A";
shapes = (
{
closed = 1;
nodes = (
(390,0,l),
(275,192,l),
(97,0,l),
(-31,0,l),
(213,257,l),
(63,500,l),
(191,500,l),
(296,312,l),
(464,500,l),
(593,500,l),
(360,256,l),
(518,0,l)
);
}
);
width = 582;
},
{
layerId = "A9804AF1-4682-45A6-92D1-C6953796E638";
shapes = (
{
closed = 1;
nodes = (
(395,0,l),
(260,215,l),
(56,0,l),
(-26,0,l),
(222,257,l),
(67,500,l),
(150,500,l),
(273,289,l),
(469,500,l),
(551,500,l),
(315,256,l),
(477,0,l)
);
}
);
width = 546;
},
{
layerId = "DD9EABB0-940B-474C-A221-8151F11C5AE7";
shapes = (
{
closed = 1;
nodes = (
(380,0,l),
(305,145,l),
(181,0,l),
(-41,0,l),
(196,256,l),
(55,500,l),
(275,500,l),
(341,359,l),
(454,500,l),
(677,500,l),
(451,256,l),
(602,0,l)
);
}
);
width = 656;
}
);
unicode = 120;
},
{
glyphname = y;
layers = (
{
anchors = (
{
name = m.uni0321_3;
position = "{296, -160}";
},
{
name = t.uni0308_1_3;
position = "{332, 500}";
}
);
layerId = "2EB5F385-C357-4F50-996C-712A481EC30A";
shapes = (
{
closed = 1;
nodes = (
(13,-147,l),
(77,-142,o),
(117,-110,o),
(155,-43,cs),
(179,0,l),
(53,500,l),
(167,500,l),
(255,109,l),
(461,500,l),
(575,500,l),
(295,0,l),
(251,-74,l),
(190,-182,o),
(130,-228,o),
(21,-238,c)
);
}
);
width = 555;
},
{
anchors = (
{
name = m.uni0321_3;
position = "{296, -160}";
},
{
name = t.uni0308_1_3;
position = "{332, 500}";
}
);
layerId = "A9804AF1-4682-45A6-92D1-C6953796E638";
shapes = (
{
closed = 1;
nodes = (
(11,-180,l),
(66,-173,o),
(108,-139,o),
(149,-64,cs),
(184,0,l),
(58,500,l),
(131,500,l),
(232,64,l),
(470,500,l),
(543,500,l),
(257,0,l),
(203,-92,l),
(154,-180,o),
(95,-228,o),
(15,-238,c)
);
}
);
width = 527;
},
{
anchors = (
{
name = m.uni0321_3;
position = "{296, -160}";
},
{
name = t.uni0308_1_3;
position = "{332, 500}";
}
);
layerId = "DD9EABB0-940B-474C-A221-8151F11C5AE7";
shapes = (
{
closed = 1;
nodes = (
(17,-80,l),
(99,-78,o),
(136,-51,o),
(167,-2,c),
(169,0,l),
(43,500,l),
(241,500,l),
(302,201,l),
(443,500,l),
(639,500,l),
(370,0,l),
(347,-39,ls),
(262,-184,o),
(199,-228,o),
(33,-238,c)
);
}
);
width = 611;
}
);
leftKerningGroup = y;
rightKerningGroup = y2;
unicode = 121;
},
{
glyphname = z;
layers = (
{
anchors = (
{
name = m.uni0321_3;
position = "{205, 0}";
},
{
name = t.uni0308_1_3;
position = "{288, 500}";
}
);
layerId = "2EB5F385-C357-4F50-996C-712A481EC30A";
shapes = (
{
closed = 1;
nodes = (
(467,87,l),
(452,0,l),
(-13,0,l),
(-1,76,l),
(360,413,l),
(67,413,l),
(81,500,l),
(515,500,l),
(502,420,l),
(145,87,l)
);
}
);
width = 535;
},
{
anchors = (
{
name = m.uni0321_3;
position = "{205, 0}";
},
{
name = t.uni0308_1_3;
position = "{288, 500}";
}
);
layerId = "A9804AF1-4682-45A6-92D1-C6953796E638";
shapes = (
{
closed = 1;
nodes = (
(466,54,l),
(457,0,l),
(-8,0,l),
(1,57,l),
(423,446,l),
(77,446,l),
(86,500,l),
(520,500,l),
(511,444,l),
(88,54,l)
);
}
);
width = 544;
},
{
anchors = (
{
name = m.uni0321_3;
position = "{205, 0}";
},
{
name = t.uni0308_1_3;
position = "{288, 500}";
}
);
layerId = "DD9EABB0-940B-474C-A221-8151F11C5AE7";
shapes = (
{
closed = 1;
nodes = (
(468,154,l),
(442,0,l),
(-23,0,l),
(-3,114,l),
(233,346,l),
(45,346,l),
(71,500,l),
(505,500,l),
(484,373,l),
(259,154,l)
);
}
);
width = 516;
}
);
leftKerningGroup = z;
rightKerningGroup = z1;
unicode = 122;
},
{
glyphname = ampersand;
layers = (
{
layerId = "2EB5F385-C357-4F50-996C-712A481EC30A";
shapes = (
{
closed = 1;
nodes = (
(560,0,l),
(515,82,o),
(444,182,o),
(326,334,cs),
(281,394,l),
(255,427,o),
(240,462,o),
(240,503,cs),
(240,626,o),
(355,711,o),
(471,711,cs),
(588,711,o),
(642,621,o),
(632,521,c),
(536,495,l),
(542,573,o),
(511,617,o),
(455,617,cs),
(395,617,o),
(347,570,o),
(347,509,cs),
(347,467,o),
(378,431,o),
(406,397,cs),
(477,308,ls),
(561,200,o),
(642,96,o),
(692,0,c)
);
},
{
closed = 1;
nodes = (
(745,357,l),
(707,271,o),
(643,193,o),
(574,136,c),
(541,123,l),
(468,41,o),
(369,-10,o),
(262,-10,cs),
(130,-10,o),
(54,62,o),
(54,168,cs),
(54,304,o),
(178,408,o),
(310,410,c),
(340,363,l),
(248,360,o),
(164,288,o),
(164,192,cs),
(164,131,o),
(207,85,o),
(285,85,cs),
(361,85,o),
(423,118,o),
(487,179,c),
(518,200,l),
(569,240,o),
(622,315,o),
(654,393,c)
);
}
);
width = 814;
},
{
layerId = "A9804AF1-4682-45A6-92D1-C6953796E638";
shapes = (
{
closed = 1;
nodes = (
(588,0,l),
(540,84,o),
(458,198,o),
(333,360,c),
(293,414,l),
(271,442,o),
(256,477,o),
(256,515,cs),
(256,629,o),
(363,711,o),
(471,711,cs),
(590,711,o),
(627,615,o),
(613,515,c),
(550,508,l),
(560,575,o),
(549,659,o),
(462,659,cs),
(384,659,o),
(322,602,o),
(322,524,cs),
(322,464,o),
(371,415,o),
(404,375,cs),
(469,293,ls),
(541,202,o),
(619,110,o),
(678,0,c)
);
},
{
closed = 1;
nodes = (
(745,366,l),
(705,277,o),
(644,197,o),
(574,130,c),
(552,115,l),
(468,39,o),
(384,-10,o),
(267,-10,cs),
(134,-10,o),
(61,62,o),
(61,162,cs),
(61,294,o),
(195,411,o),
(322,415,c),
(352,376,l),
(241,370,o),
(128,289,o),
(128,170,cs),
(128,100,o),
(179,42,o),
(273,42,cs),
(369,42,o),
(438,82,o),
(517,150,c),
(540,172,l),
(592,219,o),
(647,300,o),
(683,388,c)
);
}
);
width = 811;
},
{
layerId = "DD9EABB0-940B-474C-A221-8151F11C5AE7";
shapes = (
{
closed = 1;
nodes = (
(504,0,l),
(465,77,o),
(415,149,o),
(313,282,cs),
(257,354,ls),
(222,397,o),
(207,430,o),
(207,476,cs),
(207,618,o),
(337,711,o),
(471,711,cs),
(595,711,o),
(665,626,o),
(670,532,c),
(507,467,l),
(501,509,o),
(471,531,o),
(442,531,cs),
(422,531,o),
(398,518,o),
(398,491,cs),
(398,477,o),
(390,466,o),
(410,441,cs),
(492,337,ls),
(602,195,o),
(689,67,o),
(720,0,c)
);
},
{
closed = 1;
nodes = (
(744,339,l),
(709,259,o),
(641,185,o),
(573,147,c),
(519,138,l),
(469,45,o),
(340,-10,o),
(252,-10,cs),
(122,-10,o),
(39,62,o),
(39,179,cs),
(39,327,o),
(140,402,o),
(286,400,c),
(317,336,l),
(265,338,o),
(236,282,o),
(236,237,cs),
(236,194,o),
(265,171,o),
(309,171,cs),
(345,171,o),
(391,191,o),
(426,237,c),
(473,256,l),
(522,284,o),
(570,344,o),
(596,404,c)
);
}
);
width = 819;
}
);
unicode = 38;
},
{
glyphname = exclam;
layers = (
{
layerId = "2EB5F385-C357-4F50-996C-712A481EC30A";
shapes = (
{
closed = 1;
nodes = (
(283,700,l),
(183,220,l),
(96,220,l),
(156,700,l)
);
},
{
closed = 1;
nodes = (
(167,134,o),
(192,105,o),
(186,63,cs),
(179,21,o),
(143,-9,o),
(101,-9,cs),
(59,-9,o),
(34,21,o),
(41,63,cs),
(47,105,o),
(84,134,o),
(126,134,cs)
);
}
);
width = 300;
},
{
layerId = "A9804AF1-4682-45A6-92D1-C6953796E638";
shapes = (
{
closed = 1;
nodes = (
(248,700,l),
(149,220,l),
(103,220,l),
(163,700,l)
);
},
{
closed = 1;
nodes = (
(140,106,o),
(160,82,o),
(156,49,c),
(150,15,o),
(120,-9,o),
(87,-9,cs),
(53,-9,o),
(33,15,o),
(39,49,c),
(43,82,o),
(73,106,o),
(107,106,cs)
);
}
);
width = 273;
},
{
layerId = "DD9EABB0-940B-474C-A221-8151F11C5AE7";
shapes = (
{
closed = 1;
nodes = (
(352,700,l),
(252,220,l),
(83,220,l),
(143,700,l)
);
},
{
closed = 1;
nodes = (
(223,191,o),
(255,150,o),
(247,91,c),
(236,32,o),
(188,-9,o),
(129,-9,cs),
(70,-9,o),
(35,32,o),
(46,91,c),
(54,150,o),
(105,191,o),
(164,191,cs)
);
}
);
width = 356;
}
);
unicode = 33;
},
{
glyphname = question;
layers = (
{
layerId = "2EB5F385-C357-4F50-996C-712A481EC30A";
shapes = (
{
closed = 1;
nodes = (
(247,229,l),
(260,274,o),
(296,327,o),
(356,368,cs),
(382,385,ls),
(454,432,o),
(480,471,o),
(480,518,cs),
(480,578,o),
(439,616,o),
(371,616,cs),
(293,616,o),
(231,565,o),
(201,487,c),
(116,516,l),
(151,623,o),
(257,710,o),
(386,710,cs),
(504,710,o),
(590,637,o),
(590,536,cs),
(590,471,o),
(556,422,o),
(460,349,cs),
(431,327,ls),
(385,292,o),
(345,252,o),
(338,229,c)
);
},
{
closed = 1;
nodes = (
(321,133,o),
(346,110,o),
(346,73,cs),
(346,28,o),
(309,-10,o),
(261,-10,cs),
(223,-10,o),
(199,15,o),
(199,50,cs),
(199,94,o),
(237,133,o),
(284,133,cs)
);
}
);
width = 628;
},
{
layerId = "A9804AF1-4682-45A6-92D1-C6953796E638";
shapes = (
{
closed = 1;
nodes = (
(253,210,l),
(261,244,o),
(291,292,o),
(361,342,cs),
(390,362,ls),
(451,405,o),
(521,456,o),
(521,538,cs),
(521,611,o),
(467,658,o),
(378,658,cs),
(277,658,o),
(204,598,o),
(166,511,c),
(118,525,l),
(154,625,o),
(252,710,o),
(382,710,cs),
(501,710,o),
(588,639,o),
(588,538,cs),
(588,438,o),
(503,377,o),
(429,326,cs),
(409,312,ls),
(354,274,o),
(317,232,o),
(311,210,c)
);
},
{
closed = 1;
nodes = (
(305,105,o),
(325,86,o),
(325,59,cs),
(325,20,o),
(295,-10,o),
(256,-10,cs),
(226,-10,o),
(206,10,o),
(206,35,cs),
(206,73,o),
(236,105,o),
(275,105,cs)
);
}
);
width = 626;
},
{
layerId = "DD9EABB0-940B-474C-A221-8151F11C5AE7";
shapes = (
{
closed = 1;
nodes = (
(236,268,l),
(259,334,o),
(307,399,o),
(345,420,cs),
(366,432,ls),
(382,441,o),
(397,448,o),
(397,478,cs),
(397,511,o),
(381,530,o),
(356,530,cs),
(325,530,o),
(286,498,o),
(273,437,c),
(112,498,l),
(144,619,o),
(267,710,o),
(393,710,cs),
(509,710,o),
(595,633,o),
(595,530,cs),
(595,464,o),
(558,420,o),
(523,394,cs),
(475,359,ls),
(443,336,o),
(401,292,o),
(391,268,c)
);
},
{
closed = 1;
nodes = (
(354,190,o),
(387,159,o),
(387,107,cs),
(387,44,o),
(338,-10,o),
(270,-10,cs),
(217,-10,o),
(183,24,o),
(183,73,cs),
(183,138,o),
(238,190,o),
(302,190,cs)
);
}
);
width = 633;
}
);
unicode = 63;
},
{
glyphname = numbersign;
layers = (
{
layerId = "2EB5F385-C357-4F50-996C-712A481EC30A";
shapes = (
{
closed = 1;
nodes = (
(632,447,l),
(632,254,l),
(778,254,l),
(778,164,l),
(632,164,l),
(632,0,l),
(525,0,l),
(525,164,l),
(333,164,l),
(333,0,l),
(226,0,l),
(226,164,l),
(78,164,l),
(78,254,l),
(226,254,l),
(226,447,l),
(78,447,l),
(78,538,l),
(226,538,l),
(226,700,l),
(333,700,l),
(333,538,l),
(525,538,l),
(525,700,l),
(632,700,l),
(632,538,l),
(778,538,l),
(778,447,l)
);
},
{
closed = 1;
nodes = (
(527,262,o),
(525,295,o),
(525,350,cs),
(525,404,o),
(527,438,o),
(530,451,c),
(516,448,o),
(483,447,o),
(429,447,cs),
(377,447,o),
(342,448,o),
(328,452,c),
(331,437,o),
(333,403,o),
(333,350,cs),
(333,297,o),
(331,264,o),
(328,248,c),
(344,252,o),
(379,254,o),
(429,254,cs),
(481,254,o),
(513,252,o),
(530,249,c)
);
}
);
width = 856;
},
{
layerId = "A9804AF1-4682-45A6-92D1-C6953796E638";
shapes = (
{
closed = 1;
nodes = (
(613,470,l),
(613,231,l),
(778,231,l),
(778,178,l),
(613,178,l),
(613,0,l),
(548,0,l),
(548,178,l),
(310,178,l),
(310,0,l),
(244,0,l),
(244,178,l),
(78,178,l),
(78,231,l),
(244,231,l),
(244,470,l),
(78,470,l),
(78,524,l),
(244,524,l),
(244,700,l),
(310,700,l),
(310,524,l),
(548,524,l),
(548,700,l),
(613,700,l),
(613,524,l),
(778,524,l),
(778,470,l)
);
},
{
closed = 1;
nodes = (
(550,239,o),
(548,280,o),
(548,350,cs),
(548,419,o),
(550,460,o),
(553,475,c),
(538,471,o),
(497,470,o),
(429,470,cs),
(363,470,o),
(320,471,o),
(305,475,c),
(308,459,o),
(310,418,o),
(310,350,cs),
(310,282,o),
(308,241,o),
(305,225,c),
(322,229,o),
(365,231,o),
(429,231,cs),
(495,231,o),
(535,229,o),
(553,225,c)
);
}
);
width = 856;
},
{
layerId = "DD9EABB0-940B-474C-A221-8151F11C5AE7";
shapes = (
{
closed = 1;
nodes = (
(670,400,l),
(670,301,l),
(778,301,l),
(778,135,l),
(670,135,l),
(670,0,l),
(479,0,l),
(479,135,l),
(379,135,l),
(379,0,l),
(190,0,l),
(190,135,l),
(78,135,l),
(78,301,l),
(190,301,l),
(190,400,l),
(78,400,l),
(78,566,l),
(190,566,l),
(190,700,l),
(379,700,l),
(379,566,l),
(479,566,l),
(479,700,l),
(670,700,l),
(670,566,l),
(778,566,l),
(778,400,l)
);
},
{
closed = 1;
nodes = (
(481,309,o),
(479,325,o),
(479,350,cs),
(479,374,o),
(481,392,o),
(484,404,c),
(471,401,o),
(454,400,o),
(429,400,cs),
(405,400,o),
(386,401,o),
(374,405,c),
(377,391,o),
(379,373,o),
(379,350,cs),
(379,327,o),
(377,309,o),
(374,295,c),
(389,299,o),
(407,301,o),
(429,301,cs),
(452,301,o),
(469,299,o),
(484,298,c)
);
}
);
width = 856;
}
);
unicode = 35;
},
{
glyphname = Euro;
layers = (
{
layerId = "2EB5F385-C357-4F50-996C-712A481EC30A";
shapes = (
{
closed = 1;
nodes = (
(636,325,l),
(599,258,l),
(54,258,l),
(92,325,l)
);
},
{
closed = 1;
nodes = (
(707,454,l),
(670,386,l),
(125,386,l),
(161,454,l)
);
},
{
closed = 1;
nodes = (
(282,-10,o),
(160,135,o),
(196,350,cs),
(232,565,o),
(403,710,o),
(621,710,cs),
(711,710,o),
(780,686,o),
(825,641,c),
(775,550,l),
(738,590,o),
(681,616,o),
(605,616,cs),
(450,616,o),
(329,508,o),
(302,350,cs),
(276,192,o),
(361,85,o),
(515,85,cs),
(598,85,o),
(669,116,o),
(715,156,c),
(755,78,l),
(699,30,o),
(612,-10,o),
(500,-10,cs)
);
}
);
width = 849;
},
{
layerId = "A9804AF1-4682-45A6-92D1-C6953796E638";
shapes = (
{
closed = 1;
nodes = (
(644,330,l),
(611,272,l),
(56,272,l),
(90,330,l)
);
},
{
closed = 1;
nodes = (
(713,449,l),
(680,391,l),
(125,391,l),
(158,449,l)
);
},
{
closed = 1;
nodes = (
(295,-10,o),
(173,135,o),
(209,350,cs),
(245,565,o),
(416,710,o),
(635,710,cs),
(722,710,o),
(789,686,o),
(836,639,c),
(804,589,l),
(767,630,o),
(707,658,o),
(626,658,cs),
(446,658,o),
(306,533,o),
(275,350,cs),
(245,167,o),
(343,43,o),
(522,43,cs),
(618,43,o),
(697,81,o),
(745,124,c),
(774,81,l),
(715,29,o),
(628,-10,o),
(514,-10,cs)
);
}
);
width = 868;
},
{
layerId = "DD9EABB0-940B-474C-A221-8151F11C5AE7";
shapes = (
{
closed = 1;
nodes = (
(620,315,l),
(576,229,l),
(49,229,l),
(94,315,l)
);
},
{
closed = 1;
nodes = (
(695,464,l),
(651,376,l),
(124,376,l),
(168,464,l)
);
},
{
closed = 1;
nodes = (
(254,-10,o),
(132,135,o),
(168,350,cs),
(204,565,o),
(375,710,o),
(592,710,cs),
(689,710,o),
(761,687,o),
(802,643,c),
(716,472,l),
(680,509,o),
(629,530,o),
(563,530,cs),
(457,530,o),
(375,458,o),
(358,350,c),
(338,242,o),
(396,170,o),
(502,170,cs),
(558,170,o),
(611,188,o),
(653,219,c),
(716,72,l),
(666,31,o),
(578,-10,o),
(471,-10,cs)
);
}
);
width = 811;
}
);
unicode = 8364;
},
{
glyphname = indianrupee;
layers = (
{
layerId = "2EB5F385-C357-4F50-996C-712A481EC30A";
shapes = (
{
closed = 1;
nodes = (
(66,331,l),
(174,331,ls),
(268,331,o),
(332,380,o),
(346,464,cs),
(362,555,o),
(317,610,o),
(227,610,c),
(242,642,l),
(393,642,o),
(471,573,o),
(451,456,cs),
(431,331,o),
(324,256,o),
(166,256,cs),
(54,256,l)
);
},
{
closed = 1;
nodes = (
(334,0,l),
(289,26,o),
(239,74,o),
(196,142,c),
(151,209,o),
(136,231,o),
(115,245,c),
(102,252,o),
(89,256,o),
(72,256,c),
(172,294,l),
(204,278,o),
(236,251,o),
(279,195,cs),
(328,133,o),
(374,90,o),
(415,72,c)
);
},
{
closed = 1;
nodes = (
(96,506,l),
(570,506,l),
(558,439,l),
(84,439,l)
);
},
{
closed = 1;
nodes = (
(128,700,l),
(602,700,l),
(587,610,l),
(113,610,l)
);
}
);
width = 591;
},
{
layerId = "A9804AF1-4682-45A6-92D1-C6953796E638";
shapes = (
{
closed = 1;
nodes = (
(67,336,l),
(189,336,ls),
(295,336,o),
(366,388,o),
(380,478,c),
(399,584,o),
(345,647,o),
(237,647,c),
(252,675,l),
(395,675,o),
(467,603,o),
(446,479,cs),
(426,354,o),
(325,279,o),
(178,279,cs),
(58,279,l)
);
},
{
closed = 1;
nodes = (
(350,5,l),
(299,30,o),
(245,81,o),
(201,154,c),
(151,232,o),
(137,254,o),
(118,268,c),
(106,275,o),
(94,279,o),
(78,279,c),
(149,302,l),
(181,282,o),
(208,257,o),
(254,185,c),
(304,111,o),
(348,67,o),
(395,51,c)
);
},
{
closed = 1;
nodes = (
(99,525,l),
(573,525,l),
(563,467,l),
(89,467,l)
);
},
{
closed = 1;
nodes = (
(128,700,l),
(602,700,l),
(593,647,l),
(119,647,l)
);
}
);
width = 591;
},
{
layerId = "DD9EABB0-940B-474C-A221-8151F11C5AE7";
shapes = (
{
closed = 1;
nodes = (
(65,321,l),
(145,321,ls),
(215,321,o),
(264,364,o),
(276,435,cs),
(287,497,o),
(261,534,o),
(205,534,c),
(220,575,l),
(388,575,o),
(478,512,o),
(462,409,c),
(441,284,o),
(322,209,o),
(141,209,cs),
(47,209,l)
);
},
{
closed = 1;
nodes = (
(301,-10,l),
(270,18,o),
(228,58,o),
(185,117,cs),
(150,163,o),
(134,184,o),
(108,198,cs),
(94,205,o),
(78,209,o),
(61,209,c),
(219,278,l),
(249,271,o),
(293,240,o),
(329,216,c),
(378,177,o),
(426,137,o),
(456,116,c)
);
},
{
closed = 1;
nodes = (
(90,468,l),
(564,468,l),
(548,382,l),
(74,382,l)
);
},
{
closed = 1;
nodes = (
(128,700,l),
(602,700,l),
(575,534,l),
(101,534,l)
);
}
);
width = 591;
}
);
unicode = 8377;
},
{
glyphname = zero;
layers = (
{
anchors = (
{
name = t.uni0335;
position = "{306, 349}";
}
);
layerId = "2EB5F385-C357-4F50-996C-712A481EC30A";
shapes = (
{
closed = 1;
nodes = (
(114,-10,o),
(46,80,o),
(46,236,cs),
(46,426,o),
(134,710,o),
(361,710,cs),
(487,710,o),
(556,619,o),
(556,462,cs),
(556,272,o),
(466,-10,o),
(240,-10,cs)
);
},
{
closed = 1;
nodes = (
(401,81,o),
(449,339,o),
(449,460,cs),
(449,563,o),
(414,620,o),
(345,620,cs),
(200,620,o),
(153,360,o),
(153,240,cs),
(153,137,o),
(188,81,o),
(255,81,cs)
);
}
);
width = 579;
},
{
anchors = (
{
name = t.uni0335;
position = "{306, 349}";
}
);
layerId = "A9804AF1-4682-45A6-92D1-C6953796E638";
shapes = (
{
closed = 1;
nodes = (
(115,-10,o),
(50,79,o),
(50,232,cs),
(50,417,o),
(134,710,o),
(356,710,cs),
(477,710,o),
(542,620,o),
(542,465,cs),
(542,280,o),
(456,-10,o),
(235,-10,cs)
);
},
{
closed = 1;
nodes = (
(415,43,o),
(477,321,o),
(477,462,cs),
(477,586,o),
(432,657,o),
(347,657,cs),
(176,657,o),
(116,375,o),
(116,234,cs),
(116,113,o),
(161,43,o),
(244,43,cs)
);
}
);
width = 570;
},
{
anchors = (
{
name = t.uni0335;
position = "{306, 349}";
}
);
layerId = "DD9EABB0-940B-474C-A221-8151F11C5AE7";
shapes = (
{
closed = 1;
nodes = (
(113,-10,o),
(36,84,o),
(36,243,cs),
(36,444,o),
(135,710,o),
(371,710,cs),
(508,710,o),
(583,617,o),
(583,455,cs),
(583,255,o),
(484,-10,o),
(250,-10,cs)
);
},
{
closed = 1;
nodes = (
(368,156,o),
(393,378,o),
(393,455,cs),
(393,516,o),
(378,544,o),
(341,544,cs),
(252,544,o),
(226,321,o),
(226,245,cs),
(226,184,o),
(243,156,o),
(278,156,cs)
);
}
);
width = 597;
}
);
leftKerningGroup = zero;
rightKerningGroup = zero1;
unicode = 48;
},
{
glyphname = one;
layers = (
{
layerId = "2EB5F385-C357-4F50-996C-712A481EC30A";
shapes = (
{
closed = 1;
nodes = (
(381,700,l),
(264,0,l),
(157,0,l),
(253,569,l),
(215,539,o),
(149,496,o),
(94,467,c),
(70,549,l),
(148,593,o),
(219,643,o),
(282,700,c)
);
}
);
width = 402;
},
{
layerId = "A9804AF1-4682-45A6-92D1-C6953796E638";
shapes = (
{
closed = 1;
nodes = (
(339,700,l),
(222,0,l),
(157,0,l),
(260,616,l),
(221,583,o),
(163,543,o),
(99,508,c),
(76,555,l),
(151,597,o),
(217,645,o),
(273,700,c)
);
}
);
width = 369;
},
{
layerId = "DD9EABB0-940B-474C-A221-8151F11C5AE7";
shapes = (
{
closed = 1;
nodes = (
(466,700,l),
(349,0,l),
(158,0,l),
(237,474,l),
(203,449,o),
(120,400,o),
(83,383,c),
(59,536,l),
(141,586,o),
(223,639,o),
(301,700,c)
);
}
);
width = 468;
}
);
leftKerningGroup = one;
rightKerningGroup = one1;
unicode = 49;
},
{
glyphname = two;
layers = (
{
layerId = "2EB5F385-C357-4F50-996C-712A481EC30A";
shapes = (
{
closed = 1;
nodes = (
(170,89,l),
(490,89,l),
(474,0,l),
(15,0,l),
(27,73,l),
(269,273,ls),
(343,335,o),
(434,419,o),
(434,523,cs),
(434,582,o),
(399,620,o),
(333,620,cs),
(267,620,o),
(215,568,o),
(189,477,c),
(88,495,l),
(129,632,o),
(224,710,o),
(348,710,cs),
(469,710,o),
(542,638,o),
(542,538,cs),
(542,399,o),
(427,301,o),
(328,220,cs)
);
}
);
width = 573;
},
{
layerId = "A9804AF1-4682-45A6-92D1-C6953796E638";
shapes = (
{
closed = 1;
nodes = (
(123,54,l),
(474,54,l),
(465,0,l),
(24,0,l),
(31,45,l),
(283,254,ls),
(370,326,o),
(468,416,o),
(468,539,cs),
(468,611,o),
(424,657,o),
(339,657,cs),
(258,657,o),
(193,598,o),
(161,496,c),
(101,508,l),
(140,636,o),
(231,710,o),
(348,710,cs),
(465,710,o),
(533,636,o),
(533,541,cs),
(533,394,o),
(407,293,o),
(305,208,cs)
);
}
);
width = 573;
},
{
layerId = "DD9EABB0-940B-474C-A221-8151F11C5AE7";
shapes = (
{
closed = 1;
nodes = (
(266,161,l),
(522,161,l),
(493,0,l),
(-3,0,l),
(19,130,l),
(240,312,l),
(287,352,o),
(366,426,o),
(366,495,cs),
(366,525,o),
(348,544,o),
(321,544,cs),
(286,544,o),
(260,506,o),
(246,439,c),
(61,468,l),
(107,624,o),
(211,710,o),
(349,710,cs),
(478,710,o),
(560,642,o),
(560,532,cs),
(560,409,o),
(467,314,o),
(375,244,cs)
);
}
);
width = 574;
}
);
leftKerningGroup = two1;
rightKerningGroup = two;
unicode = 50;
},
{
glyphname = three;
layers = (
{
layerId = "2EB5F385-C357-4F50-996C-712A481EC30A";
shapes = (
{
closed = 1;
nodes = (
(481,356,o),
(520,304,o),
(520,237,cs),
(520,88,o),
(376,-10,o),
(237,-10,cs),
(120,-10,o),
(44,47,o),
(29,143,c),
(132,193,l),
(139,122,o),
(181,81,o),
(253,81,cs),
(339,81,o),
(413,140,o),
(413,229,cs),
(413,287,o),
(368,326,o),
(293,326,cs),
(229,326,l),
(242,409,l),
(303,409,ls),
(378,409,o),
(446,457,o),
(446,536,cs),
(446,586,o),
(409,620,o),
(349,620,cs),
(283,620,o),
(230,584,o),
(204,521,c),
(114,562,l),
(159,655,o),
(250,710,o),
(364,710,cs),
(478,710,o),
(554,644,o),
(554,551,cs),
(554,468,o),
(490,394,o),
(410,376,c)
);
}
);
width = 582;
},
{
layerId = "A9804AF1-4682-45A6-92D1-C6953796E638";
shapes = (
{
closed = 1;
nodes = (
(460,360,o),
(503,303,o),
(503,231,cs),
(503,84,o),
(368,-10,o),
(230,-10,cs),
(122,-10,o),
(50,45,o),
(36,134,c),
(99,160,l),
(110,87,o),
(160,43,o),
(239,43,cs),
(344,43,o),
(438,117,o),
(438,226,cs),
(438,299,o),
(382,346,o),
(289,346,cs),
(230,346,l),
(239,401,l),
(299,401,ls),
(390,401,o),
(474,458,o),
(474,555,cs),
(474,617,o),
(428,657,o),
(353,657,cs),
(273,657,o),
(207,615,o),
(176,546,c),
(125,578,l),
(170,660,o),
(256,710,o),
(362,710,cs),
(470,710,o),
(540,649,o),
(540,560,cs),
(540,470,o),
(472,397,o),
(386,378,c)
);
}
);
width = 576;
},
{
layerId = "DD9EABB0-940B-474C-A221-8151F11C5AE7";
shapes = (
{
closed = 1;
nodes = (
(525,349,o),
(555,304,o),
(555,246,cs),
(555,94,o),
(391,-10,o),
(252,-10,cs),
(115,-10,o),
(32,52,o),
(13,161,c),
(200,259,l),
(196,194,o),
(225,156,o),
(280,156,cs),
(324,156,o),
(364,186,o),
(364,233,cs),
(364,265,o),
(339,286,o),
(300,286,cs),
(227,286,l),
(249,426,l),
(310,426,ls),
(351,426,o),
(388,452,o),
(388,495,cs),
(388,525,o),
(370,544,o),
(341,544,cs),
(304,544,o),
(277,520,o),
(261,471,c),
(91,529,l),
(137,645,o),
(237,710,o),
(369,710,cs),
(491,710,o),
(582,632,o),
(582,533,cs),
(582,463,o),
(528,386,o),
(459,371,c)
);
}
);
width = 595;
}
);
leftKerningGroup = three;
rightKerningGroup = three1;
unicode = 51;
},
{
glyphname = four;
layers = (
{
layerId = "2EB5F385-C357-4F50-996C-712A481EC30A";
shapes = (
{
closed = 1;
nodes = (
(554,164,l),
(436,164,l),
(409,0,l),
(302,0,l),
(329,164,l),
(5,164,l),
(18,240,l),
(160,383,o),
(293,536,o),
(420,700,c),
(526,700,l),
(451,253,l),
(569,253,l)
);
},
{
closed = 1;
nodes = (
(344,253,l),
(395,557,l),
(315,453,o),
(219,342,o),
(130,253,c)
);
}
);
width = 598;
},
{
layerId = "A9804AF1-4682-45A6-92D1-C6953796E638";
shapes = (
{
closed = 1;
nodes = (
(541,171,l),
(423,171,l),
(395,0,l),
(329,0,l),
(357,171,l),
(10,171,l),
(18,217,l),
(169,366,o),
(312,528,o),
(447,700,c),
(512,700,l),
(432,225,l),
(550,225,l)
);
},
{
closed = 1;
nodes = (
(366,225,l),
(430,605,l),
(324,468,o),
(215,344,o),
(96,225,c)
);
}
);
width = 589;
},
{
layerId = "DD9EABB0-940B-474C-A221-8151F11C5AE7";
shapes = (
{
closed = 1;
nodes = (
(580,151,l),
(462,151,l),
(436,0,l),
(246,0,l),
(272,151,l),
(-6,151,l),
(17,287,l),
(141,416,o),
(255,553,o),
(364,700,c),
(553,700,l),
(489,310,l),
(607,310,l)
);
},
{
closed = 1;
nodes = (
(299,310,l),
(325,460,l),
(298,423,o),
(226,337,o),
(198,310,c)
);
}
);
width = 617;
}
);
leftKerningGroup = four2;
rightKerningGroup = four;
unicode = 52;
},
{
glyphname = five;
layers = (
{
layerId = "2EB5F385-C357-4F50-996C-712A481EC30A";
shapes = (
{
closed = 1;
nodes = (
(118,-10,o),
(43,48,o),
(26,146,c),
(130,187,l),
(139,121,o),
(182,80,o),
(248,80,cs),
(348,80,o),
(414,162,o),
(414,257,cs),
(414,326,o),
(370,370,o),
(297,370,cs),
(238,370,o),
(181,338,o),
(150,290,c),
(72,302,l),
(161,700,l),
(538,700,l),
(524,611,l),
(243,611,l),
(245,611,l),
(196,402,l),
(230,433,o),
(286,453,o),
(342,453,cs),
(452,453,o),
(521,382,o),
(521,273,cs),
(521,110,o),
(397,-10,o),
(233,-10,cs)
);
}
);
width = 579;
},
{
layerId = "A9804AF1-4682-45A6-92D1-C6953796E638";
shapes = (
{
closed = 1;
nodes = (
(125,-10,o),
(53,47,o),
(36,141,c),
(98,163,l),
(110,87,o),
(161,42,o),
(239,42,cs),
(360,42,o),
(443,138,o),
(443,255,cs),
(443,339,o),
(388,393,o),
(298,393,cs),
(227,393,o),
(158,356,o),
(122,300,c),
(81,309,l),
(168,700,l),
(527,700,l),
(518,646,l),
(217,646,l),
(219,646,l),
(159,387,l),
(198,423,o),
(265,448,o),
(325,448,cs),
(439,448,o),
(509,377,o),
(509,267,cs),
(509,110,o),
(390,-10,o),
(231,-10,cs)
);
}
);
width = 577;
},
{
layerId = "DD9EABB0-940B-474C-A221-8151F11C5AE7";
shapes = (
{
closed = 1;
nodes = (
(105,-10,o),
(24,49,o),
(7,156,c),
(194,236,l),
(197,189,o),
(223,158,o),
(266,158,cs),
(323,158,o),
(355,209,o),
(355,261,cs),
(355,299,o),
(332,324,o),
(295,324,cs),
(261,324,o),
(226,303,o),
(207,268,c),
(55,286,l),
(148,700,l),
(561,700,l),
(535,541,l),
(295,541,l),
(297,541,l),
(271,431,l),
(294,454,o),
(330,464,o),
(376,464,cs),
(480,464,o),
(545,392,o),
(545,284,cs),
(545,110,o),
(409,-10,o),
(238,-10,cs)
);
}
);
width = 583;
}
);
leftKerningGroup = five;
rightKerningGroup = five1;
unicode = 53;
},
{
glyphname = six;
layers = (
{
layerId = "2EB5F385-C357-4F50-996C-712A481EC30A";
shapes = (
{
closed = 1;
nodes = (
(111,-10,o),
(33,67,o),
(33,186,cs),
(33,368,o),
(217,576,o),
(337,700,c),
(483,700,l),
(372,597,o),
(265,490,o),
(205,402,c),
(238,430,o),
(290,450,o),
(351,450,cs),
(452,450,o),
(529,379,o),
(529,273,cs),
(529,113,o),
(399,-10,o),
(240,-10,cs)
);
},
{
closed = 1;
nodes = (
(356,80,o),
(420,164,o),
(420,259,cs),
(420,328,o),
(377,371,o),
(304,371,cs),
(203,371,o),
(138,289,o),
(138,193,cs),
(138,123,o),
(181,80,o),
(256,80,cs)
);
}
);
width = 579;
},
{
layerId = "A9804AF1-4682-45A6-92D1-C6953796E638";
shapes = (
{
closed = 1;
nodes = (
(113,-10,o),
(36,65,o),
(36,180,cs),
(36,356,o),
(240,576,o),
(354,700,c),
(426,700,l),
(320,590,o),
(227,486,o),
(166,389,c),
(204,424,o),
(266,450,o),
(336,450,cs),
(431,450,o),
(514,377,o),
(514,268,cs),
(514,115,o),
(389,-10,o),
(236,-10,cs)
);
},
{
closed = 1;
nodes = (
(364,43,o),
(447,141,o),
(447,256,cs),
(447,339,o),
(392,394,o),
(303,394,cs),
(182,394,o),
(100,296,o),
(100,180,cs),
(100,96,o),
(154,43,o),
(245,43,cs)
);
}
);
width = 570;
},
{
layerId = "DD9EABB0-940B-474C-A221-8151F11C5AE7";
shapes = (
{
closed = 1;
nodes = (
(111,-10,o),
(26,73,o),
(26,201,cs),
(26,394,o),
(212,577,o),
(343,700,c),
(604,700,l),
(484,610,o),
(342,497,o),
(285,430,c),
(308,441,o),
(339,450,o),
(383,450,cs),
(496,450,o),
(558,385,o),
(558,284,cs),
(558,111,o),
(418,-10,o),
(249,-10,cs)
);
},
{
closed = 1;
nodes = (
(341,157,o),
(365,209,o),
(365,264,cs),
(365,304,o),
(347,324,o),
(305,324,cs),
(242,324,o),
(216,273,o),
(216,216,cs),
(216,176,o),
(237,157,o),
(278,157,cs)
);
}
);
width = 597;
}
);
leftKerningGroup = six2;
rightKerningGroup = six;
unicode = 54;
},
{
glyphname = seven;
layers = (
{
layerId = "2EB5F385-C357-4F50-996C-712A481EC30A";
shapes = (
{
closed = 1;
nodes = (
(104,700,l),
(90,611,l),
(425,611,l),
(295,430,o),
(165,204,o),
(76,0,c),
(190,0,l),
(286,227,o),
(392,411,o),
(544,623,c),
(543,700,l)
);
}
);
width = 523;
},
{
layerId = "A9804AF1-4682-45A6-92D1-C6953796E638";
shapes = (
{
closed = 1;
nodes = (
(109,700,l),
(100,646,l),
(470,646,l),
(329,445,o),
(187,204,o),
(94,0,c),
(166,0,l),
(271,236,o),
(387,433,o),
(545,656,c),
(543,700,l)
);
}
);
width = 523;
},
{
layerId = "DD9EABB0-940B-474C-A221-8151F11C5AE7";
shapes = (
{
closed = 1;
nodes = (
(94,700,l),
(68,541,l),
(334,541,l),
(227,401,o),
(121,204,o),
(42,0,c),
(241,0,l),
(319,208,o),
(402,367,o),
(543,556,c),
(543,700,l)
);
}
);
width = 523;
}
);
leftKerningGroup = seven2;
rightKerningGroup = seven;
unicode = 55;
},
{
glyphname = eight;
layers = (
{
layerId = "2EB5F385-C357-4F50-996C-712A481EC30A";
shapes = (
{
closed = 1;
nodes = (
(109,-10,o),
(28,58,o),
(28,163,cs),
(28,259,o),
(93,347,o),
(183,380,c),
(132,403,o),
(103,458,o),
(113,519,cs),
(132,634,o),
(232,710,o),
(361,710,cs),
(476,710,o),
(547,649,o),
(547,554,cs),
(547,477,o),
(501,406,o),
(427,380,c),
(486,357,o),
(523,300,o),
(523,233,cs),
(523,81,o),
(381,-10,o),
(240,-10,cs)
);
},
{
closed = 1;
nodes = (
(343,81,o),
(418,139,o),
(418,231,cs),
(418,294,o),
(374,333,o),
(297,333,cs),
(207,333,o),
(137,273,o),
(137,182,cs),
(137,120,o),
(181,81,o),
(255,81,cs)
);
},
{
closed = 1;
nodes = (
(383,412,o),
(441,462,o),
(441,535,cs),
(441,588,o),
(405,620,o),
(345,620,cs),
(271,620,o),
(216,568,o),
(216,494,cs),
(216,444,o),
(252,412,o),
(311,412,cs)
);
}
);
width = 579;
},
{
layerId = "A9804AF1-4682-45A6-92D1-C6953796E638";
shapes = (
{
closed = 1;
nodes = (
(110,-10,o),
(32,55,o),
(32,157,cs),
(32,258,o),
(103,351,o),
(201,378,c),
(149,397,o),
(117,445,o),
(117,501,cs),
(117,630,o),
(236,710,o),
(356,710,cs),
(467,710,o),
(535,651,o),
(535,559,cs),
(535,477,o),
(479,400,o),
(398,378,c),
(465,358,o),
(508,299,o),
(508,227,cs),
(508,79,o),
(373,-10,o),
(235,-10,cs)
);
},
{
closed = 1;
nodes = (
(347,43,o),
(443,110,o),
(443,219,cs),
(443,293,o),
(388,342,o),
(294,342,cs),
(190,342,o),
(98,274,o),
(98,166,cs),
(98,91,o),
(154,43,o),
(244,43,cs)
);
},
{
closed = 1;
nodes = (
(392,398,o),
(468,460,o),
(468,551,cs),
(468,615,o),
(423,657,o),
(347,657,cs),
(258,657,o),
(183,594,o),
(183,503,cs),
(183,439,o),
(229,398,o),
(304,398,cs)
);
}
);
width = 570;
},
{
layerId = "DD9EABB0-940B-474C-A221-8151F11C5AE7";
shapes = (
{
closed = 1;
nodes = (
(109,-10,o),
(21,64,o),
(21,176,cs),
(21,264,o),
(75,341,o),
(148,385,c),
(120,403,o),
(102,439,o),
(100,477,c),
(96,622,o),
(243,710,o),
(371,710,cs),
(495,710,o),
(571,644,o),
(571,544,cs),
(571,478,o),
(542,419,o),
(484,385,c),
(529,355,o),
(553,302,o),
(553,248,cs),
(553,86,o),
(397,-10,o),
(250,-10,cs)
);
},
{
closed = 1;
nodes = (
(338,156,o),
(366,201,o),
(366,257,cs),
(366,294,o),
(345,314,o),
(304,314,cs),
(245,314,o),
(216,269,o),
(216,215,cs),
(216,177,o),
(237,156,o),
(278,156,cs)
);
},
{
closed = 1;
nodes = (
(362,440,o),
(386,468,o),
(386,503,cs),
(386,530,o),
(370,544,o),
(341,544,cs),
(301,544,o),
(282,515,o),
(282,477,cs),
(282,453,o),
(298,440,o),
(326,440,cs)
);
}
);
width = 597;
}
);
leftKerningGroup = eight;
rightKerningGroup = eight1;
unicode = 56;
},
{
glyphname = nine;
layers = (
{
layerId = "2EB5F385-C357-4F50-996C-712A481EC30A";
shapes = (
{
closed = 1;
nodes = (
(490,710,o),
(568,633,o),
(568,514,cs),
(568,332,o),
(384,124,o),
(264,0,c),
(118,0,l),
(229,103,o),
(336,210,o),
(396,298,c),
(363,270,o),
(311,250,o),
(250,250,cs),
(149,250,o),
(72,321,o),
(72,427,cs),
(72,587,o),
(202,710,o),
(361,710,cs)
);
},
{
closed = 1;
nodes = (
(245,620,o),
(181,536,o),
(181,441,cs),
(181,372,o),
(224,329,o),
(297,329,cs),
(398,329,o),
(463,411,o),
(463,507,cs),
(463,577,o),
(420,620,o),
(345,620,cs)
);
}
);
width = 579;
},
{
layerId = "A9804AF1-4682-45A6-92D1-C6953796E638";
shapes = (
{
closed = 1;
nodes = (
(479,710,o),
(556,635,o),
(556,520,cs),
(556,344,o),
(352,124,o),
(238,0,c),
(166,0,l),
(272,110,o),
(365,214,o),
(426,311,c),
(388,276,o),
(326,250,o),
(256,250,cs),
(161,250,o),
(78,323,o),
(78,432,cs),
(78,585,o),
(203,710,o),
(356,710,cs)
);
},
{
closed = 1;
nodes = (
(228,657,o),
(145,559,o),
(145,444,cs),
(145,361,o),
(200,306,o),
(289,306,cs),
(410,306,o),
(492,404,o),
(492,520,cs),
(492,604,o),
(438,657,o),
(347,657,cs)
);
}
);
width = 570;
},
{
layerId = "DD9EABB0-940B-474C-A221-8151F11C5AE7";
shapes = (
{
closed = 1;
nodes = (
(508,710,o),
(594,627,o),
(594,499,cs),
(594,307,o),
(407,123,o),
(276,0,c),
(15,0,l),
(136,90,o),
(278,203,o),
(334,270,c),
(311,259,o),
(281,250,o),
(237,250,cs),
(124,250,o),
(61,315,o),
(61,416,cs),
(61,589,o),
(201,710,o),
(371,710,cs)
);
},
{
closed = 1;
nodes = (
(278,544,o),
(254,491,o),
(254,436,cs),
(254,396,o),
(273,376,o),
(314,376,cs),
(377,376,o),
(404,427,o),
(404,484,cs),
(404,524,o),
(382,544,o),
(341,544,cs)
);
}
);
width = 597;
}
);
leftKerningGroup = nine;
rightKerningGroup = nine1;
unicode = 57;
},
{
glyphname = zero.osf;
layers = (
{
layerId = "2EB5F385-C357-4F50-996C-712A481EC30A";
shapes = (
{
closed = 1;
nodes = (
(114,-10,o),
(34,64,o),
(34,191,cs),
(34,374,o),
(154,510,o),
(343,510,cs),
(485,510,o),
(566,436,o),
(566,308,cs),
(566,125,o),
(445,-10,o),
(256,-10,cs)
);
},
{
closed = 1;
nodes = (
(391,81,o),
(458,181,o),
(458,292,cs),
(458,373,o),
(411,420,o),
(328,420,cs),
(208,420,o),
(142,318,o),
(142,208,cs),
(142,127,o),
(189,81,o),
(271,81,cs)
);
}
);
width = 611;
},
{
layerId = "A9804AF1-4682-45A6-92D1-C6953796E638";
shapes = (
{
closed = 1;
nodes = (
(117,-10,o),
(39,64,o),
(39,190,cs),
(39,370,o),
(155,510,o),
(343,510,cs),
(483,510,o),
(561,436,o),
(561,310,cs),
(561,129,o),
(445,-10,o),
(256,-10,cs)
);
},
{
closed = 1;
nodes = (
(411,43,o),
(495,163,o),
(495,299,cs),
(495,398,o),
(437,457,o),
(334,457,cs),
(186,457,o),
(105,335,o),
(105,198,cs),
(105,101,o),
(162,43,o),
(265,43,cs)
);
}
);
width = 611;
},
{
layerId = "DD9EABB0-940B-474C-A221-8151F11C5AE7";
shapes = (
{
closed = 1;
nodes = (
(108,-10,o),
(24,65,o),
(24,193,cs),
(24,380,o),
(153,510,o),
(343,510,cs),
(491,510,o),
(575,435,o),
(575,307,cs),
(575,120,o),
(445,-10,o),
(256,-10,cs)
);
},
{
closed = 1;
nodes = (
(349,156,o),
(382,216,o),
(382,274,cs),
(382,318,o),
(359,344,o),
(316,344,cs),
(249,344,o),
(217,284,o),
(217,225,cs),
(217,182,o),
(242,156,o),
(284,156,cs)
);
}
);
width = 611;
}
);
leftKerningGroup = zero.osf;
rightKerningGroup = zero.osf1;
},
{
glyphname = one.osf;
layers = (
{
layerId = "2EB5F385-C357-4F50-996C-712A481EC30A";
shapes = (
{
closed = 1;
nodes = (
(350,500,l),
(266,0,l),
(160,0,l),
(221,366,l),
(184,337,o),
(117,296,o),
(61,267,c),
(37,351,l),
(119,396,o),
(190,445,o),
(253,500,c)
);
}
);
width = 404;
},
{
layerId = "A9804AF1-4682-45A6-92D1-C6953796E638";
shapes = (
{
closed = 1;
nodes = (
(310,500,l),
(226,0,l),
(161,0,l),
(230,411,l),
(192,380,o),
(126,338,o),
(64,305,c),
(43,360,l),
(117,400,o),
(184,446,o),
(245,500,c)
);
}
);
width = 373;
},
{
layerId = "DD9EABB0-940B-474C-A221-8151F11C5AE7";
shapes = (
{
closed = 1;
nodes = (
(431,500,l),
(347,0,l),
(158,0,l),
(204,276,l),
(168,250,o),
(99,210,o),
(54,191,c),
(26,334,l),
(123,388,o),
(203,443,o),
(268,500,c)
);
}
);
width = 466;
}
);
},
{
glyphname = two.osf;
layers = (
{
layerId = "2EB5F385-C357-4F50-996C-712A481EC30A";
shapes = (
{
closed = 1;
nodes = (
(209,89,l),
(492,89,l),
(476,0,l),
(17,0,l),
(27,62,l),
(206,158,ls),
(276,196,o),
(383,253,o),
(383,345,cs),
(383,392,o),
(350,420,o),
(294,420,cs),
(221,420,o),
(163,361,o),
(153,276,c),
(53,287,l),
(79,419,o),
(184,510,o),
(313,510,cs),
(427,510,o),
(493,454,o),
(493,369,cs),
(493,254,o),
(385,180,o),
(293,133,cs)
);
}
);
width = 574;
},
{
layerId = "A9804AF1-4682-45A6-92D1-C6953796E638";
shapes = (
{
closed = 1;
nodes = (
(148,54,l),
(476,54,l),
(467,0,l),
(26,0,l),
(33,48,l),
(226,150,ls),
(308,193,o),
(422,255,o),
(422,362,cs),
(422,422,o),
(382,457,o),
(309,457,cs),
(216,457,o),
(152,397,o),
(130,281,c),
(64,290,l),
(92,417,o),
(191,510,o),
(317,510,cs),
(428,510,o),
(487,459,o),
(487,371,cs),
(487,238,o),
(359,163,o),
(254,109,cs)
);
}
);
width = 574;
},
{
layerId = "DD9EABB0-940B-474C-A221-8151F11C5AE7";
shapes = (
{
closed = 1;
nodes = (
(333,161,l),
(524,161,l),
(495,0,l),
(-1,0,l),
(14,90,l),
(165,173,l),
(265,230,o),
(294,264,o),
(303,298,cs),
(309,324,o),
(289,344,o),
(265,344,cs),
(232,344,o),
(185,289,o),
(200,266,c),
(30,280,l),
(51,423,o),
(171,510,o),
(306,510,cs),
(423,510,o),
(504,442,o),
(504,367,cs),
(504,289,o),
(438,215,o),
(373,182,cs)
);
}
);
width = 575;
}
);
leftKerningGroup = two.osf;
rightKerningGroup = two.osf1;
},
{
glyphname = three.osf;
layers = (
{
layerId = "2EB5F385-C357-4F50-996C-712A481EC30A";
shapes = (
{
closed = 1;
nodes = (
(30,-150,l),
(43,-150,o),
(56,-151,o),
(68,-150,cs),
(178,-145,o),
(361,-110,o),
(361,34,cs),
(361,89,o),
(319,126,o),
(241,126,cs),
(176,126,l),
(189,207,l),
(223,207,ls),
(304,207,o),
(394,244,o),
(394,338,cs),
(394,388,o),
(355,420,o),
(296,420,cs),
(232,420,o),
(180,383,o),
(150,329,c),
(65,357,l),
(109,449,o),
(199,510,o),
(311,510,cs),
(423,510,o),
(501,446,o),
(501,355,cs),
(501,270,o),
(439,199,o),
(358,180,c),
(425,161,o),
(468,113,o),
(468,43,cs),
(468,-162,o),
(234,-234,o),
(68,-239,c),
(58,-239,o),
(45,-239,o),
(33,-239,c)
);
}
);
width = 563;
},
{
layerId = "A9804AF1-4682-45A6-92D1-C6953796E638";
shapes = (
{
closed = 1;
nodes = (
(30,-184,l),
(38,-184,o),
(46,-184,o),
(53,-183,cs),
(183,-174,o),
(385,-131,o),
(385,35,cs),
(385,103,o),
(336,146,o),
(236,146,cs),
(176,146,l),
(184,197,l),
(227,197,ls),
(325,197,o),
(420,246,o),
(420,354,cs),
(420,416,o),
(374,457,o),
(299,457,cs),
(222,457,o),
(159,415,o),
(124,354,c),
(77,380,l),
(120,454,o),
(202,510,o),
(308,510,cs),
(413,510,o),
(485,449,o),
(485,361,cs),
(485,272,o),
(419,195,o),
(332,178,c),
(402,158,o),
(451,110,o),
(451,36,cs),
(451,-166,o),
(212,-229,o),
(53,-238,c),
(45,-239,o),
(36,-239,o),
(27,-239,c)
);
}
);
width = 555;
},
{
layerId = "DD9EABB0-940B-474C-A221-8151F11C5AE7";
shapes = (
{
closed = 1;
nodes = (
(30,-81,l),
(54,-82,o),
(77,-83,o),
(97,-83,cs),
(166,-84,o),
(312,-69,o),
(312,28,cs),
(312,60,o),
(287,86,o),
(250,86,cs),
(176,86,l),
(200,228,l),
(215,228,ls),
(263,228,o),
(339,244,o),
(339,305,cs),
(339,330,o),
(319,344,o),
(289,344,cs),
(253,344,o),
(221,319,o),
(203,279,c),
(40,310,l),
(87,439,o),
(193,510,o),
(316,510,cs),
(441,510,o),
(535,441,o),
(535,343,cs),
(535,269,o),
(479,206,o),
(410,185,c),
(469,163,o),
(504,118,o),
(504,56,cs),
(504,-150,o),
(272,-244,o),
(98,-240,c),
(84,-240,o),
(63,-240,o),
(45,-239,c)
);
}
);
width = 578;
}
);
leftKerningGroup = three.osf;
},
{
glyphname = four.osf;
layers = (
{
layerId = "2EB5F385-C357-4F50-996C-712A481EC30A";
shapes = (
{
closed = 1;
nodes = (
(527,0,l),
(409,0,l),
(381,-163,l),
(275,-163,l),
(302,0,l),
(-23,0,l),
(-10,76,l),
(132,217,o),
(260,357,o),
(379,500,c),
(493,500,l),
(424,89,l),
(542,89,l)
);
},
{
closed = 1;
nodes = (
(317,89,l),
(366,380,l),
(280,278,o),
(198,187,o),
(98,89,c)
);
}
);
width = 598;
},
{
layerId = "A9804AF1-4682-45A6-92D1-C6953796E638";
shapes = (
{
closed = 1;
nodes = (
(513,0,l),
(395,0,l),
(366,-172,l),
(301,-172,l),
(329,0,l),
(-18,0,l),
(-10,46,l),
(147,202,o),
(286,349,o),
(416,500,c),
(479,500,l),
(404,54,l),
(522,54,l)
);
},
{
closed = 1;
nodes = (
(338,54,l),
(397,407,l),
(286,283,o),
(190,181,o),
(63,54,c)
);
}
);
width = 589;
},
{
layerId = "DD9EABB0-940B-474C-A221-8151F11C5AE7";
shapes = (
{
closed = 1;
nodes = (
(554,0,l),
(436,0,l),
(411,-144,l),
(223,-144,l),
(246,0,l),
(-32,0,l),
(-9,138,l),
(103,247,o),
(207,372,o),
(305,500,c),
(520,500,l),
(463,161,l),
(581,161,l)
);
},
{
closed = 1;
nodes = (
(275,161,l),
(302,327,l),
(268,267,o),
(215,200,o),
(170,161,c)
);
}
);
width = 617;
}
);
leftKerningGroup = four.osf;
rightKerningGroup = four.osf1;
},
{
glyphname = five.osf;
layers = (
{
layerId = "2EB5F385-C357-4F50-996C-712A481EC30A";
shapes = (
{
closed = 1;
nodes = (
(-3,-146,l),
(7,-147,o),
(19,-147,o),
(29,-147,c),
(234,-137,o),
(342,-59,o),
(360,46,cs),
(373,127,o),
(328,170,o),
(249,170,cs),
(195,170,o),
(138,143,o),
(91,99,c),
(21,124,l),
(107,500,l),
(483,500,l),
(469,411,l),
(190,411,l),
(141,208,l),
(184,235,o),
(237,253,o),
(301,253,cs),
(417,253,o),
(487,175,o),
(465,44,cs),
(440,-104,o),
(285,-227,o),
(29,-237,c),
(21,-237,o),
(12,-237,o),
(3,-237,c)
);
}
);
width = 557;
},
{
layerId = "A9804AF1-4682-45A6-92D1-C6953796E638";
shapes = (
{
closed = 1;
nodes = (
(2,-185,l),
(7,-185,o),
(13,-184,o),
(18,-184,c),
(249,-167,o),
(370,-85,o),
(391,39,cs),
(407,139,o),
(353,193,o),
(258,193,cs),
(196,193,o),
(134,163,o),
(86,118,c),
(32,129,l),
(116,500,l),
(474,500,l),
(466,446,l),
(167,446,l),
(108,197,l),
(154,228,o),
(214,248,o),
(282,248,cs),
(406,248,o),
(479,175,o),
(456,39,cs),
(431,-110,o),
(282,-222,o),
(21,-237,c),
(14,-237,o),
(6,-238,o),
(-2,-238,c)
);
}
);
width = 557;
},
{
layerId = "DD9EABB0-940B-474C-A221-8151F11C5AE7";
shapes = (
{
closed = 1;
nodes = (
(-14,-68,l),
(8,-71,o),
(31,-72,o),
(52,-72,c),
(205,-76,o),
(285,-7,o),
(296,61,c),
(304,103,o),
(278,124,o),
(230,124,cs),
(194,124,o),
(145,103,o),
(100,60,c),
(-1,113,l),
(88,500,l),
(501,500,l),
(474,341,l),
(236,341,l),
(207,229,l),
(245,250,o),
(284,264,o),
(339,264,cs),
(439,264,o),
(504,176,o),
(483,54,cs),
(459,-93,o),
(290,-237,o),
(44,-236,c),
(36,-236,o),
(23,-235,o),
(14,-235,c)
);
}
);
width = 556;
}
);
leftKerningGroup = five.osf;
rightKerningGroup = five.osf1;
},
{
glyphname = one.tf;
layers = (
{
layerId = "2EB5F385-C357-4F50-996C-712A481EC30A";
shapes = (
{
closed = 1;
nodes = (
(485,700,l),
(368,0,l),
(262,0,l),
(357,569,l),
(320,539,o),
(214,482,o),
(159,467,c),
(136,549,l),
(214,578,o),
(323,643,o),
(387,700,c)
);
}
);
width = 600;
},
{
layerId = "A9804AF1-4682-45A6-92D1-C6953796E638";
shapes = (
{
closed = 1;
nodes = (
(441,700,l),
(324,0,l),
(259,0,l),
(362,616,l),
(323,582,o),
(245,539,o),
(181,508,c),
(159,555,l),
(235,591,o),
(319,645,o),
(375,700,c)
);
}
);
width = 600;
},
{
layerId = "DD9EABB0-940B-474C-A221-8151F11C5AE7";
shapes = (
{
closed = 1;
nodes = (
(545,700,l),
(428,0,l),
(240,0,l),
(319,474,l),
(283,450,o),
(166,392,o),
(130,383,c),
(104,536,l),
(187,575,o),
(302,639,o),
(383,700,c)
);
}
);
width = 600;
}
);
},
{
glyphname = one.tosf;
layers = (
{
layerId = "2EB5F385-C357-4F50-996C-712A481EC30A";
shapes = (
{
closed = 1;
nodes = (
(452,500,l),
(368,0,l),
(262,0,l),
(324,369,l),
(287,339,o),
(181,282,o),
(126,267,c),
(103,349,l),
(181,378,o),
(290,443,o),
(354,500,c)
);
}
);
width = 600;
},
{
layerId = "A9804AF1-4682-45A6-92D1-C6953796E638";
shapes = (
{
closed = 1;
nodes = (
(408,500,l),
(324,0,l),
(259,0,l),
(329,416,l),
(290,382,o),
(212,339,o),
(148,308,c),
(126,355,l),
(202,391,o),
(286,445,o),
(342,500,c)
);
}
);
width = 600;
},
{
layerId = "DD9EABB0-940B-474C-A221-8151F11C5AE7";
shapes = (
{
closed = 1;
nodes = (
(512,500,l),
(428,0,l),
(240,0,l),
(286,274,l),
(250,250,o),
(133,192,o),
(97,183,c),
(71,336,l),
(154,375,o),
(269,439,o),
(350,500,c)
);
}
);
width = 600;
}
);
},
{
glyphname = AE;
layers = (
{
anchors = (
{
name = m.uni0321_3;
position = "{2078, 0}";
},
{
name = t.uni0308_1_3;
position = "{629, 698}";
},
{
name = m.uni0328_3;
position = "{796, 0}";
}
);
layerId = "2EB5F385-C357-4F50-996C-712A481EC30A";
shapes = (
{
closed = 1;
nodes = (
(545,267,l),
(529,172,l),
(166,172,l),
(183,267,l)
);
},
{
closed = 1;
nodes = (
(601,606,l),
(424,606,l),
(88,0,l),
(-31,0,l),
(370,700,l),
(617,700,l)
);
},
{
closed = 1;
nodes = (
(998,700,l),
(983,610,l),
(612,610,l),
(667,658,l),
(564,43,l),
(525,91,l),
(896,91,l),
(881,0,l),
(451,0,l),
(568,700,l)
);
},
{
closed = 1;
nodes = (
(948,402,l),
(933,312,l),
(542,312,l),
(557,402,l)
);
}
);
width = 1001;
},
{
anchors = (
{
name = m.uni0321_3;
position = "{2078, 0}";
},
{
name = t.uni0308_1_3;
position = "{629, 698}";
},
{
name = m.uni0328_3;
position = "{796, 0}";
}
);
layerId = "A9804AF1-4682-45A6-92D1-C6953796E638";
shapes = (
{
closed = 1;
nodes = (
(523,244,l),
(513,191,l),
(146,191,l),
(156,244,l)
);
},
{
closed = 1;
nodes = (
(608,648,l),
(427,648,l),
(47,0,l),
(-26,0,l),
(393,700,l),
(617,700,l)
);
},
{
closed = 1;
nodes = (
(993,700,l),
(984,647,l),
(590,647,l),
(645,695,l),
(530,5,l),
(491,53,l),
(885,53,l),
(876,0,l),
(465,0,l),
(582,700,l)
);
},
{
closed = 1;
nodes = (
(940,381,l),
(931,328,l),
(558,328,l),
(567,381,l)
);
}
);
width = 1004;
},
{
anchors = (
{
name = m.uni0321_3;
position = "{2078, 0}";
},
{
name = t.uni0308_1_3;
position = "{629, 698}";
},
{
name = m.uni0328_3;
position = "{796, 0}";
}
);
layerId = "DD9EABB0-940B-474C-A221-8151F11C5AE7";
shapes = (
{
closed = 1;
nodes = (
(590,314,l),
(561,134,l),
(207,134,l),
(238,314,l)
);
},
{
closed = 1;
nodes = (
(588,520,l),
(418,520,l),
(172,0,l),
(-42,0,l),
(323,700,l),
(617,700,l)
);
},
{
closed = 1;
nodes = (
(1008,700,l),
(981,534,l),
(656,534,l),
(711,582,l),
(632,118,l),
(593,166,l),
(918,166,l),
(891,0,l),
(422,0,l),
(539,700,l)
);
},
{
closed = 1;
nodes = (
(965,446,l),
(938,278,l),
(508,278,l),
(535,446,l)
);
}
);
width = 995;
}
);
leftKerningGroup = A;
rightKerningGroup = E;
unicode = 198;
},
{
glyphname = Schwa;
layers = (
{
layerId = "2EB5F385-C357-4F50-996C-712A481EC30A";
shapes = (
{
closed = 1;
nodes = (
(106,288,l),
(156,321,l),
(131,178,o),
(213,85,o),
(362,85,cs),
(502,85,o),
(633,185,o),
(656,325,cs),
(660,349,ls),
(663,368,o),
(665,387,o),
(665,405,cs),
(665,532,o),
(583,616,o),
(447,616,cs),
(353,616,o),
(263,563,o),
(206,478,c),
(125,531,l),
(202,643,o),
(327,710,o),
(463,710,cs),
(656,710,o),
(774,597,o),
(774,422,cs),
(774,180,o),
(591,-10,o),
(346,-10,cs),
(128,-10,o),
(23,146,o),
(55,347,c),
(59,366,l),
(689,366,l),
(676,288,l)
);
}
);
width = 802;
},
{
layerId = "A9804AF1-4682-45A6-92D1-C6953796E638";
shapes = (
{
closed = 1;
nodes = (
(67,302,l),
(120,337,l),
(92,167,o),
(166,43,o),
(355,43,cs),
(524,43,o),
(676,162,o),
(702,325,c),
(705,340,l),
(709,364,o),
(711,387,o),
(711,409,cs),
(711,560,o),
(617,658,o),
(459,658,cs),
(351,658,o),
(249,601,o),
(183,508,c),
(140,546,l),
(217,649,o),
(338,710,o),
(468,710,cs),
(661,710,o),
(779,597,o),
(779,422,cs),
(779,178,o),
(592,-10,o),
(346,-10,cs),
(127,-10,o),
(28,150,o),
(60,349,c),
(62,357,l),
(725,357,l),
(716,302,l)
);
}
);
width = 811;
},
{
layerId = "DD9EABB0-940B-474C-A221-8151F11C5AE7";
shapes = (
{
closed = 1;
nodes = (
(186,259,l),
(230,288,l),
(217,208,o),
(290,170,o),
(377,170,cs),
(456,170,o),
(547,230,o),
(563,325,cs),
(569,367,ls),
(571,378,o),
(572,388,o),
(572,398,cs),
(572,477,o),
(515,530,o),
(424,530,cs),
(357,530,o),
(291,487,o),
(251,416,c),
(93,499,l),
(170,630,o),
(304,710,o),
(453,710,cs),
(646,710,o),
(764,597,o),
(764,422,cs),
(764,184,o),
(591,-10,o),
(346,-10,cs),
(132,-10,o),
(11,139,o),
(45,343,cs),
(52,385,l),
(616,385,l),
(596,259,l)
);
}
);
width = 783;
}
);
leftKerningGroup = C2;
rightKerningGroup = D;
unicode = 399;
},
{
glyphname = Nhookleft;
layers = (
{
anchors = (
{
name = m.uni0321_3;
position = "{381, 0}";
},
{
name = t.uni0308_1_3;
position = "{501, 700}";
}
);
layerId = "2EB5F385-C357-4F50-996C-712A481EC30A";
shapes = (
{
closed = 1;
nodes = (
(-63,-157,l),
(-7,-146,o),
(26,-110,o),
(36,-50,cs),
(94,299,l),
(201,299,l),
(143,-50,ls),
(125,-158,o),
(66,-216,o),
(-39,-240,c)
);
},
{
closed = 1;
nodes = (
(783,700,l),
(666,0,l),
(551,0,l),
(242,544,l),
(151,0,l),
(44,0,l),
(161,700,l),
(271,700,l),
(584,150,l),
(677,700,l)
);
}
);
width = 804;
},
{
anchors = (
{
name = m.uni0321_3;
position = "{381, 0}";
},
{
name = t.uni0308_1_3;
position = "{501, 700}";
}
);
layerId = "A9804AF1-4682-45A6-92D1-C6953796E638";
shapes = (
{
closed = 1;
nodes = (
(-68,-185,l),
(-16,-178,o),
(15,-145,o),
(25,-87,cs),
(89,299,l),
(155,299,l),
(91,-87,ls),
(75,-180,o),
(27,-220,o),
(-62,-240,c)
);
},
{
closed = 1;
nodes = (
(742,700,l),
(625,0,l),
(551,0,l),
(204,595,l),
(105,0,l),
(39,0,l),
(156,700,l),
(220,700,l),
(575,94,l),
(677,700,l)
);
}
);
width = 771;
},
{
anchors = (
{
name = m.uni0321_3;
position = "{381, 0}";
},
{
name = t.uni0308_1_3;
position = "{501, 700}";
}
);
layerId = "DD9EABB0-940B-474C-A221-8151F11C5AE7";
shapes = (
{
closed = 1;
nodes = (
(-53,-100,l),
(10,-82,o),
(47,-40,o),
(58,27,cs),
(104,300,l),
(293,300,l),
(249,27,l),
(225,-114,o),
(145,-209,o),
(7,-240,c)
);
},
{
closed = 1;
nodes = (
(867,700,l),
(750,0,l),
(551,0,l),
(317,440,l),
(243,0,l),
(54,0,l),
(171,700,l),
(373,700,l),
(603,264,l),
(677,700,l)
);
}
);
width = 870;
}
);
leftKerningGroup = B1;
unicode = 413;
},
{
glyphname = Eng;
layers = (
{
anchors = (
{
name = m.uni0321_3;
position = "{361, 0}";
},
{
name = t.uni0308_1_3;
position = "{481, 700}";
}
);
layerId = "2EB5F385-C357-4F50-996C-712A481EC30A";
shapes = (
{
closed = 1;
nodes = (
(451,-157,l),
(507,-146,o),
(539,-110,o),
(550,-50,cs),
(608,299,l),
(715,299,l),
(657,-50,ls),
(639,-158,o),
(580,-216,o),
(476,-240,c)
);
},
{
closed = 1;
nodes = (
(782,700,l),
(665,0,l),
(550,0,l),
(240,544,l),
(149,0,l),
(43,0,l),
(160,700,l),
(269,700,l),
(583,150,l),
(675,700,l)
);
}
);
width = 802;
},
{
anchors = (
{
name = m.uni0321_3;
position = "{361, 0}";
},
{
name = t.uni0308_1_3;
position = "{481, 700}";
}
);
layerId = "A9804AF1-4682-45A6-92D1-C6953796E638";
shapes = (
{
closed = 1;
nodes = (
(464,-185,l),
(517,-178,o),
(547,-145,o),
(557,-87,cs),
(621,299,l),
(687,299,l),
(623,-87,ls),
(608,-180,o),
(559,-220,o),
(471,-240,c)
);
},
{
closed = 1;
nodes = (
(754,700,l),
(637,0,l),
(564,0,l),
(217,595,l),
(117,0,l),
(52,0,l),
(169,700,l),
(233,700,l),
(587,94,l),
(688,700,l)
);
}
);
width = 784;
},
{
anchors = (
{
name = m.uni0321_3;
position = "{361, 0}";
},
{
name = t.uni0308_1_3;
position = "{481, 700}";
}
);
layerId = "DD9EABB0-940B-474C-A221-8151F11C5AE7";
shapes = (
{
closed = 1;
nodes = (
(423,-100,l),
(488,-82,o),
(523,-40,o),
(534,27,cs),
(580,300,l),
(771,300,l),
(725,27,ls),
(701,-114,o),
(621,-209,o),
(485,-240,c)
);
},
{
closed = 1;
nodes = (
(838,700,l),
(721,0,l),
(521,0,l),
(287,440,l),
(213,0,l),
(24,0,l),
(141,700,l),
(343,700,l),
(575,264,l),
(647,700,l)
);
}
);
width = 840;
}
);
unicode = 330;
},
{
glyphname = OE;
layers = (
{
anchors = (
{
name = m.uni0321_3;
position = "{791, 0}";
},
{
name = t.uni0308_1_3;
position = "{884, 700}";
},
{
name = m.uni0328_3;
position = "{900, 0}";
}
);
layerId = "2EB5F385-C357-4F50-996C-712A481EC30A";
shapes = (
{
closed = 1;
nodes = (
(166,-10,o),
(50,103,o),
(50,277,cs),
(50,519,o),
(233,710,o),
(478,710,cs),
(652,710,o),
(764,596,o),
(753,425,c),
(676,425,l),
(667,539,o),
(579,616,o),
(462,616,cs),
(283,616,o),
(154,469,o),
(154,295,cs),
(154,168,o),
(236,85,o),
(372,85,cs),
(490,85,o),
(604,161,o),
(651,275,c),
(728,275,l),
(682,104,o),
(531,-10,o),
(357,-10,cs)
);
},
{
closed = 1;
nodes = (
(1152,700,l),
(1137,610,l),
(766,610,l),
(821,658,l),
(718,43,l),
(679,91,l),
(1050,91,l),
(1035,0,l),
(605,0,l),
(722,700,l)
);
},
{
closed = 1;
nodes = (
(1102,402,l),
(1087,312,l),
(696,312,l),
(711,402,l)
);
}
);
width = 1155;
},
{
anchors = (
{
name = m.uni0321_3;
position = "{791, 0}";
},
{
name = t.uni0308_1_3;
position = "{884, 700}";
},
{
name = m.uni0328_3;
position = "{900, 0}";
}
);
layerId = "A9804AF1-4682-45A6-92D1-C6953796E638";
shapes = (
{
closed = 1;
nodes = (
(173,-10,o),
(55,103,o),
(55,278,cs),
(55,521,o),
(241,710,o),
(487,710,cs),
(664,710,o),
(777,596,o),
(766,425,c),
(729,425,l),
(717,565,o),
(615,658,o),
(478,658,cs),
(270,658,o),
(122,488,o),
(122,287,cs),
(122,139,o),
(216,43,o),
(374,43,cs),
(512,43,o),
(644,135,o),
(704,275,c),
(741,275,l),
(694,104,o),
(543,-10,o),
(366,-10,cs)
);
},
{
closed = 1;
nodes = (
(1186,700,l),
(1177,647,l),
(783,647,l),
(838,695,l),
(723,5,l),
(684,53,l),
(1078,53,l),
(1069,0,l),
(657,0,l),
(774,700,l)
);
},
{
closed = 1;
nodes = (
(1132,381,l),
(1123,328,l),
(751,328,l),
(760,381,l)
);
}
);
width = 1196;
},
{
anchors = (
{
name = m.uni0321_3;
position = "{791, 0}";
},
{
name = t.uni0308_1_3;
position = "{884, 700}";
},
{
name = m.uni0328_3;
position = "{900, 0}";
}
);
layerId = "DD9EABB0-940B-474C-A221-8151F11C5AE7";
shapes = (
{
closed = 1;
nodes = (
(153,-10,o),
(40,102,o),
(40,276,cs),
(40,513,o),
(215,710,o),
(459,710,cs),
(629,710,o),
(736,596,o),
(725,425,c),
(569,425,l),
(566,487,o),
(507,530,o),
(428,530,cs),
(305,530,o),
(220,429,o),
(220,312,cs),
(220,225,o),
(276,170,o),
(367,170,cs),
(446,170,o),
(521,213,o),
(544,275,c),
(700,275,l),
(657,104,o),
(508,-10,o),
(338,-10,cs)
);
},
{
closed = 1;
nodes = (
(1084,700,l),
(1057,534,l),
(732,534,l),
(787,582,l),
(708,118,l),
(669,166,l),
(994,166,l),
(967,0,l),
(498,0,l),
(615,700,l)
);
},
{
closed = 1;
nodes = (
(1041,446,l),
(1014,278,l),
(586,278,l),
(613,446,l)
);
}
);
width = 1071;
}
);
leftKerningGroup = C2;
unicode = 338;
},
{
glyphname = Thorn;
layers = (
{
layerId = "2EB5F385-C357-4F50-996C-712A481EC30A";
shapes = (
{
closed = 1;
nodes = (
(393,610,ls),
(521,610,o),
(612,508,o),
(590,383,cs),
(569,257,o),
(445,154,o),
(317,154,cs),
(175,154,l),
(149,0,l),
(43,0,l),
(160,700,l),
(256,700,l),
(251,610,l)
);
},
{
closed = 1;
nodes = (
(332,249,ls),
(402,249,o),
(472,310,o),
(483,383,c),
(496,455,o),
(447,516,o),
(377,516,cs),
(236,516,l),
(191,249,l)
);
}
);
width = 618;
},
{
layerId = "A9804AF1-4682-45A6-92D1-C6953796E638";
shapes = (
{
closed = 1;
nodes = (
(388,610,ls),
(512,610,o),
(599,512,o),
(578,392,cs),
(558,272,o),
(439,173,o),
(315,173,cs),
(146,173,l),
(117,0,l),
(52,0,l),
(169,700,l),
(224,700,l),
(219,610,l)
);
},
{
closed = 1;
nodes = (
(323,226,ls),
(410,226,o),
(498,302,o),
(512,392,cs),
(528,482,o),
(466,558,o),
(379,558,cs),
(211,558,l),
(155,226,l)
);
}
);
width = 609;
},
{
layerId = "DD9EABB0-940B-474C-A221-8151F11C5AE7";
shapes = (
{
closed = 1;
nodes = (
(403,610,ls),
(540,610,o),
(638,500,o),
(614,364,cs),
(592,228,o),
(458,116,o),
(321,116,cs),
(233,116,l),
(213,0,l),
(24,0,l),
(141,700,l),
(320,700,l),
(315,610,l)
);
},
{
closed = 1;
nodes = (
(350,296,ls),
(386,296,o),
(419,326,o),
(425,364,cs),
(430,402,o),
(408,430,o),
(372,430,cs),
(286,430,l),
(264,296,l)
);
}
);
width = 636;
}
);
leftKerningGroup = B;
unicode = 222;
},
{
glyphname = Germandbls;
layers = (
{
layerId = "2EB5F385-C357-4F50-996C-712A481EC30A";
shapes = (
{
closed = 1;
nodes = (
(544,436,l),
(542,436,l),
(686,430,o),
(769,358,o),
(747,226,cs),
(724,88,o),
(610,-10,o),
(460,-10,cs),
(352,-10,o),
(289,36,o),
(261,106,c),
(341,169,l),
(363,115,o),
(407,85,o),
(473,85,cs),
(559,85,o),
(627,148,o),
(641,226,c),
(653,303,o),
(589,354,o),
(483,354,cs),
(444,354,l),
(432,397,l),
(552,606,l),
(353,606,ls),
(284,606,o),
(244,570,o),
(233,499,cs),
(149,0,l),
(43,0,l),
(130,522,ls),
(147,628,o),
(235,700,o),
(345,700,cs),
(637,700,l),
(652,621,l)
);
}
);
width = 802;
},
{
layerId = "A9804AF1-4682-45A6-92D1-C6953796E638";
shapes = (
{
closed = 1;
nodes = (
(526,436,l),
(524,436,l),
(673,433,o),
(761,362,o),
(738,226,cs),
(716,92,o),
(605,-10,o),
(451,-10,cs),
(335,-10,o),
(273,43,o),
(250,121,c),
(313,150,l),
(332,81,o),
(380,43,o),
(461,43,cs),
(570,43,o),
(655,124,o),
(673,226,cs),
(689,325,o),
(612,382,o),
(488,382,cs),
(448,382,l),
(444,409,l),
(585,648,l),
(355,648,ls),
(268,648,o),
(218,603,o),
(203,513,cs),
(117,0,l),
(52,0,l),
(141,531,ls),
(158,637,o),
(235,700,o),
(345,700,cs),
(637,700,l),
(646,644,l)
);
}
);
width = 797;
},
{
layerId = "DD9EABB0-940B-474C-A221-8151F11C5AE7";
shapes = (
{
closed = 1;
nodes = (
(582,436,l),
(580,436,l),
(713,423,o),
(786,351,o),
(765,226,cs),
(741,81,o),
(621,-10,o),
(478,-10,cs),
(386,-10,o),
(321,23,o),
(282,76,c),
(398,208,l),
(425,183,o),
(462,170,o),
(496,170,cs),
(536,170,o),
(571,197,o),
(577,226,c),
(581,259,o),
(543,297,o),
(473,297,cs),
(436,297,l),
(407,374,l),
(484,520,l),
(348,520,ls),
(317,520,o),
(297,503,o),
(293,470,c),
(213,0,l),
(24,0,l),
(107,503,ls),
(125,609,o),
(236,700,o),
(345,700,cs),
(637,700,l),
(663,574,l)
);
}
);
width = 812;
}
);
unicode = 7838;
},
{
glyphname = ae;
layers = (
{
anchors = (
{
name = m.uni0321_3;
position = "{1032, 0}";
},
{
name = t.uni0308_1_3;
position = "{477, 498}";
},
{
name = m.uni0328_3;
position = "{547, -10}";
}
);
layerId = "2EB5F385-C357-4F50-996C-712A481EC30A";
shapes = (
{
closed = 1;
nodes = (
(61,-10,o),
(2,48,o),
(17,139,cs),
(32,232,o),
(114,286,o),
(237,286,cs),
(425,286,l),
(410,199,ls),
(389,75,o),
(290,-10,o),
(168,-10,cs)
);
},
{
closed = 1;
nodes = (
(272,69,o),
(327,121,o),
(340,199,cs),
(345,227,l),
(250,227,ls),
(176,227,o),
(131,198,o),
(123,147,cs),
(115,99,o),
(146,69,o),
(201,69,cs)
);
},
{
closed = 1;
nodes = (
(361,326,ls),
(372,391,o),
(346,423,o),
(282,423,cs),
(233,423,o),
(171,404,o),
(120,378,c),
(103,456,l),
(158,489,o),
(230,510,o),
(302,510,cs),
(407,510,o),
(458,445,o),
(439,336,cs),
(424,250,l),
(349,250,l)
);
},
{
closed = 1;
nodes = (
(805,287,l),
(758,258,l),
(760,265,o),
(762,271,o),
(763,276,cs),
(778,365,o),
(728,423,o),
(638,423,cs),
(542,423,o),
(470,359,o),
(453,262,cs),
(449,237,ls),
(433,141,o),
(497,78,o),
(603,77,c),
(664,78,o),
(725,102,o),
(770,141,c),
(801,73,l),
(746,22,o),
(664,-10,o),
(575,-10,cs),
(414,-10,o),
(323,95,o),
(349,250,cs),
(375,405,o),
(497,510,o),
(652,510,cs),
(799,510,o),
(884,407,o),
(859,256,cs),
(853,223,l),
(413,223,l),
(423,287,l)
);
}
);
width = 904;
},
{
anchors = (
{
name = m.uni0321_3;
position = "{1032, 0}";
},
{
name = t.uni0308_1_3;
position = "{477, 498}";
},
{
name = m.uni0328_3;
position = "{547, -10}";
}
);
layerId = "A9804AF1-4682-45A6-92D1-C6953796E638";
shapes = (
{
closed = 1;
nodes = (
(69,-10,o),
(11,48,o),
(26,134,cs),
(41,225,o),
(120,277,o),
(238,277,cs),
(424,277,l),
(411,206,l),
(390,78,o),
(293,-10,o),
(170,-10,cs)
);
},
{
closed = 1;
nodes = (
(281,46,o),
(350,110,o),
(366,206,cs),
(370,230,l),
(253,230,ls),
(159,230,o),
(105,196,o),
(95,133,cs),
(86,81,o),
(124,46,o),
(190,46,cs)
);
},
{
closed = 1;
nodes = (
(386,331,ls),
(400,413,o),
(367,456,o),
(288,456,cs),
(239,456,o),
(180,434,o),
(131,407,c),
(109,451,l),
(160,487,o),
(235,510,o),
(308,510,cs),
(407,510,o),
(455,447,o),
(437,341,cs),
(421,250,l),
(373,250,l)
);
},
{
closed = 1;
nodes = (
(861,278,l),
(812,258,l),
(813,263,o),
(814,269,o),
(815,274,cs),
(834,383,o),
(774,456,o),
(664,456,cs),
(548,456,o),
(462,380,o),
(442,264,cs),
(437,235,ls),
(418,120,o),
(492,46,o),
(614,44,c),
(679,46,o),
(747,74,o),
(793,119,c),
(823,80,l),
(771,25,o),
(684,-10,o),
(596,-10,cs),
(437,-10,o),
(348,95,o),
(374,250,cs),
(400,405,o),
(520,510,o),
(673,510,cs),
(820,510,o),
(903,411,o),
(878,261,cs),
(872,225,l),
(400,225,l),
(408,278,l)
);
}
);
width = 932;
},
{
anchors = (
{
name = m.uni0321_3;
position = "{1032, 0}";
},
{
name = t.uni0308_1_3;
position = "{477, 498}";
},
{
name = m.uni0328_3;
position = "{547, -10}";
}
);
layerId = "DD9EABB0-940B-474C-A221-8151F11C5AE7";
shapes = (
{
closed = 1;
nodes = (
(45,-11,o),
(-17,49,o),
(-1,148,cs),
(15,247,o),
(103,304,o),
(236,304,cs),
(426,304,l),
(408,183,l),
(388,68,o),
(283,-11,o),
(163,-11,cs)
);
},
{
closed = 1;
nodes = (
(255,115,o),
(281,144,o),
(288,183,c),
(293,221,l),
(244,221,ls),
(209,221,o),
(184,203,o),
(179,174,c),
(173,137,o),
(191,115,o),
(224,115,cs)
);
},
{
closed = 1;
nodes = (
(311,316,l),
(315,345,o),
(304,356,o),
(269,356,cs),
(220,356,o),
(154,342,o),
(97,319,c),
(91,465,l),
(154,494,o),
(220,510,o),
(290,510,cs),
(406,510,o),
(463,441,o),
(444,326,cs),
(431,250,l),
(299,250,l)
);
},
{
closed = 1;
nodes = (
(691,306,l),
(650,257,l),
(653,267,o),
(655,275,o),
(656,281,cs),
(664,330,o),
(636,356,o),
(586,356,cs),
(531,356,o),
(487,318,o),
(476,257,cs),
(473,241,ls),
(463,185,o),
(507,142,o),
(581,144,c),
(635,142,o),
(679,158,o),
(724,185,c),
(756,60,l),
(696,15,o),
(623,-10,o),
(534,-10,cs),
(367,-10,o),
(271,95,o),
(297,250,cs),
(323,405,o),
(450,510,o),
(611,510,cs),
(758,510,o),
(845,400,o),
(820,246,cs),
(815,218,l),
(439,218,l),
(452,306,l)
);
}
);
width = 848;
}
);
leftKerningGroup = ae;
rightKerningGroup = e;
unicode = 230;
},
{
glyphname = eth;
layers = (
{
layerId = "2EB5F385-C357-4F50-996C-712A481EC30A";
shapes = (
{
closed = 1;
nodes = (
(546,693,l),
(302,492,l),
(280,524,l),
(523,725,l)
);
},
{
closed = 1;
nodes = (
(398,439,o),
(454,396,o),
(479,345,cs),
(492,320,o),
(507,310,o),
(531,299,cs),
(552,289,o),
(561,284,o),
(565,270,c),
(537,103,o),
(417,-10,o),
(273,-10,cs),
(139,-10,o),
(46,98,o),
(68,230,cs),
(88,349,o),
(197,439,o),
(313,439,cs)
);
},
{
closed = 1;
nodes = (
(365,85,o),
(437,148,o),
(451,224,cs),
(464,301,o),
(412,363,o),
(336,363,cs),
(260,363,o),
(187,301,o),
(175,224,c),
(161,148,o),
(213,85,o),
(289,85,cs)
);
},
{
closed = 1;
nodes = (
(373,718,l),
(517,616,o),
(596,456,o),
(565,270,c),
(458,270,l),
(485,431,o),
(424,559,o),
(292,656,c)
);
}
);
width = 645;
},
{
layerId = "A9804AF1-4682-45A6-92D1-C6953796E638";
shapes = (
{
closed = 1;
nodes = (
(531,688,l),
(299,497,l),
(275,529,l),
(509,720,l)
);
},
{
closed = 1;
nodes = (
(404,439,o),
(462,394,o),
(492,340,c),
(507,318,o),
(516,308,o),
(526,299,cs),
(538,289,o),
(543,284,o),
(547,270,c),
(519,103,o),
(402,-10,o),
(264,-10,cs),
(134,-10,o),
(46,98,o),
(68,230,cs),
(88,348,o),
(200,439,o),
(315,439,cs)
);
},
{
closed = 1;
nodes = (
(366,43,o),
(456,123,o),
(473,219,cs),
(489,316,o),
(425,396,o),
(332,396,cs),
(238,396,o),
(148,316,o),
(133,219,cs),
(116,123,o),
(179,43,o),
(273,43,cs)
);
},
{
closed = 1;
nodes = (
(361,716,l),
(499,604,o),
(576,444,o),
(547,270,c),
(481,270,l),
(508,429,o),
(448,560,o),
(319,668,c)
);
}
);
width = 627;
},
{
layerId = "DD9EABB0-940B-474C-A221-8151F11C5AE7";
shapes = (
{
closed = 1;
nodes = (
(575,703,l),
(309,482,l),
(289,514,l),
(551,734,l)
);
},
{
closed = 1;
nodes = (
(386,439,o),
(438,401,o),
(451,355,cs),
(460,325,o),
(489,314,o),
(540,300,cs),
(579,289,o),
(596,283,o),
(603,270,c),
(575,103,o),
(446,-10,o),
(291,-10,cs),
(148,-10,o),
(46,98,o),
(68,230,c),
(89,350,o),
(190,439,o),
(309,439,cs)
);
},
{
closed = 1;
nodes = (
(363,170,o),
(399,198,o),
(405,234,c),
(412,269,o),
(384,296,o),
(343,296,cs),
(304,296,o),
(266,269,o),
(259,234,c),
(253,198,o),
(281,170,o),
(322,170,cs)
);
},
{
closed = 1;
nodes = (
(396,720,l),
(552,640,o),
(637,480,o),
(603,270,c),
(412,270,l),
(439,433,o),
(374,558,o),
(236,632,c)
);
}
);
width = 683;
}
);
unicode = 240;
},
{
glyphname = schwa;
layers = (
{
layerId = "2EB5F385-C357-4F50-996C-712A481EC30A";
shapes = (
{
closed = 1;
nodes = (
(84,208,l),
(136,244,l),
(132,227,o),
(128,211,o),
(128,193,cs),
(128,122,o),
(178,77,o),
(261,77,cs),
(352,77,o),
(423,140,o),
(438,232,c),
(442,253,l),
(462,355,o),
(387,418,o),
(289,420,c),
(231,418,o),
(162,393,o),
(114,356,c),
(89,428,l),
(142,477,o),
(234,510,o),
(318,510,cs),
(461,510,o),
(549,427,o),
(549,300,cs),
(549,130,o),
(420,-10,o),
(246,-10,cs),
(112,-10,o),
(30,70,o),
(30,193,cs),
(30,210,o),
(31,226,o),
(34,244,cs),
(40,277,l),
(464,277,l),
(450,209,l)
);
}
);
width = 591;
},
{
layerId = "A9804AF1-4682-45A6-92D1-C6953796E638";
shapes = (
{
closed = 1;
nodes = (
(59,215,l),
(113,253,l),
(108,233,o),
(105,212,o),
(105,191,cs),
(105,101,o),
(165,44,o),
(267,44,cs),
(374,44,o),
(460,120,o),
(478,232,cs),
(482,260,ls),
(500,380,o),
(428,455,o),
(306,457,c),
(244,455,o),
(173,425,o),
(129,380,c),
(97,418,l),
(147,474,o),
(239,510,o),
(324,510,cs),
(465,510,o),
(551,428,o),
(551,301,cs),
(551,136,o),
(429,-10,o),
(258,-10,cs),
(122,-10,o),
(39,68,o),
(39,190,cs),
(39,206,o),
(40,222,o),
(43,239,cs),
(49,275,l),
(503,275,l),
(493,216,l)
);
}
);
width = 603;
},
{
layerId = "DD9EABB0-940B-474C-A221-8151F11C5AE7";
shapes = (
{
closed = 1;
nodes = (
(135,195,l),
(182,226,l),
(178,217,o),
(177,206,o),
(177,197,cs),
(177,165,o),
(202,144,o),
(249,144,cs),
(306,144,o),
(349,179,o),
(358,233,c),
(359,237,l),
(367,300,o),
(329,344,o),
(254,344,cs),
(204,344,o),
(139,329,o),
(85,306,c),
(73,449,l),
(132,484,o),
(224,510,o),
(305,510,cs),
(453,510,o),
(544,427,o),
(544,299,cs),
(544,120,o),
(399,-10,o),
(223,-10,cs),
(91,-10,o),
(12,72,o),
(12,198,cs),
(12,216,o),
(14,235,o),
(17,254,cs),
(22,282,l),
(384,282,l),
(364,196,l)
);
}
);
width = 568;
}
);
unicode = 601;
},
{
glyphname = dotlessi;
layers = (
{
anchors = (
{
name = m.uni0321_3;
position = "{81, 0}";
},
{
name = t.uni0308_1_3;
position = "{163, 500}";
},
{
name = m.uni0328_3;
position = "{95, 0}";
}
);
layerId = "2EB5F385-C357-4F50-996C-712A481EC30A";
shapes = (
{
closed = 1;
nodes = (
(203,500,l),
(119,0,l),
(16,0,l),
(100,500,l)
);
}
);
width = 229;
},
{
anchors = (
{
name = m.uni0321_3;
position = "{81, 0}";
},
{
name = t.uni0308_1_3;
position = "{163, 500}";
},
{
name = m.uni0328_3;
position = "{95, 0}";
}
);
layerId = "A9804AF1-4682-45A6-92D1-C6953796E638";
shapes = (
{
closed = 1;
nodes = (
(174,500,l),
(90,0,l),
(25,0,l),
(109,500,l)
);
}
);
width = 209;
},
{
anchors = (
{
name = m.uni0321_3;
position = "{81, 0}";
},
{
name = t.uni0308_1_3;
position = "{163, 500}";
},
{
name = m.uni0328_3;
position = "{95, 0}";
}
);
layerId = "DD9EABB0-940B-474C-A221-8151F11C5AE7";
shapes = (
{
closed = 1;
nodes = (
(260,500,l),
(176,0,l),
(-1,0,l),
(83,500,l)
);
}
);
width = 270;
}
);
leftKerningGroup = i.TRK;
rightKerningGroup = i1;
unicode = 305;
},
{
glyphname = dotlessj;
layers = (
{
anchors = (
{
name = t.uni0308_1_3;
position = "{209, 500}";
}
);
layerId = "2EB5F385-C357-4F50-996C-712A481EC30A";
shapes = (
{
closed = 1;
nodes = (
(-63,-156,l),
(-7,-146,o),
(26,-110,o),
(36,-49,cs),
(128,500,l),
(231,500,l),
(139,-49,ls),
(121,-158,o),
(63,-216,o),
(-42,-239,c)
);
}
);
width = 257;
},
{
anchors = (
{
name = t.uni0308_1_3;
position = "{209, 500}";
}
);
layerId = "A9804AF1-4682-45A6-92D1-C6953796E638";
shapes = (
{
closed = 1;
nodes = (
(-68,-184,l),
(-16,-177,o),
(15,-144,o),
(25,-86,cs),
(123,500,l),
(190,500,l),
(92,-86,ls),
(76,-179,o),
(29,-219,o),
(-61,-239,c)
);
}
);
width = 224;
},
{
anchors = (
{
name = t.uni0308_1_3;
position = "{209, 500}";
}
);
layerId = "DD9EABB0-940B-474C-A221-8151F11C5AE7";
shapes = (
{
closed = 1;
nodes = (
(-53,-100,l),
(11,-82,o),
(47,-40,o),
(58,26,cs),
(138,500,l),
(315,500,l),
(235,26,ls),
(211,-116,o),
(131,-209,o),
(-4,-240,c)
);
}
);
width = 325;
}
);
leftKerningGroup = dotlessj;
rightKerningGroup = ij;
unicode = 567;
},
{
glyphname = kgreenlandic;
layers = (
{
layerId = "2EB5F385-C357-4F50-996C-712A481EC30A";
shapes = (
{
closed = 1;
nodes = (
(287,260,l),
(485,0,l),
(345,0,l),
(167,261,l),
(409,500,l),
(549,500,l)
);
},
{
closed = 1;
nodes = (
(210,500,l),
(126,0,l),
(23,0,l),
(107,500,l)
);
}
);
width = 543;
},
{
layerId = "A9804AF1-4682-45A6-92D1-C6953796E638";
shapes = (
{
closed = 1;
nodes = (
(223,260,l),
(449,0,l),
(345,0,l),
(139,261,l),
(409,500,l),
(512,500,l)
);
},
{
closed = 1;
nodes = (
(182,500,l),
(98,0,l),
(32,0,l),
(116,500,l)
);
}
);
width = 507;
},
{
layerId = "DD9EABB0-940B-474C-A221-8151F11C5AE7";
shapes = (
{
closed = 1;
nodes = (
(417,260,l),
(559,0,l),
(345,0,l),
(223,261,l),
(409,500,l),
(624,500,l)
);
},
{
closed = 1;
nodes = (
(266,500,l),
(182,0,l),
(5,0,l),
(89,500,l)
);
}
);
width = 617;
}
);
rightKerningGroup = k;
unicode = 312;
},
{
glyphname = nhookleft;
layers = (
{
anchors = (
{
name = m.uni0321_3;
position = "{297, 0}";
},
{
name = t.uni0308_1_3;
position = "{377, 500}";
}
);
layerId = "2EB5F385-C357-4F50-996C-712A481EC30A";
shapes = (
{
closed = 1;
nodes = (
(-63,-157,l),
(-7,-146,o),
(26,-110,o),
(36,-50,cs),
(94,299,l),
(197,299,l),
(139,-50,ls),
(121,-158,o),
(62,-216,o),
(-42,-240,c)
);
},
{
closed = 1;
nodes = (
(437,286,ls),
(453,379,o),
(417,423,o),
(350,423,cs),
(282,423,o),
(211,379,o),
(193,276,c),
(156,276,l),
(183,437,o),
(286,510,o),
(392,510,cs),
(502,510,o),
(566,437,o),
(542,297,cs),
(492,0,l),
(389,0,l)
);
},
{
closed = 1;
nodes = (
(128,500,l),
(231,500,l),
(147,0,l),
(44,0,l)
);
}
);
width = 600;
},
{
anchors = (
{
name = m.uni0321_3;
position = "{297, 0}";
},
{
name = t.uni0308_1_3;
position = "{377, 500}";
}
);
layerId = "A9804AF1-4682-45A6-92D1-C6953796E638";
shapes = (
{
closed = 1;
nodes = (
(-68,-185,l),
(-16,-178,o),
(15,-145,o),
(25,-87,cs),
(89,299,l),
(156,299,l),
(92,-87,ls),
(76,-180,o),
(28,-220,o),
(-61,-240,c)
);
},
{
closed = 1;
nodes = (
(443,291,ls),
(462,407,o),
(417,456,o),
(342,456,cs),
(265,456,o),
(175,409,o),
(153,281,c),
(120,281,l),
(147,446,o),
(252,510,o),
(355,510,cs),
(466,510,o),
(535,442,o),
(509,288,cs),
(460,0,l),
(394,0,l)
);
},
{
closed = 1;
nodes = (
(123,500,l),
(190,500,l),
(106,0,l),
(39,0,l)
);
}
);
width = 577;
},
{
anchors = (
{
name = m.uni0321_3;
position = "{297, 0}";
},
{
name = t.uni0308_1_3;
position = "{377, 500}";
}
);
layerId = "DD9EABB0-940B-474C-A221-8151F11C5AE7";
shapes = (
{
closed = 1;
nodes = (
(-53,-100,l),
(11,-82,o),
(47,-40,o),
(58,27,cs),
(104,300,l),
(281,300,l),
(235,27,ls),
(211,-114,o),
(131,-209,o),
(-4,-240,c)
);
},
{
closed = 1;
nodes = (
(426,276,ls),
(434,321,o),
(418,356,o),
(367,356,cs),
(315,356,o),
(284,317,o),
(274,266,c),
(229,266,l),
(255,420,o),
(354,510,o),
(467,510,cs),
(575,510,o),
(628,426,o),
(610,316,cs),
(556,0,l),
(379,0,l)
);
},
{
closed = 1;
nodes = (
(138,500,l),
(315,500,l),
(231,0,l),
(54,0,l)
);
}
);
width = 646;
}
);
leftKerningGroup = dotlessj;
unicode = 626;
},
{
glyphname = eng;
layers = (
{
anchors = (
{
name = m.uni0321_3;
position = "{257, 0}";
},
{
name = t.uni0308_1_3;
position = "{337, 500}";
}
);
layerId = "2EB5F385-C357-4F50-996C-712A481EC30A";
shapes = (
{
closed = 1;
nodes = (
(261,-157,l),
(318,-146,o),
(350,-110,o),
(360,-50,cs),
(418,299,l),
(521,299,l),
(463,-50,ls),
(445,-158,o),
(386,-216,o),
(282,-240,c)
);
},
{
closed = 1;
nodes = (
(416,286,ls),
(431,379,o),
(396,423,o),
(329,423,cs),
(261,423,o),
(190,379,o),
(172,276,c),
(135,276,l),
(162,437,o),
(264,510,o),
(372,510,cs),
(480,510,o),
(544,437,o),
(522,297,cs),
(471,0,l),
(368,0,l)
);
},
{
closed = 1;
nodes = (
(107,500,l),
(210,500,l),
(126,0,l),
(23,0,l)
);
}
);
width = 578;
},
{
anchors = (
{
name = m.uni0321_3;
position = "{257, 0}";
},
{
name = t.uni0308_1_3;
position = "{337, 500}";
}
);
layerId = "A9804AF1-4682-45A6-92D1-C6953796E638";
shapes = (
{
closed = 1;
nodes = (
(279,-185,l),
(332,-178,o),
(362,-145,o),
(372,-87,cs),
(436,299,l),
(503,299,l),
(439,-87,ls),
(423,-180,o),
(375,-220,o),
(286,-240,c)
);
},
{
closed = 1;
nodes = (
(435,291,ls),
(454,407,o),
(409,456,o),
(334,456,cs),
(258,456,o),
(167,409,o),
(145,281,c),
(113,281,l),
(140,446,o),
(244,510,o),
(349,510,cs),
(458,510,o),
(527,442,o),
(502,288,cs),
(453,0,l),
(386,0,l)
);
},
{
closed = 1;
nodes = (
(116,500,l),
(182,500,l),
(98,0,l),
(32,0,l)
);
}
);
width = 569;
},
{
anchors = (
{
name = m.uni0321_3;
position = "{257, 0}";
},
{
name = t.uni0308_1_3;
position = "{337, 500}";
}
);
layerId = "DD9EABB0-940B-474C-A221-8151F11C5AE7";
shapes = (
{
closed = 1;
nodes = (
(225,-100,l),
(289,-82,o),
(325,-40,o),
(336,27,cs),
(382,300,l),
(559,300,l),
(513,27,ls),
(489,-114,o),
(409,-209,o),
(274,-240,c)
);
},
{
closed = 1;
nodes = (
(377,276,ls),
(385,321,o),
(369,356,o),
(318,356,cs),
(266,356,o),
(235,317,o),
(227,266,c),
(180,266,l),
(206,420,o),
(305,510,o),
(418,510,cs),
(525,510,o),
(579,426,o),
(561,316,cs),
(509,0,l),
(332,0,l)
);
},
{
closed = 1;
nodes = (
(89,500,l),
(266,500,l),
(182,0,l),
(5,0,l)
);
}
);
width = 597;
}
);
leftKerningGroup = m;
unicode = 331;
},
{
glyphname = oe;
layers = (
{
anchors = (
{
name = m.uni0321_3;
position = "{640, 0}";
},
{
name = t.uni0308_1_3;
position = "{714, 500}";
},
{
name = m.uni0328_3;
position = "{638, -10}";
}
);
layerId = "2EB5F385-C357-4F50-996C-712A481EC30A";
shapes = (
{
closed = 1;
nodes = (
(114,-10,o),
(31,72,o),
(31,197,cs),
(31,370,o),
(160,510,o),
(337,510,cs),
(468,510,o),
(549,429,o),
(549,304,cs),
(549,135,o),
(425,-10,o),
(250,-10,cs)
);
},
{
closed = 1;
nodes = (
(390,81,o),
(469,175,o),
(469,286,cs),
(469,368,o),
(417,420,o),
(331,420,cs),
(215,420,o),
(135,327,o),
(135,216,cs),
(135,134,o),
(187,81,o),
(274,81,cs)
);
},
{
closed = 1;
nodes = (
(922,287,l),
(875,258,l),
(881,272,o),
(883,292,o),
(883,306,cs),
(883,378,o),
(834,423,o),
(755,423,cs),
(661,423,o),
(587,359,o),
(571,262,c),
(566,237,l),
(565,228,o),
(564,218,o),
(564,210,cs),
(564,129,o),
(625,78,o),
(721,77,c),
(781,78,o),
(842,102,o),
(888,141,c),
(918,73,l),
(864,22,o),
(781,-10,o),
(692,-10,cs),
(549,-10,o),
(462,72,o),
(462,199,cs),
(462,371,o),
(594,510,o),
(769,510,cs),
(899,510,o),
(980,430,o),
(980,307,cs),
(980,291,o),
(979,274,o),
(976,256,cs),
(971,223,l),
(529,223,l),
(540,287,l)
);
}
);
width = 1022;
},
{
anchors = (
{
name = m.uni0321_3;
position = "{640, 0}";
},
{
name = t.uni0308_1_3;
position = "{714, 500}";
},
{
name = m.uni0328_3;
position = "{638, -10}";
}
);
layerId = "A9804AF1-4682-45A6-92D1-C6953796E638";
shapes = (
{
closed = 1;
nodes = (
(127,-10,o),
(41,72,o),
(41,199,cs),
(41,376,o),
(178,510,o),
(356,510,cs),
(491,510,o),
(576,428,o),
(576,302,cs),
(576,130,o),
(444,-10,o),
(269,-10,cs)
);
},
{
closed = 1;
nodes = (
(418,43,o),
(516,158,o),
(516,294,cs),
(516,393,o),
(451,457,o),
(346,457,cs),
(205,457,o),
(107,343,o),
(107,207,cs),
(107,107,o),
(171,43,o),
(277,43,cs)
);
},
{
closed = 1;
nodes = (
(999,278,l),
(949,258,l),
(954,272,o),
(956,298,o),
(956,312,cs),
(956,400,o),
(898,456,o),
(801,456,cs),
(687,456,o),
(599,380,o),
(580,264,c),
(574,235,l),
(572,223,o),
(571,212,o),
(571,202,cs),
(571,106,o),
(642,46,o),
(752,44,c),
(817,46,o),
(885,74,o),
(932,119,c),
(961,80,l),
(909,25,o),
(821,-10,o),
(733,-10,cs),
(593,-10,o),
(508,72,o),
(508,198,cs),
(508,368,o),
(636,510,o),
(810,510,cs),
(940,510,o),
(1020,433,o),
(1020,312,cs),
(1020,296,o),
(1019,279,o),
(1016,261,cs),
(1010,225,l),
(537,225,l),
(546,278,l)
);
}
);
width = 1070;
},
{
anchors = (
{
name = m.uni0321_3;
position = "{640, 0}";
},
{
name = t.uni0308_1_3;
position = "{714, 500}";
},
{
name = m.uni0328_3;
position = "{638, -10}";
}
);
layerId = "DD9EABB0-940B-474C-A221-8151F11C5AE7";
shapes = (
{
closed = 1;
nodes = (
(87,-10,o),
(12,70,o),
(12,193,cs),
(12,357,o),
(126,510,o),
(299,510,cs),
(421,510,o),
(493,430,o),
(493,309,cs),
(493,147,o),
(385,-10,o),
(212,-10,cs)
);
},
{
closed = 1;
nodes = (
(331,156,o),
(376,208,o),
(376,269,cs),
(376,315,o),
(348,344,o),
(299,344,cs),
(234,344,o),
(192,292,o),
(192,229,cs),
(192,185,o),
(221,156,o),
(268,156,cs)
);
},
{
closed = 1;
nodes = (
(767,306,l),
(726,257,l),
(729,271,o),
(732,281,o),
(732,296,cs),
(732,336,o),
(705,356,o),
(662,356,cs),
(608,356,o),
(564,318,o),
(553,257,cs),
(550,241,ls),
(537,167,o),
(591,114,o),
(688,115,c),
(692,133,o),
(681,144,o),
(663,144,c),
(713,144,o),
(757,159,o),
(798,185,c),
(832,60,l),
(772,15,o),
(698,-10,o),
(608,-10,cs),
(460,-10,o),
(370,73,o),
(370,200,cs),
(370,377,o),
(509,510,o),
(685,510,cs),
(815,510,o),
(900,423,o),
(900,296,cs),
(900,280,o),
(899,263,o),
(896,246,cs),
(891,218,l),
(513,218,l),
(528,306,l)
);
}
);
width = 925;
}
);
leftKerningGroup = a2;
rightKerningGroup = e;
unicode = 339;
},
{
glyphname = thorn;
layers = (
{
layerId = "2EB5F385-C357-4F50-996C-712A481EC30A";
shapes = (
{
closed = 1;
nodes = (
(193,397,l),
(128,250,l),
(142,102,l),
(86,-240,l),
(-17,-240,l),
(150,760,l),
(243,760,l)
);
},
{
closed = 1;
nodes = (
(511,510,o),
(594,429,o),
(594,303,cs),
(594,136,o),
(468,-10,o),
(295,-10,cs),
(176,-10,o),
(106,69,o),
(106,190,cs),
(106,349,o),
(210,510,o),
(382,510,cs)
);
},
{
closed = 1;
nodes = (
(411,77,o),
(488,176,o),
(488,288,cs),
(488,371,o),
(436,423,o),
(351,423,cs),
(234,423,o),
(155,325,o),
(155,213,cs),
(155,130,o),
(206,77,o),
(293,77,cs)
);
}
);
width = 635;
},
{
layerId = "A9804AF1-4682-45A6-92D1-C6953796E638";
shapes = (
{
closed = 1;
nodes = (
(163,388,l),
(100,250,l),
(116,111,l),
(58,-240,l),
(-8,-240,l),
(159,760,l),
(215,760,l)
);
},
{
closed = 1;
nodes = (
(518,510,o),
(603,428,o),
(603,302,cs),
(603,129,o),
(471,-10,o),
(295,-10,cs),
(164,-10,o),
(83,71,o),
(83,196,cs),
(83,365,o),
(207,510,o),
(382,510,cs)
);
},
{
closed = 1;
nodes = (
(438,44,o),
(535,157,o),
(535,294,cs),
(535,392,o),
(471,456,o),
(365,456,cs),
(226,456,o),
(126,343,o),
(126,208,cs),
(126,108,o),
(190,44,o),
(296,44,cs)
);
}
);
width = 653;
},
{
layerId = "DD9EABB0-940B-474C-A221-8151F11C5AE7";
shapes = (
{
closed = 1;
nodes = (
(253,416,l),
(184,250,l),
(195,83,l),
(142,-240,l),
(-35,-240,l),
(132,760,l),
(299,760,l)
);
},
{
closed = 1;
nodes = (
(499,510,o),
(575,430,o),
(575,307,cs),
(575,149,o),
(464,-10,o),
(295,-10,cs),
(200,-10,o),
(151,61,o),
(151,174,cs),
(151,311,o),
(220,510,o),
(382,510,cs)
);
},
{
closed = 1;
nodes = (
(355,144,o),
(395,214,o),
(395,276,cs),
(395,326,o),
(368,356,o),
(322,356,cs),
(251,356,o),
(212,289,o),
(212,225,cs),
(212,176,o),
(239,144,o),
(286,144,cs)
);
}
);
width = 599;
}
);
rightKerningGroup = b;
unicode = 254;
},
{
glyphname = germandbls;
layers = (
{
layerId = "2EB5F385-C357-4F50-996C-712A481EC30A";
shapes = (
{
closed = 1;
nodes = (
(60,410,l),
(75,500,l),
(193,500,l),
(178,410,l)
);
},
{
closed = 1;
nodes = (
(184,560,ls),
(205,687,o),
(293,760,o),
(429,760,cs),
(550,760,o),
(609,711,o),
(609,650,cs),
(609,577,o),
(537,548,o),
(537,478,cs),
(537,447,o),
(562,425,o),
(609,391,cs),
(668,347,o),
(721,300,o),
(721,221,cs),
(721,89,o),
(607,-10,o),
(478,-10,cs),
(394,-10,o),
(340,20,o),
(303,75,c),
(368,151,l),
(401,106,o),
(443,81,o),
(494,81,cs),
(563,81,o),
(618,142,o),
(618,210,cs),
(618,252,o),
(588,280,o),
(532,322,cs),
(488,355,o),
(435,394,o),
(435,455,cs),
(435,536,o),
(507,580,o),
(507,623,cs),
(507,652,o),
(475,673,o),
(414,673,cs),
(345,673,o),
(299,632,o),
(287,556,cs),
(193,0,l),
(90,0,l)
);
}
);
width = 774;
},
{
layerId = "A9804AF1-4682-45A6-92D1-C6953796E638";
shapes = (
{
closed = 1;
nodes = (
(66,447,l),
(75,500,l),
(193,500,l),
(184,447,l)
);
},
{
closed = 1;
nodes = (
(184,560,ls),
(206,692,o),
(291,760,o),
(424,760,cs),
(536,760,o),
(594,711,o),
(593,650,cs),
(593,579,o),
(514,549,o),
(514,476,cs),
(514,438,o),
(542,412,o),
(596,372,cs),
(647,332,o),
(702,290,o),
(702,217,cs),
(702,87,o),
(585,-10,o),
(460,-10,cs),
(365,-10,o),
(315,24,o),
(285,84,c),
(342,121,l),
(365,74,o),
(408,43,o),
(469,43,cs),
(560,43,o),
(636,122,o),
(636,212,cs),
(636,257,o),
(606,287,o),
(547,331,cs),
(500,367,o),
(447,407,o),
(447,472,cs),
(447,558,o),
(533,602,o),
(533,645,cs),
(533,680,o),
(488,706,o),
(415,706,cs),
(325,706,o),
(266,655,o),
(251,561,cs),
(157,0,l),
(90,0,l)
);
}
);
width = 765;
},
{
layerId = "DD9EABB0-940B-474C-A221-8151F11C5AE7";
shapes = (
{
closed = 1;
nodes = (
(47,334,l),
(75,500,l),
(194,500,l),
(166,334,l)
);
},
{
closed = 1;
nodes = (
(184,560,ls),
(204,677,o),
(298,760,o),
(439,760,cs),
(580,760,o),
(639,707,o),
(639,644,cs),
(639,579,o),
(583,537,o),
(583,484,cs),
(583,466,o),
(601,452,o),
(636,429,c),
(709,377,o),
(760,323,o),
(760,232,cs),
(760,94,o),
(654,-10,o),
(516,-10,cs),
(452,-10,o),
(391,12,o),
(341,56,c),
(421,211,l),
(473,170,o),
(515,156,o),
(544,156,cs),
(569,156,o),
(580,183,o),
(580,204,cs),
(580,242,o),
(552,267,o),
(500,305,c),
(463,332,o),
(411,369,o),
(411,423,cs),
(411,466,o),
(454,538,o),
(454,577,cs),
(454,595,o),
(445,606,o),
(413,606,cs),
(386,606,o),
(366,586,o),
(359,546,cs),
(267,0,l),
(90,0,l)
);
}
);
width = 793;
}
);
unicode = 223;
},
{
glyphname = f_joint;
layers = (
{
layerId = "2EB5F385-C357-4F50-996C-712A481EC30A";
shapes = (
{
closed = 1;
nodes = (
(52,500,l),
(428,500,l),
(413,413,l),
(38,413,l)
);
},
{
closed = 1;
nodes = (
(160,564,ls),
(179,679,o),
(253,740,o),
(368,740,cs),
(444,740,o),
(502,707,o),
(529,669,c),
(477,609,l),
(450,635,o),
(407,653,o),
(360,653,cs),
(307,653,o),
(273,621,o),
(263,561,cs),
(169,0,l),
(66,0,l)
);
}
);
width = 300;
},
{
layerId = "A9804AF1-4682-45A6-92D1-C6953796E638";
shapes = (
{
closed = 1;
nodes = (
(57,500,l),
(409,500,l),
(400,446,l),
(48,446,l)
);
},
{
closed = 1;
nodes = (
(168,583,ls),
(185,685,o),
(250,740,o),
(349,740,cs),
(422,740,o),
(469,712,o),
(494,682,c),
(460,646,l),
(437,667,o),
(389,686,o),
(338,686,cs),
(284,686,o),
(245,650,o),
(234,584,cs),
(136,0,l),
(71,0,l)
);
}
);
width = 272;
},
{
layerId = "DD9EABB0-940B-474C-A221-8151F11C5AE7";
shapes = (
{
closed = 1;
nodes = (
(42,500,l),
(466,500,l),
(440,346,l),
(16,346,l)
);
},
{
closed = 1;
nodes = (
(144,526,ls),
(168,667,o),
(258,740,o),
(406,740,cs),
(488,740,o),
(568,696,o),
(598,641,c),
(511,535,l),
(477,569,o),
(445,586,o),
(405,586,cs),
(354,586,o),
(329,563,o),
(320,514,cs),
(235,0,l),
(56,0,l)
);
}
);
width = 356;
}
);
leftKerningGroup = f2;
},
{
glyphname = fi;
layers = (
{
layerId = "2EB5F385-C357-4F50-996C-712A481EC30A";
shapes = (
{
closed = 1;
nodes = (
(52,500,l),
(493,500,l),
(478,413,l),
(38,413,l)
);
},
{
closed = 1;
nodes = (
(469,500,l),
(572,500,l),
(488,0,l),
(385,0,l)
);
},
{
closed = 1;
nodes = (
(163,577,ls),
(183,698,o),
(262,760,o),
(392,760,cs),
(479,760,o),
(547,733,o),
(596,693,c),
(543,615,l),
(498,652,o),
(445,673,o),
(385,673,cs),
(317,673,o),
(276,642,o),
(264,573,cs),
(169,0,l),
(66,0,l)
);
}
);
width = 599;
},
{
layerId = "A9804AF1-4682-45A6-92D1-C6953796E638";
shapes = (
{
closed = 1;
nodes = (
(57,500,l),
(479,500,l),
(470,446,l),
(48,446,l)
);
},
{
closed = 1;
nodes = (
(455,500,l),
(521,500,l),
(437,0,l),
(371,0,l)
);
},
{
closed = 1;
nodes = (
(172,605,ls),
(189,706,o),
(252,760,o),
(359,760,cs),
(435,760,o),
(502,736,o),
(543,702,c),
(506,652,l),
(466,685,o),
(406,706,o),
(349,706,cs),
(287,706,o),
(249,673,o),
(237,606,cs),
(136,0,l),
(71,0,l)
);
}
);
width = 557;
},
{
layerId = "DD9EABB0-940B-474C-A221-8151F11C5AE7";
shapes = (
{
closed = 1;
nodes = (
(42,500,l),
(520,500,l),
(494,346,l),
(16,346,l)
);
},
{
closed = 1;
nodes = (
(497,500,l),
(674,500,l),
(590,0,l),
(413,0,l)
);
},
{
closed = 1;
nodes = (
(144,520,ls),
(171,682,o),
(283,760,o),
(458,760,cs),
(569,760,o),
(638,727,o),
(704,675,c),
(618,541,l),
(562,585,o),
(523,606,o),
(457,606,cs),
(379,606,o),
(332,579,o),
(320,506,cs),
(235,0,l),
(56,0,l)
);
}
);
width = 684;
}
);
leftKerningGroup = f2;
rightKerningGroup = i;
unicode = 64257;
},
{
glyphname = fl;
layers = (
{
layerId = "2EB5F385-C357-4F50-996C-712A481EC30A";
shapes = (
{
closed = 1;
nodes = (
(634,760,l),
(507,0,l),
(405,0,l),
(512,644,l),
(559,760,l)
);
},
{
closed = 1;
nodes = (
(52,500,l),
(376,500,l),
(362,413,l),
(38,413,l)
);
},
{
closed = 1;
nodes = (
(164,584,ls),
(183,698,o),
(258,760,o),
(371,760,cs),
(457,760,o),
(528,711,o),
(557,650,c),
(504,589,l),
(468,643,o),
(415,673,o),
(363,673,cs),
(310,673,o),
(276,641,o),
(266,581,cs),
(169,0,l),
(66,0,l)
);
}
);
width = 630;
},
{
layerId = "A9804AF1-4682-45A6-92D1-C6953796E638";
shapes = (
{
closed = 1;
nodes = (
(584,760,l),
(457,0,l),
(391,0,l),
(501,663,l),
(536,760,l)
);
},
{
closed = 1;
nodes = (
(57,500,l),
(349,500,l),
(340,446,l),
(48,446,l)
);
},
{
closed = 1;
nodes = (
(171,603,ls),
(189,705,o),
(252,760,o),
(352,760,cs),
(430,760,o),
(502,711,o),
(529,650,c),
(495,613,l),
(452,674,o),
(398,706,o),
(341,706,cs),
(287,706,o),
(248,670,o),
(237,604,cs),
(136,0,l),
(71,0,l)
);
}
);
width = 589;
},
{
layerId = "DD9EABB0-940B-474C-A221-8151F11C5AE7";
shapes = (
{
closed = 1;
nodes = (
(736,760,l),
(609,0,l),
(432,0,l),
(534,606,l),
(606,760,l)
);
},
{
closed = 1;
nodes = (
(42,500,l),
(432,500,l),
(406,346,l),
(16,346,l)
);
},
{
closed = 1;
nodes = (
(148,546,ls),
(171,685,o),
(269,760,o),
(409,760,cs),
(513,760,o),
(581,711,o),
(613,650,c),
(523,542,l),
(500,580,o),
(449,606,o),
(408,606,cs),
(357,606,o),
(332,583,o),
(323,534,c),
(235,0,l),
(56,0,l)
);
}
);
width = 713;
}
);
leftKerningGroup = f2;
rightKerningGroup = fl;
unicode = 64258;
},
{
glyphname = ordfeminine;
layers = (
{
anchors = (
{
name = m.uni0321_3;
position = "{195, 343}";
},
{
name = t.uni0308_1_3;
position = "{246, 626}";
},
{
name = m.uni0328_3;
position = "{305, 343}";
}
);
layerId = "2EB5F385-C357-4F50-996C-712A481EC30A";
shapes = (
{
closed = 1;
nodes = (
(220,398,l),
(240,523,l),
(248,563,o),
(230,582,o),
(188,582,cs),
(161,582,o),
(129,571,o),
(103,554,c),
(90,599,l),
(126,620,o),
(169,631,o),
(212,631,cs),
(281,631,o),
(309,593,o),
(300,529,cs),
(269,343,l),
(213,343,l)
);
},
{
closed = 1;
nodes = (
(139,480,o),
(108,459,o),
(108,422,cs),
(108,398,o),
(127,382,o),
(158,382,cs),
(195,382,o),
(221,404,o),
(227,442,c),
(246,442,l),
(235,376,o),
(194,337,o),
(134,337,cs),
(82,337,o),
(49,366,o),
(49,411,cs),
(49,481,o),
(107,516,o),
(172,516,cs),
(204,516,o),
(220,512,o),
(244,498,c),
(238,462,l),
(220,475,o),
(202,480,o),
(174,480,cs)
);
}
);
width = 367;
},
{
anchors = (
{
name = m.uni0321_3;
position = "{195, 343}";
},
{
name = t.uni0308_1_3;
position = "{246, 626}";
},
{
name = m.uni0328_3;
position = "{305, 343}";
}
);
layerId = "A9804AF1-4682-45A6-92D1-C6953796E638";
shapes = (
{
closed = 1;
nodes = (
(231,396,l),
(253,531,ls),
(261,578,o),
(242,600,o),
(192,600,cs),
(164,600,o),
(130,587,o),
(106,568,c),
(91,596,l),
(125,618,o),
(167,631,o),
(208,631,cs),
(270,631,o),
(301,596,o),
(292,537,cs),
(259,343,l),
(222,343,l)
);
},
{
closed = 1;
nodes = (
(125,485,o),
(88,462,o),
(88,416,cs),
(88,388,o),
(111,369,o),
(148,369,cs),
(198,369,o),
(231,394,o),
(238,438,c),
(257,438,l),
(247,375,o),
(203,337,o),
(139,337,cs),
(84,337,o),
(50,366,o),
(50,411,cs),
(50,482,o),
(110,515,o),
(174,515,cs),
(212,515,o),
(225,511,o),
(255,491,c),
(250,462,l),
(229,478,o),
(204,485,o),
(168,485,cs)
);
}
);
width = 376;
},
{
anchors = (
{
name = m.uni0321_3;
position = "{195, 343}";
},
{
name = t.uni0308_1_3;
position = "{246, 626}";
},
{
name = m.uni0328_3;
position = "{305, 343}";
}
);
layerId = "DD9EABB0-940B-474C-A221-8151F11C5AE7";
shapes = (
{
closed = 1;
nodes = (
(198,401,l),
(216,507,ls),
(219,531,o),
(208,544,o),
(182,544,cs),
(158,544,o),
(128,538,o),
(98,525,c),
(90,605,l),
(130,622,o),
(177,631,o),
(221,631,cs),
(297,631,o),
(329,582,o),
(317,512,c),
(288,343,l),
(195,343,l)
);
},
{
closed = 1;
nodes = (
(168,469,o),
(150,453,o),
(150,432,cs),
(150,418,o),
(161,408,o),
(178,408,cs),
(192,408,o),
(202,424,o),
(206,449,c),
(224,449,l),
(212,376,o),
(178,337,o),
(125,337,cs),
(77,337,o),
(49,366,o),
(49,410,cs),
(49,478,o),
(104,519,o),
(169,519,cs),
(189,519,o),
(210,515,o),
(223,511,c),
(214,462,l),
(204,467,o),
(199,469,o),
(187,469,cs)
);
}
);
width = 349;
}
);
unicode = 170;
},
{
glyphname = ordmasculine;
layers = (
{
anchors = (
{
name = m.uni0321_3;
position = "{190, 340}";
},
{
name = t.uni0308_1_3;
position = "{237, 622}";
},
{
name = t.uni0335_2;
position = "{213, 481}";
},
{
name = m.uni0328_3;
position = "{189, 334}";
},
{
name = t.uni031B_3;
position = "{334, 587}";
}
);
layerId = "2EB5F385-C357-4F50-996C-712A481EC30A";
shapes = (
{
closed = 1;
nodes = (
(322,628,o),
(371,582,o),
(371,510,cs),
(371,411,o),
(294,334,o),
(194,334,cs),
(115,334,o),
(66,381,o),
(66,452,cs),
(66,552,o),
(143,628,o),
(243,628,cs)
);
},
{
closed = 1;
nodes = (
(269,383,o),
(313,439,o),
(313,503,cs),
(313,549,o),
(283,579,o),
(235,579,cs),
(169,579,o),
(124,523,o),
(124,460,cs),
(124,413,o),
(153,383,o),
(202,383,cs)
);
}
);
width = 373;
},
{
anchors = (
{
name = m.uni0321_3;
position = "{190, 340}";
},
{
name = t.uni0308_1_3;
position = "{237, 622}";
},
{
name = t.uni0335_2;
position = "{213, 481}";
},
{
name = m.uni0328_3;
position = "{189, 334}";
},
{
name = t.uni031B_3;
position = "{334, 587}";
}
);
layerId = "A9804AF1-4682-45A6-92D1-C6953796E638";
shapes = (
{
closed = 1;
nodes = (
(327,628,o),
(377,582,o),
(377,510,cs),
(377,411,o),
(299,334,o),
(199,334,cs),
(120,334,o),
(71,381,o),
(71,452,cs),
(71,552,o),
(148,628,o),
(248,628,cs)
);
},
{
closed = 1;
nodes = (
(283,365,o),
(339,429,o),
(339,505,cs),
(339,561,o),
(303,597,o),
(243,597,cs),
(164,597,o),
(108,534,o),
(108,457,cs),
(108,400,o),
(145,365,o),
(204,365,cs)
);
}
);
width = 382;
},
{
anchors = (
{
name = m.uni0321_3;
position = "{190, 340}";
},
{
name = t.uni0308_1_3;
position = "{237, 622}";
},
{
name = t.uni0335_2;
position = "{213, 481}";
},
{
name = m.uni0328_3;
position = "{189, 334}";
},
{
name = t.uni031B_3;
position = "{334, 587}";
}
);
layerId = "DD9EABB0-940B-474C-A221-8151F11C5AE7";
shapes = (
{
closed = 1;
nodes = (
(313,628,o),
(362,582,o),
(362,510,cs),
(362,410,o),
(284,334,o),
(184,334,cs),
(105,334,o),
(56,381,o),
(56,452,cs),
(56,552,o),
(134,628,o),
(234,628,cs)
);
},
{
closed = 1;
nodes = (
(238,421,o),
(261,460,o),
(261,496,cs),
(261,524,o),
(246,541,o),
(219,541,cs),
(179,541,o),
(157,503,o),
(157,467,cs),
(157,439,o),
(173,421,o),
(199,421,cs)
);
}
);
width = 355;
}
);
unicode = 186;
},
{
glyphname = uni0394;
layers = (
{
layerId = "2EB5F385-C357-4F50-996C-712A481EC30A";
shapes = (
{
closed = 1;
nodes = (
(31,0,l),
(526,760,l),
(560,760,l),
(797,0,l)
);
},
{
closed = 1;
nodes = (
(661,95,l),
(514,582,l),
(201,95,l)
);
}
);
width = 923;
},
{
layerId = "A9804AF1-4682-45A6-92D1-C6953796E638";
shapes = (
{
closed = 1;
nodes = (
(31,0,l),
(526,760,l),
(560,760,l),
(797,0,l)
);
},
{
closed = 1;
nodes = (
(718,53,l),
(529,671,l),
(129,53,l)
);
}
);
width = 923;
},
{
layerId = "DD9EABB0-940B-474C-A221-8151F11C5AE7";
shapes = (
{
closed = 1;
nodes = (
(31,0,l),
(526,760,l),
(560,760,l),
(797,0,l)
);
},
{
closed = 1;
nodes = (
(544,180,l),
(484,401,l),
(347,180,l)
);
}
);
width = 923;
}
);
leftKerningGroup = A;
rightKerningGroup = A2;
unicode = 916;
},
{
glyphname = uni03A9;
layers = (
{
layerId = "2EB5F385-C357-4F50-996C-712A481EC30A";
shapes = (
{
closed = 1;
nodes = (
(874,95,l),
(858,0,l),
(526,0,l),
(516,68,l),
(642,141,o),
(757,257,o),
(757,412,cs),
(757,528,o),
(678,608,o),
(548,608,cs),
(381,608,o),
(254,480,o),
(254,314,cs),
(254,213,o),
(309,133,o),
(399,68,c),
(366,0,l),
(30,0,l),
(46,95,l),
(265,95,l),
(189,155,o),
(147,230,o),
(147,322,cs),
(147,546,o),
(349,698,o),
(563,698,cs),
(751,698,o),
(867,589,o),
(867,433,cs),
(867,285,o),
(777,173,o),
(656,95,c)
);
}
);
width = 983;
},
{
layerId = "A9804AF1-4682-45A6-92D1-C6953796E638";
shapes = (
{
closed = 1;
nodes = (
(867,53,l),
(858,0,l),
(512,0,l),
(511,40,l),
(654,119,o),
(800,247,o),
(800,423,cs),
(800,553,o),
(707,645,o),
(554,645,cs),
(371,645,o),
(214,509,o),
(214,323,cs),
(214,207,o),
(282,116,o),
(394,40,c),
(379,0,l),
(30,0,l),
(39,53,l),
(281,53,l),
(192,120,o),
(145,202,o),
(145,305,cs),
(145,535,o),
(338,698,o),
(563,698,cs),
(750,698,o),
(866,587,o),
(866,430,cs),
(866,265,o),
(761,138,o),
(626,53,c)
);
}
);
width = 983;
},
{
layerId = "DD9EABB0-940B-474C-A221-8151F11C5AE7";
shapes = (
{
closed = 1;
nodes = (
(889,180,l),
(858,0,l),
(553,0,l),
(527,125,l),
(613,186,o),
(671,281,o),
(671,388,cs),
(671,477,o),
(620,532,o),
(535,532,cs),
(402,532,o),
(334,414,o),
(334,295,cs),
(334,223,o),
(361,168,o),
(408,125,c),
(338,0,l),
(30,0,l),
(61,180,l),
(232,180,l),
(182,225,o),
(151,287,o),
(151,354,cs),
(151,567,o),
(372,698,o),
(563,698,cs),
(752,698,o),
(868,595,o),
(868,442,cs),
(868,328,o),
(810,243,o),
(717,180,c)
);
}
);
width = 983;
}
);
unicode = 937;
},
{
glyphname = uni03BC;
layers = (
{
anchors = (
{
name = m.uni0321_2;
position = "{244, 0}";
},
{
name = t.uni0308_1_2;
position = "{327, 500}";
},
{
name = m.uni0328_2;
position = "{409, 0}";
},
{
name = t.uni031B_2;
position = "{542, 500}";
}
);
layerId = "2EB5F385-C357-4F50-996C-712A481EC30A";
shapes = (
{
closed = 1;
nodes = (
(53,233,l),
(97,233,l),
(84,154,o),
(85,105,o),
(92,38,c),
(95,-20,o),
(96,-53,o),
(88,-100,cs),
(73,-190,l),
(-18,-190,l)
);
},
{
closed = 1;
nodes = (
(80,-10,o),
(26,72,o),
(47,203,cs),
(98,500,l),
(200,500,l),
(152,214,ls),
(137,129,o),
(168,77,o),
(234,77,cs),
(313,77,o),
(371,131,o),
(385,220,c),
(423,220,l),
(399,79,o),
(309,-10,o),
(191,-10,cs)
);
},
{
closed = 1;
nodes = (
(425,500,l),
(527,500,l),
(457,0,l),
(377,0,l),
(368,97,l)
);
}
);
width = 569;
},
{
anchors = (
{
name = m.uni0321_2;
position = "{244, 0}";
},
{
name = t.uni0308_1_2;
position = "{327, 500}";
},
{
name = m.uni0328_2;
position = "{409, 0}";
},
{
name = t.uni031B_2;
position = "{542, 500}";
}
);
layerId = "A9804AF1-4682-45A6-92D1-C6953796E638";
shapes = (
{
closed = 1;
nodes = (
(62,233,l),
(92,233,l),
(81,164,o),
(80,117,o),
(84,55,c),
(83,-11,o),
(83,-46,o),
(74,-100,cs),
(59,-190,l),
(-9,-190,l)
);
},
{
closed = 1;
nodes = (
(89,-10,o),
(35,73,o),
(58,212,cs),
(107,500,l),
(172,500,l),
(123,209,ls),
(105,105,o),
(140,44,o),
(219,44,cs),
(317,44,o),
(386,109,o),
(404,220,c),
(436,220,l),
(412,76,o),
(326,-10,o),
(204,-10,cs)
);
},
{
closed = 1;
nodes = (
(440,500,l),
(505,500,l),
(435,0,l),
(392,0,l),
(385,107,l)
);
}
);
width = 560;
},
{
anchors = (
{
name = m.uni0321_2;
position = "{244, 0}";
},
{
name = t.uni0308_1_2;
position = "{327, 500}";
},
{
name = m.uni0328_2;
position = "{409, 0}";
},
{
name = t.uni031B_2;
position = "{542, 500}";
}
);
layerId = "DD9EABB0-940B-474C-A221-8151F11C5AE7";
shapes = (
{
closed = 1;
nodes = (
(34,233,l),
(107,233,l),
(91,135,o),
(96,80,o),
(108,3,c),
(119,-38,o),
(123,-68,o),
(116,-100,c),
(101,-190,l),
(-37,-190,l)
);
},
{
closed = 1;
nodes = (
(63,-10,o),
(7,70,o),
(25,184,cs),
(79,500,l),
(256,500,l),
(209,224,ls),
(201,178,o),
(224,144,o),
(263,144,cs),
(306,144,o),
(341,176,o),
(347,220,c),
(395,220,l),
(372,84,o),
(275,-10,o),
(163,-10,cs)
);
},
{
closed = 1;
nodes = (
(381,500,l),
(577,500,l),
(502,0,l),
(315,0,l),
(318,48,l)
);
}
);
width = 587;
}
);
leftKerningGroup = p;
unicode = 956;
},
{
glyphname = pi;
layers = (
{
layerId = "2EB5F385-C357-4F50-996C-712A481EC30A";
shapes = (
{
closed = 1;
nodes = (
(314,407,l),
(246,0,l),
(139,0,l),
(207,407,l),
(98,407,l),
(114,500,l),
(729,500,l),
(713,406,l)
);
},
{
closed = 1;
nodes = (
(636,85,o),
(660,90,o),
(686,101,c),
(691,18,l),
(655,0,o),
(614,-10,o),
(576,-10,cs),
(476,-10,o),
(436,40,o),
(452,140,cs),
(506,457,l),
(612,457,l),
(562,159,ls),
(555,112,o),
(569,85,o),
(613,85,cs)
);
}
);
width = 814;
},
{
layerId = "A9804AF1-4682-45A6-92D1-C6953796E638";
shapes = (
{
closed = 1;
nodes = (
(302,449,l),
(227,0,l),
(162,0,l),
(237,449,l),
(105,449,l),
(114,500,l),
(738,500,l),
(729,448,l)
);
},
{
closed = 1;
nodes = (
(631,42,o),
(655,47,o),
(680,59,c),
(689,12,l),
(661,-2,o),
(631,-10,o),
(604,-10,cs),
(504,-10,o),
(464,40,o),
(480,140,cs),
(540,499,l),
(605,499,l),
(544,135,ls),
(535,76,o),
(552,42,o),
(608,42,cs)
);
}
);
width = 813;
},
{
layerId = "DD9EABB0-940B-474C-A221-8151F11C5AE7";
shapes = (
{
closed = 1;
nodes = (
(337,321,l),
(284,0,l),
(93,0,l),
(146,321,l),
(85,321,l),
(114,500,l),
(710,500,l),
(679,320,l)
);
},
{
closed = 1;
nodes = (
(647,171,o),
(671,176,o),
(697,186,c),
(696,31,l),
(644,5,o),
(579,-10,o),
(520,-10,cs),
(420,-10,o),
(380,40,o),
(396,140,c),
(436,371,l),
(627,371,l),
(600,209,l),
(594,184,o),
(604,171,o),
(624,171,cs)
);
}
);
width = 815;
}
);
unicode = 960;
},
{
glyphname = zero.dnom;
layers = (
{
anchors = (
{
name = t.uni0335;
position = "{130, 175}";
}
);
layerId = "2EB5F385-C357-4F50-996C-712A481EC30A";
shapes = (
{
closed = 1;
nodes = (
(34,-5,o),
(0,40,o),
(0,118,cs),
(0,213,o),
(44,355,o),
(158,355,cs),
(221,355,o),
(255,310,o),
(255,231,cs),
(255,136,o),
(210,-5,o),
(97,-5,cs)
);
},
{
closed = 1;
nodes = (
(178,41,o),
(202,170,o),
(202,230,cs),
(202,282,o),
(184,310,o),
(150,310,cs),
(77,310,o),
(54,180,o),
(54,120,cs),
(54,69,o),
(71,41,o),
(105,41,cs)
);
}
);
width = 303;
},
{
anchors = (
{
name = t.uni0335;
position = "{130, 175}";
}
);
layerId = "A9804AF1-4682-45A6-92D1-C6953796E638";
shapes = (
{
closed = 1;
nodes = (
(35,-5,o),
(2,40,o),
(2,116,cs),
(2,209,o),
(44,355,o),
(155,355,cs),
(216,355,o),
(248,310,o),
(248,233,cs),
(248,140,o),
(205,-5,o),
(95,-5,cs)
);
},
{
closed = 1;
nodes = (
(185,22,o),
(216,161,o),
(216,231,cs),
(216,293,o),
(193,329,o),
(151,329,cs),
(65,329,o),
(35,188,o),
(35,117,cs),
(35,57,o),
(58,22,o),
(99,22,cs)
);
}
);
width = 308;
},
{
anchors = (
{
name = t.uni0335;
position = "{130, 175}";
}
);
layerId = "DD9EABB0-940B-474C-A221-8151F11C5AE7";
shapes = (
{
closed = 1;
nodes = (
(34,-5,o),
(-5,42,o),
(-5,122,cs),
(-5,222,o),
(45,355,o),
(163,355,cs),
(231,355,o),
(269,309,o),
(269,228,cs),
(269,128,o),
(219,-5,o),
(102,-5,cs)
);
},
{
closed = 1;
nodes = (
(161,78,o),
(174,189,o),
(174,228,cs),
(174,258,o),
(166,272,o),
(148,272,cs),
(103,272,o),
(90,161,o),
(90,123,cs),
(90,92,o),
(99,78,o),
(116,78,cs)
);
}
);
width = 293;
}
);
},
{
glyphname = one.dnom;
layers = (
{
layerId = "2EB5F385-C357-4F50-996C-712A481EC30A";
shapes = (
{
closed = 1;
nodes = (
(168,350,l),
(109,0,l),
(56,0,l),
(104,285,l),
(85,270,o),
(52,248,o),
(24,234,c),
(12,275,l),
(51,297,o),
(87,322,o),
(118,350,c)
);
}
);
width = 203;
},
{
layerId = "A9804AF1-4682-45A6-92D1-C6953796E638";
shapes = (
{
closed = 1;
nodes = (
(147,350,l),
(88,0,l),
(56,0,l),
(107,308,l),
(88,292,o),
(59,272,o),
(27,254,c),
(15,278,l),
(53,299,o),
(86,323,o),
(114,350,c)
);
}
);
width = 186;
},
{
layerId = "DD9EABB0-940B-474C-A221-8151F11C5AE7";
shapes = (
{
closed = 1;
nodes = (
(210,350,l),
(152,0,l),
(56,0,l),
(96,237,l),
(79,225,o),
(37,200,o),
(19,192,c),
(7,268,l),
(48,293,o),
(89,320,o),
(128,350,c)
);
}
);
width = 236;
}
);
},
{
glyphname = two.dnom;
layers = (
{
layerId = "2EB5F385-C357-4F50-996C-712A481EC30A";
shapes = (
{
closed = 1;
nodes = (
(62,45,l),
(222,45,l),
(214,0,l),
(-16,0,l),
(-10,37,l),
(112,137,ls),
(149,168,o),
(194,210,o),
(194,262,cs),
(194,291,o),
(177,310,o),
(144,310,cs),
(111,310,o),
(85,284,o),
(72,239,c),
(21,248,l),
(42,316,o),
(89,355,o),
(151,355,cs),
(212,355,o),
(248,319,o),
(248,269,cs),
(248,200,o),
(191,151,o),
(141,110,cs)
);
}
);
width = 288;
},
{
layerId = "A9804AF1-4682-45A6-92D1-C6953796E638";
shapes = (
{
closed = 1;
nodes = (
(39,27,l),
(214,27,l),
(210,0,l),
(-11,0,l),
(-8,23,l),
(119,127,ls),
(162,163,o),
(211,208,o),
(211,270,cs),
(211,306,o),
(189,329,o),
(147,329,cs),
(106,329,o),
(74,299,o),
(58,248,c),
(28,254,l),
(47,318,o),
(93,355,o),
(151,355,cs),
(210,355,o),
(244,318,o),
(244,271,cs),
(244,197,o),
(181,147,o),
(130,104,cs)
);
}
);
width = 288;
},
{
layerId = "DD9EABB0-940B-474C-A221-8151F11C5AE7";
shapes = (
{
closed = 1;
nodes = (
(110,81,l),
(238,81,l),
(224,0,l),
(-25,0,l),
(-14,65,l),
(97,156,l),
(121,176,o),
(160,213,o),
(160,248,cs),
(160,263,o),
(151,272,o),
(138,272,cs),
(120,272,o),
(107,253,o),
(100,220,c),
(8,234,l),
(31,312,o),
(83,355,o),
(152,355,cs),
(216,355,o),
(257,321,o),
(257,266,cs),
(257,205,o),
(211,157,o),
(165,122,cs)
);
}
);
width = 288;
}
);
},
{
glyphname = three.dnom;
layers = (
{
layerId = "2EB5F385-C357-4F50-996C-712A481EC30A";
shapes = (
{
closed = 1;
nodes = (
(218,178,o),
(237,152,o),
(237,119,cs),
(237,44,o),
(165,-5,o),
(96,-5,cs),
(37,-5,o),
(-1,24,o),
(-9,72,c),
(43,97,l),
(47,61,o),
(68,41,o),
(104,41,cs),
(147,41,o),
(184,70,o),
(184,115,cs),
(184,144,o),
(161,163,o),
(124,163,cs),
(92,163,l),
(98,205,l),
(129,205,ls),
(166,205,o),
(200,229,o),
(200,268,cs),
(200,293,o),
(182,310,o),
(152,310,cs),
(119,310,o),
(92,292,o),
(79,261,c),
(34,281,l),
(57,328,o),
(102,355,o),
(159,355,cs),
(216,355,o),
(254,322,o),
(254,276,cs),
(254,234,o),
(222,197,o),
(182,188,c)
);
}
);
width = 286;
},
{
layerId = "A9804AF1-4682-45A6-92D1-C6953796E638";
shapes = (
{
closed = 1;
nodes = (
(207,180,o),
(229,152,o),
(229,116,cs),
(229,42,o),
(161,-5,o),
(92,-5,cs),
(38,-5,o),
(2,23,o),
(-5,67,c),
(27,80,l),
(32,44,o),
(57,22,o),
(97,22,cs),
(149,22,o),
(196,59,o),
(196,113,cs),
(196,150,o),
(168,173,o),
(122,173,cs),
(92,173,l),
(97,201,l),
(127,201,ls),
(172,201,o),
(214,229,o),
(214,278,cs),
(214,309,o),
(191,329,o),
(154,329,cs),
(114,329,o),
(81,308,o),
(65,273,c),
(40,289,l),
(62,330,o),
(105,355,o),
(158,355,cs),
(212,355,o),
(247,325,o),
(247,280,cs),
(247,235,o),
(213,199,o),
(170,189,c)
);
}
);
width = 278;
},
{
layerId = "DD9EABB0-940B-474C-A221-8151F11C5AE7";
shapes = (
{
closed = 1;
nodes = (
(240,175,o),
(255,152,o),
(255,123,cs),
(255,47,o),
(173,-5,o),
(103,-5,cs),
(35,-5,o),
(-7,26,o),
(-17,81,c),
(77,130,l),
(75,97,o),
(90,78,o),
(117,78,cs),
(139,78,o),
(159,93,o),
(159,117,cs),
(159,133,o),
(147,143,o),
(127,143,cs),
(91,143,l),
(102,213,l),
(132,213,ls),
(153,213,o),
(171,226,o),
(171,248,cs),
(171,263,o),
(162,272,o),
(148,272,cs),
(129,272,o),
(116,260,o),
(108,236,c),
(23,265,l),
(46,323,o),
(96,355,o),
(162,355,cs),
(223,355,o),
(268,316,o),
(268,267,cs),
(268,232,o),
(241,193,o),
(207,186,c)
);
}
);
width = 303;
}
);
},
{
glyphname = four.dnom;
layers = (
{
layerId = "2EB5F385-C357-4F50-996C-712A481EC30A";
shapes = (
{
closed = 1;
nodes = (
(254,82,l),
(195,82,l),
(182,0,l),
(128,0,l),
(142,82,l),
(-21,82,l),
(-14,120,l),
(57,192,o),
(124,268,o),
(187,350,c),
(240,350,l),
(203,127,l),
(262,127,l)
);
},
{
closed = 1;
nodes = (
(149,127,l),
(175,279,l),
(135,227,o),
(87,171,o),
(42,127,c)
);
}
);
width = 301;
},
{
layerId = "A9804AF1-4682-45A6-92D1-C6953796E638";
shapes = (
{
closed = 1;
nodes = (
(248,86,l),
(189,86,l),
(175,0,l),
(142,0,l),
(156,86,l),
(-18,86,l),
(-14,109,l),
(62,183,o),
(133,264,o),
(201,350,c),
(233,350,l),
(193,113,l),
(252,113,l)
);
},
{
closed = 1;
nodes = (
(160,113,l),
(192,303,l),
(139,234,o),
(85,172,o),
(25,113,c)
);
}
);
width = 296;
},
{
layerId = "DD9EABB0-940B-474C-A221-8151F11C5AE7";
shapes = (
{
closed = 1;
nodes = (
(267,76,l),
(208,76,l),
(195,0,l),
(100,0,l),
(113,76,l),
(-26,76,l),
(-15,144,l),
(48,208,o),
(105,277,o),
(159,350,c),
(254,350,l),
(222,155,l),
(281,155,l)
);
},
{
closed = 1;
nodes = (
(127,155,l),
(140,230,l),
(126,212,o),
(90,169,o),
(76,155,c)
);
}
);
width = 311;
}
);
},
{
glyphname = five.dnom;
layers = (
{
layerId = "2EB5F385-C357-4F50-996C-712A481EC30A";
shapes = (
{
closed = 1;
nodes = (
(36,-5,o),
(-2,24,o),
(-10,73,c),
(42,94,l),
(47,61,o),
(68,40,o),
(101,40,cs),
(151,40,o),
(184,81,o),
(184,129,cs),
(184,163,o),
(162,185,o),
(126,185,cs),
(96,185,o),
(68,169,o),
(52,145,c),
(13,151,l),
(58,350,l),
(246,350,l),
(239,306,l),
(99,306,l),
(100,306,l),
(75,201,l),
(92,217,o),
(120,227,o),
(148,227,cs),
(203,227,o),
(238,191,o),
(238,137,cs),
(238,55,o),
(176,-5,o),
(94,-5,cs)
);
}
);
width = 291;
},
{
layerId = "A9804AF1-4682-45A6-92D1-C6953796E638";
shapes = (
{
closed = 1;
nodes = (
(40,-5,o),
(4,24,o),
(-5,71,c),
(26,82,l),
(32,44,o),
(58,21,o),
(97,21,cs),
(157,21,o),
(199,69,o),
(199,128,cs),
(199,170,o),
(171,197,o),
(126,197,cs),
(91,197,o),
(56,178,o),
(38,150,c),
(18,155,l),
(61,350,l),
(241,350,l),
(236,323,l),
(86,323,l),
(87,323,l),
(57,194,l),
(76,212,o),
(110,224,o),
(140,224,cs),
(197,224,o),
(232,189,o),
(232,134,cs),
(232,55,o),
(172,-5,o),
(93,-5,cs)
);
}
);
width = 290;
},
{
layerId = "DD9EABB0-940B-474C-A221-8151F11C5AE7";
shapes = (
{
closed = 1;
nodes = (
(30,-5,o),
(-11,25,o),
(-20,78,c),
(74,118,l),
(76,95,o),
(89,79,o),
(110,79,cs),
(139,79,o),
(155,105,o),
(155,131,cs),
(155,150,o),
(143,162,o),
(125,162,cs),
(108,162,o),
(90,152,o),
(81,134,c),
(5,143,l),
(51,350,l),
(258,350,l),
(245,271,l),
(125,271,l),
(126,271,l),
(113,216,l),
(124,227,o),
(142,232,o),
(165,232,cs),
(217,232,o),
(250,196,o),
(250,142,cs),
(250,55,o),
(182,-5,o),
(96,-5,cs)
);
}
);
width = 292;
}
);
},
{
glyphname = six.dnom;
layers = (
{
layerId = "2EB5F385-C357-4F50-996C-712A481EC30A";
shapes = (
{
closed = 1;
nodes = (
(12,-5,o),
(-28,34,o),
(-28,93,cs),
(-28,184,o),
(65,288,o),
(125,350,c),
(198,350,l),
(142,299,o),
(89,245,o),
(59,201,c),
(75,215,o),
(101,225,o),
(132,225,cs),
(182,225,o),
(221,190,o),
(221,137,cs),
(221,57,o),
(156,-5,o),
(76,-5,cs)
);
},
{
closed = 1;
nodes = (
(134,40,o),
(166,82,o),
(166,130,cs),
(166,164,o),
(145,186,o),
(108,186,cs),
(58,186,o),
(25,145,o),
(25,97,cs),
(25,62,o),
(47,40,o),
(84,40,cs)
);
}
);
width = 291;
},
{
layerId = "A9804AF1-4682-45A6-92D1-C6953796E638";
shapes = (
{
closed = 1;
nodes = (
(12,-5,o),
(-27,33,o),
(-27,90,cs),
(-27,178,o),
(75,288,o),
(132,350,c),
(168,350,l),
(115,295,o),
(69,243,o),
(38,195,c),
(57,212,o),
(88,225,o),
(123,225,cs),
(171,225,o),
(212,189,o),
(212,134,cs),
(212,58,o),
(150,-5,o),
(73,-5,cs)
);
},
{
closed = 1;
nodes = (
(137,22,o),
(179,71,o),
(179,128,cs),
(179,170,o),
(151,197,o),
(107,197,cs),
(46,197,o),
(5,148,o),
(5,90,cs),
(5,48,o),
(32,22,o),
(78,22,cs)
);
}
);
width = 286;
},
{
layerId = "DD9EABB0-940B-474C-A221-8151F11C5AE7";
shapes = (
{
closed = 1;
nodes = (
(12,-5,o),
(-31,37,o),
(-31,101,cs),
(-31,197,o),
(62,289,o),
(128,350,c),
(258,350,l),
(198,305,o),
(127,249,o),
(99,215,c),
(110,221,o),
(126,225,o),
(148,225,cs),
(204,225,o),
(235,193,o),
(235,142,cs),
(235,56,o),
(165,-5,o),
(81,-5,cs)
);
},
{
closed = 1;
nodes = (
(127,79,o),
(139,105,o),
(139,132,cs),
(139,152,o),
(130,162,o),
(109,162,cs),
(77,162,o),
(64,137,o),
(64,108,cs),
(64,88,o),
(75,79,o),
(95,79,cs)
);
}
);
width = 301;
}
);
},
{
glyphname = seven.dnom;
layers = (
{
layerId = "2EB5F385-C357-4F50-996C-712A481EC30A";
shapes = (
{
closed = 1;
nodes = (
(29,350,l),
(22,306,l),
(190,306,l),
(125,215,o),
(60,102,o),
(15,0,c),
(72,0,l),
(120,114,o),
(173,206,o),
(249,312,c),
(249,350,l)
);
}
);
width = 263;
},
{
layerId = "A9804AF1-4682-45A6-92D1-C6953796E638";
shapes = (
{
closed = 1;
nodes = (
(32,350,l),
(27,323,l),
(212,323,l),
(142,223,o),
(71,102,o),
(24,0,c),
(60,0,l),
(113,118,o),
(171,217,o),
(250,328,c),
(249,350,l)
);
}
);
width = 263;
},
{
layerId = "DD9EABB0-940B-474C-A221-8151F11C5AE7";
shapes = (
{
closed = 1;
nodes = (
(24,350,l),
(11,271,l),
(144,271,l),
(91,201,o),
(38,102,o),
(-2,0,c),
(98,0,l),
(137,104,o),
(178,184,o),
(249,278,c),
(249,350,l)
);
}
);
width = 263;
}
);
},
{
glyphname = eight.dnom;
layers = (
{
layerId = "2EB5F385-C357-4F50-996C-712A481EC30A";
shapes = (
{
closed = 1;
nodes = (
(31,-10,o),
(-10,24,o),
(-10,77,cs),
(-10,125,o),
(23,169,o),
(68,185,c),
(42,197,o),
(28,224,o),
(33,255,cs),
(42,312,o),
(92,350,o),
(157,350,cs),
(214,350,o),
(250,320,o),
(250,272,cs),
(250,234,o),
(227,198,o),
(190,185,c),
(219,174,o),
(238,145,o),
(238,112,cs),
(238,36,o),
(167,-10,o),
(96,-10,cs)
);
},
{
closed = 1;
nodes = (
(148,36,o),
(185,65,o),
(185,111,cs),
(185,142,o),
(163,162,o),
(125,162,cs),
(80,162,o),
(45,132,o),
(45,86,cs),
(45,55,o),
(67,36,o),
(104,36,cs)
);
},
{
closed = 1;
nodes = (
(168,201,o),
(197,226,o),
(197,263,cs),
(197,289,o),
(179,305,o),
(149,305,cs),
(112,305,o),
(84,279,o),
(84,242,cs),
(84,217,o),
(102,201,o),
(132,201,cs)
);
}
);
width = 291;
},
{
layerId = "A9804AF1-4682-45A6-92D1-C6953796E638";
shapes = (
{
closed = 1;
nodes = (
(31,-10,o),
(-8,23,o),
(-8,74,cs),
(-8,124,o),
(28,171,o),
(77,184,c),
(51,194,o),
(35,218,o),
(35,246,cs),
(35,310,o),
(94,350,o),
(154,350,cs),
(210,350,o),
(244,321,o),
(244,275,cs),
(244,234,o),
(216,195,o),
(175,184,c),
(209,174,o),
(230,145,o),
(230,109,cs),
(230,35,o),
(163,-10,o),
(94,-10,cs)
);
},
{
closed = 1;
nodes = (
(150,17,o),
(198,50,o),
(198,105,cs),
(198,142,o),
(170,166,o),
(123,166,cs),
(71,166,o),
(25,132,o),
(25,78,cs),
(25,41,o),
(53,17,o),
(98,17,cs)
);
},
{
closed = 1;
nodes = (
(172,194,o),
(210,225,o),
(210,271,cs),
(210,303,o),
(188,324,o),
(150,324,cs),
(105,324,o),
(68,292,o),
(68,247,cs),
(68,215,o),
(91,194,o),
(128,194,cs)
);
}
);
width = 286;
},
{
layerId = "DD9EABB0-940B-474C-A221-8151F11C5AE7";
shapes = (
{
closed = 1;
nodes = (
(31,-10,o),
(-14,27,o),
(-14,83,cs),
(-14,127,o),
(14,166,o),
(50,188,c),
(36,197,o),
(27,215,o),
(26,234,c),
(24,306,o),
(98,350,o),
(162,350,cs),
(224,350,o),
(262,317,o),
(262,267,cs),
(262,234,o),
(247,205,o),
(218,188,c),
(241,173,o),
(253,146,o),
(253,119,cs),
(253,38,o),
(175,-10,o),
(101,-10,cs)
);
},
{
closed = 1;
nodes = (
(145,73,o),
(159,96,o),
(159,124,cs),
(159,142,o),
(149,152,o),
(128,152,cs),
(99,152,o),
(84,130,o),
(84,103,cs),
(84,84,o),
(95,73,o),
(115,73,cs)
);
},
{
closed = 1;
nodes = (
(157,215,o),
(169,229,o),
(169,247,cs),
(169,260,o),
(161,267,o),
(147,267,cs),
(127,267,o),
(117,253,o),
(117,234,cs),
(117,222,o),
(125,215,o),
(139,215,cs)
);
}
);
width = 301;
}
);
},
{
glyphname = nine.dnom;
layers = (
{
layerId = "2EB5F385-C357-4F50-996C-712A481EC30A";
shapes = (
{
closed = 1;
nodes = (
(221,350,o),
(260,312,o),
(260,252,cs),
(260,161,o),
(168,57,o),
(108,-5,c),
(35,-5,l),
(91,47,o),
(144,100,o),
(174,144,c),
(158,130,o),
(132,120,o),
(101,120,cs),
(51,120,o),
(12,156,o),
(12,209,cs),
(12,289,o),
(77,350,o),
(157,350,cs)
);
},
{
closed = 1;
nodes = (
(99,305,o),
(67,263,o),
(67,216,cs),
(67,181,o),
(88,160,o),
(125,160,cs),
(175,160,o),
(208,201,o),
(208,249,cs),
(208,284,o),
(186,305,o),
(149,305,cs)
);
}
);
width = 291;
},
{
layerId = "A9804AF1-4682-45A6-92D1-C6953796E638";
shapes = (
{
closed = 1;
nodes = (
(216,350,o),
(254,313,o),
(254,255,cs),
(254,167,o),
(152,57,o),
(95,-5,c),
(59,-5,l),
(112,50,o),
(159,102,o),
(189,151,c),
(170,133,o),
(139,120,o),
(104,120,cs),
(57,120,o),
(15,157,o),
(15,211,cs),
(15,288,o),
(78,350,o),
(154,350,cs)
);
},
{
closed = 1;
nodes = (
(90,324,o),
(49,275,o),
(49,217,cs),
(49,176,o),
(76,148,o),
(121,148,cs),
(181,148,o),
(222,197,o),
(222,255,cs),
(222,297,o),
(195,324,o),
(150,324,cs)
);
}
);
width = 286;
},
{
layerId = "DD9EABB0-940B-474C-A221-8151F11C5AE7";
shapes = (
{
closed = 1;
nodes = (
(230,350,o),
(273,309,o),
(273,245,cs),
(273,149,o),
(180,57,o),
(114,-5,c),
(-17,-5,l),
(44,40,o),
(115,97,o),
(143,130,c),
(132,125,o),
(117,120,o),
(95,120,cs),
(38,120,o),
(7,153,o),
(7,203,cs),
(7,290,o),
(77,350,o),
(162,350,cs)
);
},
{
closed = 1;
nodes = (
(115,267,o),
(103,241,o),
(103,213,cs),
(103,193,o),
(113,183,o),
(133,183,cs),
(165,183,o),
(178,209,o),
(178,237,cs),
(178,257,o),
(167,267,o),
(147,267,cs)
);
}
);
width = 301;
}
);
},
{
glyphname = zero.numr;
layers = (
{
anchors = (
{
name = t.uni0335;
position = "{186, 460}";
}
);
layerId = "2EB5F385-C357-4F50-996C-712A481EC30A";
shapes = (
{
closed = 1;
nodes = (
(96,280,o),
(62,325,o),
(62,403,cs),
(62,498,o),
(106,640,o),
(220,640,cs),
(283,640,o),
(317,595,o),
(317,516,cs),
(317,421,o),
(272,280,o),
(159,280,cs)
);
},
{
closed = 1;
nodes = (
(240,326,o),
(264,455,o),
(264,515,cs),
(264,567,o),
(246,595,o),
(212,595,cs),
(139,595,o),
(116,465,o),
(116,405,cs),
(116,354,o),
(133,326,o),
(167,326,cs)
);
}
);
width = 334;
},
{
anchors = (
{
name = t.uni0335;
position = "{186, 460}";
}
);
layerId = "A9804AF1-4682-45A6-92D1-C6953796E638";
shapes = (
{
closed = 1;
nodes = (
(97,280,o),
(64,325,o),
(64,401,cs),
(64,494,o),
(106,640,o),
(217,640,cs),
(278,640,o),
(310,595,o),
(310,518,cs),
(310,425,o),
(267,280,o),
(157,280,cs)
);
},
{
closed = 1;
nodes = (
(247,307,o),
(278,446,o),
(278,516,cs),
(278,578,o),
(255,614,o),
(213,614,cs),
(127,614,o),
(97,473,o),
(97,402,cs),
(97,342,o),
(120,307,o),
(161,307,cs)
);
}
);
width = 334;
},
{
anchors = (
{
name = t.uni0335;
position = "{186, 460}";
}
);
layerId = "DD9EABB0-940B-474C-A221-8151F11C5AE7";
shapes = (
{
closed = 1;
nodes = (
(96,280,o),
(57,327,o),
(57,407,cs),
(57,507,o),
(107,640,o),
(225,640,cs),
(293,640,o),
(331,594,o),
(331,513,cs),
(331,413,o),
(281,280,o),
(164,280,cs)
);
},
{
closed = 1;
nodes = (
(223,363,o),
(236,474,o),
(236,513,cs),
(236,543,o),
(228,557,o),
(210,557,cs),
(165,557,o),
(152,446,o),
(152,408,cs),
(152,377,o),
(161,363,o),
(178,363,cs)
);
}
);
width = 334;
}
);
},
{
glyphname = one.numr;
layers = (
{
layerId = "2EB5F385-C357-4F50-996C-712A481EC30A";
shapes = (
{
closed = 1;
nodes = (
(230,635,l),
(171,285,l),
(118,285,l),
(166,570,l),
(147,555,o),
(114,533,o),
(86,519,c),
(74,560,l),
(113,582,o),
(149,607,o),
(180,635,c)
);
}
);
width = 201;
},
{
layerId = "A9804AF1-4682-45A6-92D1-C6953796E638";
shapes = (
{
closed = 1;
nodes = (
(209,635,l),
(150,285,l),
(118,285,l),
(169,593,l),
(150,577,o),
(121,557,o),
(89,539,c),
(77,563,l),
(115,584,o),
(148,608,o),
(176,635,c)
);
}
);
width = 201;
},
{
layerId = "DD9EABB0-940B-474C-A221-8151F11C5AE7";
shapes = (
{
closed = 1;
nodes = (
(272,635,l),
(214,285,l),
(118,285,l),
(158,522,l),
(141,510,o),
(99,485,o),
(81,477,c),
(69,553,l),
(110,578,o),
(151,605,o),
(190,635,c)
);
}
);
width = 201;
}
);
leftKerningGroup = one.numr;
rightKerningGroup = one.numr1;
},
{
glyphname = two.numr;
layers = (
{
layerId = "2EB5F385-C357-4F50-996C-712A481EC30A";
shapes = (
{
closed = 1;
nodes = (
(110,330,l),
(270,330,l),
(262,285,l),
(33,285,l),
(39,322,l),
(160,422,ls),
(197,453,o),
(242,495,o),
(242,547,cs),
(242,576,o),
(225,595,o),
(192,595,cs),
(159,595,o),
(133,569,o),
(120,524,c),
(69,533,l),
(90,601,o),
(137,640,o),
(199,640,cs),
(260,640,o),
(296,604,o),
(296,554,cs),
(296,485,o),
(239,436,o),
(189,395,cs)
);
}
);
width = 288;
},
{
layerId = "A9804AF1-4682-45A6-92D1-C6953796E638";
shapes = (
{
closed = 1;
nodes = (
(87,312,l),
(262,312,l),
(258,285,l),
(37,285,l),
(41,308,l),
(167,412,ls),
(210,448,o),
(259,493,o),
(259,555,cs),
(259,591,o),
(237,614,o),
(195,614,cs),
(154,614,o),
(122,584,o),
(106,533,c),
(76,539,l),
(95,603,o),
(141,640,o),
(199,640,cs),
(258,640,o),
(292,603,o),
(292,556,cs),
(292,482,o),
(229,432,o),
(178,389,cs)
);
}
);
width = 288;
},
{
layerId = "DD9EABB0-940B-474C-A221-8151F11C5AE7";
shapes = (
{
closed = 1;
nodes = (
(158,366,l),
(286,366,l),
(272,285,l),
(24,285,l),
(35,350,l),
(145,441,l),
(169,461,o),
(208,498,o),
(208,533,cs),
(208,548,o),
(199,557,o),
(186,557,cs),
(168,557,o),
(155,538,o),
(148,505,c),
(56,519,l),
(79,597,o),
(131,640,o),
(200,640,cs),
(264,640,o),
(305,606,o),
(305,551,cs),
(305,490,o),
(259,442,o),
(213,407,cs)
);
}
);
width = 288;
}
);
leftKerningGroup = two.numr;
rightKerningGroup = two.numr1;
},
{
glyphname = three.numr;
layers = (
{
layerId = "2EB5F385-C357-4F50-996C-712A481EC30A";
shapes = (
{
closed = 1;
nodes = (
(267,468,o),
(286,442,o),
(286,409,cs),
(286,334,o),
(214,285,o),
(145,285,cs),
(86,285,o),
(48,314,o),
(41,362,c),
(92,387,l),
(96,351,o),
(117,331,o),
(153,331,cs),
(196,331,o),
(233,360,o),
(233,405,cs),
(233,434,o),
(210,453,o),
(173,453,cs),
(141,453,l),
(147,495,l),
(178,495,ls),
(215,495,o),
(249,519,o),
(249,558,cs),
(249,583,o),
(231,600,o),
(201,600,cs),
(168,600,o),
(141,582,o),
(128,551,c),
(83,571,l),
(106,618,o),
(151,645,o),
(208,645,cs),
(265,645,o),
(303,612,o),
(303,566,cs),
(303,524,o),
(271,487,o),
(231,478,c)
);
}
);
width = 292;
},
{
layerId = "A9804AF1-4682-45A6-92D1-C6953796E638";
shapes = (
{
closed = 1;
nodes = (
(256,470,o),
(278,442,o),
(278,406,cs),
(278,332,o),
(210,285,o),
(141,285,cs),
(87,285,o),
(51,313,o),
(44,357,c),
(76,370,l),
(81,334,o),
(106,312,o),
(146,312,cs),
(198,312,o),
(245,349,o),
(245,403,cs),
(245,440,o),
(217,463,o),
(171,463,cs),
(141,463,l),
(146,491,l),
(176,491,ls),
(221,491,o),
(263,519,o),
(263,568,cs),
(263,599,o),
(240,619,o),
(203,619,cs),
(163,619,o),
(130,598,o),
(114,563,c),
(89,579,l),
(111,620,o),
(154,645,o),
(207,645,cs),
(261,645,o),
(296,615,o),
(296,570,cs),
(296,525,o),
(262,489,o),
(219,479,c)
);
}
);
width = 289;
},
{
layerId = "DD9EABB0-940B-474C-A221-8151F11C5AE7";
shapes = (
{
closed = 1;
nodes = (
(289,465,o),
(304,442,o),
(304,413,cs),
(304,337,o),
(222,285,o),
(152,285,cs),
(84,285,o),
(42,316,o),
(33,371,c),
(126,420,l),
(124,387,o),
(139,368,o),
(166,368,cs),
(188,368,o),
(208,383,o),
(208,407,cs),
(208,423,o),
(196,433,o),
(176,433,cs),
(140,433,l),
(151,503,l),
(181,503,ls),
(202,503,o),
(220,516,o),
(220,538,cs),
(220,553,o),
(211,562,o),
(197,562,cs),
(178,562,o),
(165,550,o),
(157,526,c),
(72,555,l),
(95,613,o),
(145,645,o),
(211,645,cs),
(272,645,o),
(317,606,o),
(317,557,cs),
(317,522,o),
(290,483,o),
(256,476,c)
);
}
);
width = 299;
}
);
leftKerningGroup = three.numr;
rightKerningGroup = three.numr1;
},
{
glyphname = four.numr;
layers = (
{
layerId = "2EB5F385-C357-4F50-996C-712A481EC30A";
shapes = (
{
closed = 1;
nodes = (
(301,362,l),
(242,362,l),
(229,280,l),
(175,280,l),
(189,362,l),
(27,362,l),
(33,400,l),
(104,472,o),
(171,548,o),
(234,630,c),
(287,630,l),
(250,407,l),
(309,407,l)
);
},
{
closed = 1;
nodes = (
(196,407,l),
(222,559,l),
(182,507,o),
(134,451,o),
(89,407,c)
);
}
);
width = 301;
},
{
layerId = "A9804AF1-4682-45A6-92D1-C6953796E638";
shapes = (
{
closed = 1;
nodes = (
(295,366,l),
(236,366,l),
(222,280,l),
(189,280,l),
(203,366,l),
(29,366,l),
(33,389,l),
(109,463,o),
(180,544,o),
(248,630,c),
(280,630,l),
(240,393,l),
(299,393,l)
);
},
{
closed = 1;
nodes = (
(207,393,l),
(239,583,l),
(186,514,o),
(132,452,o),
(72,393,c)
);
}
);
width = 296;
},
{
layerId = "DD9EABB0-940B-474C-A221-8151F11C5AE7";
shapes = (
{
closed = 1;
nodes = (
(314,356,l),
(255,356,l),
(242,280,l),
(147,280,l),
(160,356,l),
(21,356,l),
(33,424,l),
(95,488,o),
(152,557,o),
(206,630,c),
(301,630,l),
(269,435,l),
(328,435,l)
);
},
{
closed = 1;
nodes = (
(174,435,l),
(187,510,l),
(173,492,o),
(137,449,o),
(123,435,c)
);
}
);
width = 311;
}
);
leftKerningGroup = four.numr;
rightKerningGroup = four.numr1;
},
{
glyphname = five.numr;
layers = (
{
layerId = "2EB5F385-C357-4F50-996C-712A481EC30A";
shapes = (
{
closed = 1;
nodes = (
(85,285,o),
(48,314,o),
(39,363,c),
(91,384,l),
(96,351,o),
(117,330,o),
(150,330,cs),
(200,330,o),
(233,371,o),
(233,419,cs),
(233,453,o),
(211,475,o),
(175,475,cs),
(145,475,o),
(117,459,o),
(101,435,c),
(62,441,l),
(107,640,l),
(295,640,l),
(288,596,l),
(148,596,l),
(149,596,l),
(124,491,l),
(141,507,o),
(169,517,o),
(197,517,cs),
(252,517,o),
(287,481,o),
(287,427,cs),
(287,345,o),
(225,285,o),
(143,285,cs)
);
}
);
width = 291;
},
{
layerId = "A9804AF1-4682-45A6-92D1-C6953796E638";
shapes = (
{
closed = 1;
nodes = (
(89,285,o),
(53,314,o),
(44,361,c),
(75,372,l),
(81,334,o),
(107,311,o),
(146,311,cs),
(206,311,o),
(248,359,o),
(248,418,cs),
(248,460,o),
(220,487,o),
(175,487,cs),
(140,487,o),
(105,468,o),
(87,440,c),
(67,445,l),
(110,640,l),
(290,640,l),
(285,613,l),
(135,613,l),
(136,613,l),
(106,484,l),
(125,502,o),
(159,514,o),
(189,514,cs),
(246,514,o),
(281,479,o),
(281,424,cs),
(281,345,o),
(221,285,o),
(142,285,cs)
);
}
);
width = 290;
},
{
layerId = "DD9EABB0-940B-474C-A221-8151F11C5AE7";
shapes = (
{
closed = 1;
nodes = (
(79,285,o),
(38,315,o),
(30,368,c),
(123,408,l),
(125,385,o),
(138,369,o),
(159,369,cs),
(188,369,o),
(204,395,o),
(204,421,cs),
(204,440,o),
(192,452,o),
(174,452,cs),
(157,452,o),
(139,442,o),
(130,424,c),
(54,433,l),
(100,640,l),
(307,640,l),
(294,561,l),
(174,561,l),
(175,561,l),
(162,506,l),
(173,517,o),
(191,522,o),
(214,522,cs),
(266,522,o),
(299,486,o),
(299,432,cs),
(299,345,o),
(231,285,o),
(145,285,cs)
);
}
);
width = 292;
}
);
},
